<ttFont>
          <CharString index="0">
            46 hmoveto
            541 83 hlineto
            -178 22 -6 6 173 vvcurveto
            242 719 -242 vlineto
            -173 -6 -6 -177 -5 callgsubr
            549 83 vlineto
            -152 26 -6 3 1 100 1 101 rcurveline
            8 776 -155 221 -419 279 rrcurveto
            -1 hlineto
            -418 -279 -163 -211 8 -786 1 -103 rcurveline
            1 -98 5 -3 -153 -26 rrcurveto
            359 555 rmoveto
            16 335 62 196 282 279 282 -279 71 -195 2 -336 rrcurveto
            return
          </CharString>
          <CharString index="1">
            861 -47 rmoveto
            462 270 181 237 794 vvcurveto
            149 9 23 131 17 vhcurveto
            87 -511 -87 vlineto
            137 -13 23 -34 -122 vvcurveto
            -689 -25 -155 -407 -334 vhcurveto
            -411 327 -43 171 680 vvcurveto
            122 22 34 139 13 vhcurveto
            87 -513 -87 vlineto
            141 -12 0 -38 -139 vvcurveto
            -794 187 -237 478 -270 vhcurveto
            return
          </CharString>
          <CharString index="2">
            101 587 rmoveto
            -353 198 -254 358 187 134 58 111 90 vhcurveto
            -103 callgsubr
            return
          </CharString>
          <CharString index="3">
            709 62 rmoveto
            -273 345 1 163 703 vvcurveto
            132 5 24 153 14 -15 callsubr
            139 -18 6 -20 -155 vvcurveto
            -796 114 -264 367 -270 vhcurveto
            200 166 123 172 80 235 76 -234 132 -172 193 -167 rrcurveto
            367 270 113 264 796 vvcurveto
            155 3 28 143 10 vhcurveto
            87 -511 -87 vlineto
            151 -14 5 -24 -132 vvcurveto
            -703 1 -163 -272 -345 vhcurveto
            -278 324 -19 137 717 vvcurveto
            165 13 20 144 18 vhcurveto
            87 -523 -87 vlineto
            145 -14 10 -24 -165 vvcurveto
            -677 -8 -163 -288 -338 vhcurveto
            return
          </CharString>
          <CharString index="4">
            121 609 rmoveto
            -313 185 -320 374 371 190 312 321 318 -190 301 -371 -370 -189 -301 -318 vhcurveto
            561 -522 rmoveto
            -271 -62 281 241 241 64 270 269 269 65 -259 -252 -244 -65 -278 -269 hvcurveto
            return
          </CharString>
          <CharString index="5">
            96 761 rmoveto
            -397 267 -390 520 148 151 31 53 106 vhcurveto
            25 -446 rlineto
            125 hlineto
            43 890 6 160 23 3 81 15 rlinecurve
            85 -568 -85 vlineto
            201 -13 40 -9 6 -156 12 -292 rcurveline
            -76 -84 -145 -39 -168 hhcurveto
            -403 -147 362 304 319 109 363 451 157 208 -68 -122 37 hvcurveto
            12 -40 4 -30 -38 vvcurveto
            -27 -2 -33 -3 -42 vhcurveto
            95 hlineto
            133 510 rlineto
            -95 hlineto
            -46 -34 -39 -36 -38 hhcurveto
            -49 -45 14 16 -51 hvcurveto
            22 -71 -86 28 -135 hhcurveto
            -537 -260 -394 -396 hvcurveto
            return
          </CharString>
          <CharString index="6">
            152 hmoveto
            -27 callgsubr
            -26 3 rlineto
            -132 19 -15 5 182 vvcurveto
            339 vlineto
            281 157 148 159 99 vhcurveto
            237 -187 18 -165 -409 vvcurveto
            -116 vlineto
            -185 -21 6 -151 -20 vhcurveto
            14 callsubr
            -14 2 -15 1 -11 2 rrcurveto
            -113 16 -13 2 195 vvcurveto
            604 -122 220 -332 175 vhcurveto
            -171 -86 -96 -98 -59 -116 rrcurveto
            208 -374 -86 vlineto
            152 -11 19 -16 -122 vvcurveto
            -713 vlineto
            -150 -20 -6 -120 -17 vhcurveto
            -8 -1 -12 -1 -9 -2 -2 -1 rcurveline
            return
          </CharString>
          <CharString index="7">
            177 -120 201 hintmask 00000000
            hintmask 11001001
            164 251 rmoveto
            -170 -5 239 -105 226 hhcurveto
            245 237 128 222 174 -175 83 -192 93 hvcurveto
            hintmask 11010001
            -19 9 -25 12 -19 8 rrcurveto
            -140 65 -127 62 105 vvcurveto
            106 78 78 148 133 80 -55 -73 -42 -23 -35 -15 -22 vhcurveto
            57 -41 rlineto
            65 14 93 62 83 vvcurveto
            123 -151 93 -208 vhcurveto
            hintmask 11001010
            -262 -190 -116 -198 -169 161 -101 196 -93 hvcurveto
            9 -3 14 -6 9 -4 rrcurveto
            168 -70 134 -58 -117 vvcurveto
            -125 -100 -81 -175 -167 -102 100 84 59 12 34 26 33 vhcurveto
            -44 51 rlineto
            hintmask 11001001
            -92 -22 -96 -74 -3 -101 rrcurveto
            hintmask 00100100
            return
          </CharString>
          <CharString index="8">
            204 hintmask 00000000
            hintmask 11100101
            361 -419 rmoveto
            -39 -108 rlineto
            -39 78 88 -21 87 hhcurveto
            367 193 314 324 hvcurveto
            hintmask 11010101
            907 vlineto
            128 15 28 157 10 vhcurveto
            85 -259 vlineto
            hintmask 11100101
            -47 -59 5 4 -60 hvcurveto
            5 -68 -72 5 -68 hhcurveto
            -395 -180 -316 -324 -317 163 -295 356 126 106 52 86 81 hvcurveto
            -65 vlineto
            -249 -86 -253 -294 -67 -66 11 23 -57 vhcurveto
            265 506 rmoveto
            -253 -47 262 239 283 75 249 269 243 18 -95 -109 hvcurveto
            -545 vlineto
            -155 -130 -129 -175 vhcurveto
            hintmask 00001010
            return
          </CharString>
          <CharString index="9">
            rmoveto
            66 -68 26 -36 -45 vvcurveto
            -63 -39 -32 -47 -30 vhcurveto
            42 -74 rlineto
            186 72 65 152 119 vvcurveto
            -150 152 rlineto
            endchar
          </CharString>
          <CharString index="10">
            -27 callsubr
            180 -60 callgsubr
            -182 -179 rlineto
            return
          </CharString>
          <CharString index="11">
            rmoveto
            270 342 270 -342 85 42 -226 453 rlineto
            -256 hlineto
            -228 -453 rlineto
            return
          </CharString>
          <CharString index="12">
            1017 hlineto
            46 31 -29 -49 4 hvcurveto
            86 hlineto
            77 514 rlineto
            -93 hlineto
            -302 -86 -28 -24 -400 hhcurveto
            -197 -69 6 94 hvcurveto
            1091 vlineto
            118 35 16 160 9 vhcurveto
            86 -583 -87 vlineto
            164 -12 20 -24 -110 vvcurveto
            -1062 vlineto
            return
          </CharString>
          <CharString index="13">
            rmoveto
            326 22 279 68 6 hvcurveto
            -105 hlineto
            -114 -21 -87 -72 -137 hhcurveto
            -136 -87 72 114 -21 hvcurveto
            -105 hlineto
            -68 6 22 -279 317 hhcurveto
            endchar
          </CharString>
          <CharString index="14">
            294 17 244 59 5 hvcurveto
            -103 hlineto
            -70 -36 -36 -74 -137 hhcurveto
            -117 -79 58 86 -18 hvcurveto
            -103 hlineto
            -182 4 143 -121 166 hhcurveto
            endchar
          </CharString>
          <CharString index="15">
            rmoveto
            534 150 -114 218 -452 -42 callsubr
          </CharString>
          <CharString index="16">
            140 hmoveto
            668 83 hlineto
            -259 7 -28 31 114 vvcurveto
            760 vlineto
            85 65 39 150 73 84 -32 -78 -71 -19 -57 -37 -36 vhcurveto
            55 -44 rlineto
            97 28 107 97 113 vvcurveto
            146 -158 43 -174 -53 -43 -4 -4 -49 vhcurveto
            -6 -62 -73 -6 -115 hhcurveto
            return
          </CharString>
          <CharString index="17">
            45 hmoveto
            559 83 hlineto
            -17 2 -20 4 -17 2 rrcurveto
            -105 16 -55 10 124 vvcurveto
            959 vlineto
            991 -1247 78 23 rlineto
            1314 vlineto
            137 40 3 142 15 vhcurveto
            85 vlineto
            return
          </CharString>
          <CharString index="18">
            rmoveto
            365 387 -210 134 -253 -36 callsubr
          </CharString>
          <CharString index="19">
            98 hmoveto
            546 83 hlineto
            -177 22 -7 6 173 vvcurveto
            202 727 -202 vlineto
            -173 -6 -6 -177 -5 callgsubr
            1137 vlineto
            73 425 rlineto
            -95 hlineto
            -285 -101 -94 -28 -258 hhcurveto
            -278 201 hlineto
            167 -10 168 -14 131 vhcurveto
            511 hlineto
            27 114 rlineto
            -553 hlineto
            -50 231 -74 165 -166 129 rrcurveto
            689 hlineto
            183 61 -26 -120 -45 -8 -56 -13 -71 hvcurveto
            96 hlineto
            105 430 rlineto
            -1243 hlineto
            -27 20 -29 20 -29 20 rrcurveto
            -2 hlineto
            -418 -249 -157 -302 -726 vvcurveto
            -200 -7 1 -162 -31 vhcurveto
            364 515 rmoveto
            16 398 81 216 284 237 277 -234 62 -229 3 -388 rrcurveto
            return
          </CharString>
          <CharString index="20">
            -528 -85 hlineto
            -83 callsubr
            return
          </CharString>
          <CharString index="21">
            hmoveto
            577 83 hlineto
            -48 7 rlineto
            -114 17 -40 8 150 vvcurveto
            1465 -375 -34 callgsubr
            -154 vvcurveto
            -1203 vlineto
            -155 -87 callgsubr
            return
          </CharString>
          <CharString index="22">
            -78 callgsubr
            hintmask 00100100
            -86 callgsubr
            hintmask 00010100
            -53 callsubr
          </CharString>
          <CharString index="23">
            124 86 -32 -99 -68 -76 -56 -120 -29 hvcurveto
            57 -83 rlineto
            126 10 220 97 162 vvcurveto
            125 -126 68 -134 -2 vhcurveto
            return
          </CharString>
          <CharString index="24">
            152 -13 42 -9 -136 vvcurveto
            -937 vlineto
            -984 1238 -85 -30 rlineto
            -1348 vlineto
            -98 -49 -8 -99 -15 vhcurveto
            -45 -6 rlineto
            return
          </CharString>
          <CharString index="25">
            rmoveto
            -72 89 165 -58 164 hhcurveto
            248 250 126 290 203 -194 102 -100 13 hvcurveto
            129 110 99 141 179 vvcurveto
            43 -589 vlineto
            -41 -23 17 45 5 0 6 1 7 hvcurveto
            -85 hlineto
            -133 -464 rlineto
            90 hlineto
            123 52 39 86 120 hhcurveto
            381 hlineto
            -32 -143 -135 -162 -229 -87 39 -87 rcurveline
            32 13 35 15 35 18 rrcurveto
            198 5 114 -134 -101 vvcurveto
            -169 -162 -87 -174 -128 -136 44 63 -80 vhcurveto
            endchar
          </CharString>
          <CharString index="26">
            rmoveto
            739 hlineto
            41 32 -29 -49 9 hvcurveto
            87 hlineto
            107 461 rlineto
            -88 hlineto
            -152 -57 -64 -59 -160 hhcurveto
            -324 hlineto
            401 288 136 129 181 vvcurveto
            194 -186 122 -197 -58 -69 -14 -10 -47 vhcurveto
            -5 -24 -21 -5 -10 hhcurveto
            -36 -26 30 50 hvcurveto
            -79 hlineto
            -145 -501 rlineto
            87 hlineto
            188 78 111 129 175 hhcurveto
            177 57 -123 -95 -195 -350 -269 -307 -214 hvcurveto
            endchar
          </CharString>
          <CharString index="27">
            rmoveto
            -403 -52 -65 -190 -181 vhcurveto
            -25 -23 -27 -27 -30 -29 54 -68 rcurveline
            390 240 82 96 539 vvcurveto
            634 -44 callsubr
            -55 callgsubr
            86 -548 -86 vlineto
            145 -13 28 -9 -134 vvcurveto
            return
          </CharString>
          <CharString index="28">
            rmoveto
            149 140 86 172 170 -140 84 -149 -150 -138 -84 -170 -172 138 -86 150 hvcurveto
            99 vmoveto
            -86 -78 51 103 101 78 52 86 85 80 -52 -101 -103 -80 -51 -85 hvcurveto
            endchar
          </CharString>
          <CharString index="29">
            31 hmoveto
            510 83 hlineto
            -177 13 -28 27 15 80 172 901 rcurveline
            520 -1154 rlineto
            67 hlineto
            510 1154 161 -838 rlineto
            4 -31 4 -26 -20 vvcurveto
            -79 -35 -5 -131 -5 callgsubr
            569 83 vlineto
            -138 19 -22 -3 -36 167 -281 1293 rcurveline
            -68 hlineto
            -536 -1221 -553 1221 rlineto
            -74 hlineto
            -292 -1392 -13 -61 -34 -7 -114 -16 rlinecurve
            return
          </CharString>
          <CharString index="30">
            rmoveto
            -467 -39 -146 -285 -276 vhcurveto
            54 -68 rlineto
            390 239 83 216 539 vvcurveto
            838 -50 callgsubr
            32 1 160 15 vhcurveto
            87 -588 -87 vlineto
            145 -13 48 -3 -161 vvcurveto
            return
          </CharString>
          <CharString index="31">
            606 rmoveto
            -312 203 -318 344 342 221 278 449 529 -256 480 -643 94 vhcurveto
            -21 -88 315 -69 206 -197 100 -297 rlinecurve
            52 -70 -103 30 -97 hhcurveto
            -361 -180 -318 -313 hvcurveto
            550 -519 rmoveto
            -247 -74 277 239 267 70 259 261 235 87 -184 -267 -335 -55 -256 -277 hvcurveto
            return
          </CharString>
          <CharString index="32">
            -8 75 82 -8 67 hhcurveto
            366 195 328 323 316 -179 308 -325 -127 -137 -54 -86 -79 hvcurveto
            370 vlineto
            139 38 -1 134 14 vhcurveto
            83 return
          </CharString>
          <CharString index="33">
            72 -25 129 600 113 626 109 return
          </CharString>
          <CharString index="34">
            rmoveto
            89 55 -253 466 -201 -134 rlineto
            endchar
          </CharString>
          <CharString index="35">
            111 vstem
            74 675 rmoveto
            -455 357 -365 461 458 355 365 455 456 -355 369 -458 -461 -357 -369 -456 vhcurveto
            109 hmoveto
            390 296 342 413 421 281 -340 -392 -407 -297 -323 -405 -391 -318 343 387 vhcurveto
            return
          </CharString>
          <CharString index="36">
            152 -13 21 -8 -155 vvcurveto
            return
          </CharString>
          <CharString index="37">
            -113 hlineto
            -73 7 -54 -45 -58 -109 -63 152 -153 hhcurveto
            return
          </CharString>
          <CharString index="38">
            -588 -11 -208 -252 -164 vvcurveto
            1023 313 rmoveto
            261 106 243 225 143 56 -90 -76 -239 -269 -93 -261 -6 vhcurveto
            -795 -313 rmoveto
            241 278 66 290 16 vhcurveto
            -276 vlineto
            -166 -134 -114 -160 -165 -109 90 143 vhcurveto
            return
          </CharString>
          <CharString index="39">
            152 -12 21 -10 -156 vvcurveto
            return
          </CharString>
          <CharString index="40">
            -68 callsubr
            -678 vlineto
            return
          </CharString>
          <CharString index="41">
            rmoveto
            180 178 rlineto
            -88 87 -40 95 97 vvcurveto
            96 40 99 69 99 vhcurveto
            -77 53 -187 -211 -65 -241 -11 -174 rlinecurve
            return
          </CharString>
          <CharString index="42">
            rmoveto
            353 208 -106 134 -302 -278 rlineto
            -339 -64 rmoveto
            353 208 -106 134 -302 -42 callsubr
          </CharString>
          <CharString index="43">
            291 1 rlineto
            32 73 -8 -7 72 hvcurveto
            -7 72 91 -4 31 hhcurveto
            return
          </CharString>
          <CharString index="44">
            242 -20 101 1362 108 return
          </CharString>
          <CharString index="45">
            239 -26 -21 1490 87 return
          </CharString>
          <CharString index="46">
            611 -23 rlineto
            183 vlineto
            -611 -29 rlineto
            endchar
          </CharString>
          <CharString index="47">
            hstemhm
            169 229 -189 220 return
          </CharString>
          <CharString index="48">
            -268 -30 -21 51 123 963 122 -122 173 -114 63 return
          </CharString>
          <CharString index="49">
            239 -330 rmoveto
            -138 -34 -3 -126 -12 vhcurveto
            -2 -1 rlineto
            -82 560 83 vlineto
            -151 14 -43 -1 140 vvcurveto
            440 vlineto
            -84 80 108 -50 125 hhcurveto
            356 162 301 317 hvcurveto
            return
          </CharString>
          <CharString index="50">
            -143 -131 -129 -158 33 hvcurveto
            endchar
          </CharString>
          <CharString index="51">
            -100 -31 -21 1174 86 return
          </CharString>
          <CharString index="52">
            158 -14 15 -24 -128 vvcurveto
            204 -593 rmoveto
            550 vlineto
            109 18 97 242 270 75 -245 -283 -239 -47 -268 -253 -175 -130 124 155 vhcurveto
            return
          </CharString>
          <CharString index="53">
            hstemhm
            137 237 -157 198 return
          </CharString>
          <CharString index="54">
            -113 -120 -96 -159 -7 hvcurveto
            endchar
          </CharString>
          <CharString index="55">
            88 -56 callgsubr
            return
          </CharString>
          <CharString index="56">
            73 0 83 443 112 return
          </CharString>
          <CharString index="57">
            -286 -195 -116 -141 -89 111 -56 78 -14 hvcurveto
            11 callsubr
            77 136 207 87 -83 -133 vhcurveto
            -175 vlineto
            return
          </CharString>
          <CharString index="58">
            -1012 vlineto
            -156 -22 -6 -117 -16 vhcurveto
            -34 -5 rlineto
            return
          </CharString>
          <CharString index="59">
            -155 -22 -6 -151 -21 vhcurveto
            return
          </CharString>
          <CharString index="60">
            -71 32 rlineto
            32 -67 -62 21 -63 hhcurveto
            -198 -109 -117 -128 -71 hvcurveto
            return
          </CharString>
          <CharString index="61">
            -84 callsubr
            39 return
          </CharString>
          <CharString index="62">
            64 hmoveto
            -64 callsubr
            return
          </CharString>
          <CharString index="63">
            -50 callgsubr
            22 return
          </CharString>
          <CharString index="64">
            -1032 vlineto
            -22 callsubr
            376 209 rmoveto
            946 vlineto
            114 19 91 246 278 62 -108 -140 vhcurveto
            return
          </CharString>
          <CharString index="65">
            -278 rlineto
            endchar
          </CharString>
          <CharString index="66">
            239 -26 121 585 85 678 108 return
          </CharString>
          <CharString index="67">
            -217 15 -31 13 139 vvcurveto
            return
          </CharString>
          <CharString index="68">
            -130 -83 -133 -124 -155 vvcurveto
            -133 94 -73 150 return
          </CharString>
          <CharString index="69">
            70 -25 140 1327 109 return
          </CharString>
          <CharString index="70">
            198 93 63 205 34 vhcurveto
            122 16 return
          </CharString>
          <CharString index="71">
            -466 rlineto
            endchar
          </CharString>
          <CharString index="72">
            -84 vlineto
            153 -14 19 -8 -151 vvcurveto
            -1212 vlineto
            -148 -13 -12 -157 -18 vhcurveto
            -2 -1 rlineto
            endchar
          </CharString>
          <CharString index="73">
            -99 -30 116 -86 83 1045 117 382 83 hstemhm
            274 204 622 225 hintmask 00000000
            hintmask 01111100
            return
          </CharString>
          <CharString index="74">
            rmoveto
            88 62 73 49 110 hhcurveto
            34 38 -14 -17 35 hvcurveto
            return
          </CharString>
          <CharString index="75">
            -271 -24 111 1034 107 return
          </CharString>
          <CharString index="76">
            hstemhm
            119 239 return
          </CharString>
          <CharString index="77">
            hstemhm
            196 211 return
          </CharString>
          <CharString index="78">
            -35 -5 rlineto
            return
          </CharString>
          <CharString index="79">
            rmoveto
            75 -53 612 556 -612 558 -75 -53 return
          </CharString>
          <CharString index="80">
            rmoveto
            178 return
          </CharString>
          <CharString index="81">
            -97 0 123 1286 121 return
          </CharString>
          <CharString index="82">
            -567 -21 588 return
          </CharString>
          <CharString index="83">
            -566 -21 367 222 return
          </CharString>
          <CharString index="84">
            -27 -3 -26 -195 hhcurveto
            -75 162 hlineto
            198 43 2 169 26 vhcurveto
            2 1 rlineto
            return
          </CharString>
          <CharString index="85">
            -127 -15 -25 -158 -14 vhcurveto
            return
          </CharString>
          <CharString index="86">
            156 -10 callgsubr
            return
          </CharString>
          <CharString index="87">
            -21 -69 callgsubr
            return
          </CharString>
          <CharString index="88">
            201 -136 return
          </CharString>
          <CharString index="89">
            121 228 return
          </CharString>
          <CharString index="90">
            7 65 67 7 47 hhcurveto
            260 83 hlineto
            -158 14 -15 25 127 vvcurveto
            return
          </CharString>
          <CharString index="91">
            762 1443 87 return
          </CharString>
          <CharString index="92">
            vhcurveto
            87 -512 -87 vlineto
            return
          </CharString>
          <CharString index="93">
            -568 124 return
          </CharString>
          <CharString index="94">
            -1002 vlineto
            return
          </CharString>
          <CharString index="95">
            758 0 112 374 112 181 114 525 112 return
          </CharString>
          <CharString index="96">
            753 166 hstem
            return
          </CharString>
          <CharString index="97">
            rmoveto
            1005 468 rlineto
            120 vlineto
            -1005 467 -70 -151 return
          </CharString>
          <CharString index="98">
            hmoveto
            -7 callgsubr
            return
          </CharString>
          <CharString index="99">
            vlineto
            -48 callsubr
            return
          </CharString>
          <CharString index="100">
            -101 525 167 285 167 hstem
            148 1064 vstem
            return
          </CharString>
          <CharString index="101">
            585 -20 100 -100 110 429 107 10 104 391 97 return
          </CharString>
          <CharString index="102">
            521 hstemhm
            return
          </CharString>
          <CharString index="103">
            98 4 callgsubr
            return
          </CharString>
          <CharString index="104">
            86 1036 87 -81 81 416 85 hstemhm
            252 203 return
          </CharString>
          <CharString index="105">
            202 -110 282 hintmask 00000000
            return
          </CharString>
          <CharString index="106">
            237 0 83 653 113 return
          </CharString>
          <CharString index="107">
            136 -12 37 -3 -137 vvcurveto
            return
          </CharString>
          <CharString index="108">
            77 0 83 1039 86 return
          </CharString>
          <CharString index="109">
            589 1124 84 return
          </CharString>
          <CharString index="110">
            rmoveto
            154 hlineto
            763 2324 rlineto
            -151 hlineto
            return
          </CharString>
          <CharString index="111">
            -97 -566 83 459 111 1035 106 -103 83 return
          </CharString>
          <CharString index="112">
            vlineto
            hintmask 10101110
            312 hlineto
            30 125 rlineto
            -342 return
          </CharString>
          <CharString index="113">
            vlineto
            -37 callsubr
            return
          </CharString>
          <CharString index="114">
            -136 -120 -20 -121 hhcurveto
            -260 hlineto
            return
          </CharString>
          <CharString index="115">
            hlineto
            31 356 -168 14 -33 -370 rlineto
            return
          </CharString>
          <CharString index="116">
            -173 19 -20 callsubr
            990 vlineto
            return
          </CharString>
          <CharString index="117">
            -71 callsubr
            -13 callsubr
            return
          </CharString>
          <CharString index="118">
            68 41 rlineto
            -16 24 -22 34 42 vvcurveto
            101 97 return
          </CharString>
          <CharString index="119">
            30 -32 -46 8 hvcurveto
            87 hlineto
            99 434 rlineto
            return
          </CharString>
          <CharString index="120">
            hstemhm
            264 203 return
          </CharString>
          <CharString index="121">
            -83 -26 callgsubr
            vlineto
            return
          </CharString>
          <CharString index="122">
            hlineto
            -313 -180 return
          </CharString>
          <CharString index="123">
            6 rlineto
            -119 19 3 callgsubr
            return
          </CharString>
          <CharString index="124">
            1602 368 hstem
            37 566 vstem
            return
          </CharString>
        <CharString name=".notdef">
          309 0 149 1063 -20 21 -20 73 150 hstemhm
          177 146 1117 153 hintmask 00000000
          hintmask 10111100
          177 hmoveto
          1416 1416 -1416 hlineto
          146 -919 rmoveto
          54 55 106 -87 16 -11 101 102 rlinecurve
          153 152 -152 152 -99 100 -20 -7 -104 -89 rlinecurve
          -55 55 348 347 55 -54 -87 -106 -11 -16 102 -101 rlinecurve
          152 -152 149 150 99 99 -8 12 -63 86 rlinecurve
          -20 29 53 53 347 -348 -52 -53 -25 19 -85 63 -18 11 -99 -100 rlinecurve
          -149 -150 150 -150 99 -99 12 8 86 63 rlinecurve
          29 20 rlineto
          hintmask 11011100
          53 -53 -348 -347 -53 52 19 25 rlineto
          hintmask 10111100
          63 85 11 18 -100 99 -150 150 rcurveline
          -153 -152 -100 -99 7 -20 89 -104 rlinecurve
          -55 -55 rlineto
          endchar
        </CharString>
        <CharString name=".null">
          endchar
        </CharString>
        <CharString name="A">
          -51 callsubr
          hstem
          -18 callgsubr
          719 210 vstem
          -107 callsubr
          endchar
        </CharString>
        <CharString name="AE">
          -12 callsubr
          hstem
          267 193 727 201 vstem
          -88 callsubr
          endchar
        </CharString>
        <CharString name="AEacute">
          -12 callsubr
          -29 callgsubr
          267 193 632 566 -471 201 hintmask 11110101
          -88 callsubr
          hintmask 00001010
          -61 1004 -92 callsubr
        </CharString>
        <CharString name="Aacute">
          -51 callsubr
          964 -17 callgsubr
          -18 callgsubr
          79 566 74 210 hintmask 11010100
          -107 callsubr
          hintmask 00101000
          -606 964 -92 callsubr
        </CharString>
        <CharString name="Abreve">
          -51 callsubr
          1004 159 hstemhm
          -18 callgsubr
          48 629 42 210 hintmask 11010100
          -107 callsubr
          hintmask 00101000
          -356 1004 rmoveto
          -93 callsubr
        </CharString>
        <CharString name="Acircumflex">
          -51 callsubr
          988 345 hstemhm
          -18 callgsubr
          27 670 22 210 hintmask 11010100
          -107 callsubr
          hintmask 00101000
          -626 988 -96 callgsubr
        </CharString>
        <CharString name="Adieresis">
          -51 callsubr
          974 360 hstemhm
          -18 callgsubr
          -54 832 -59 210 hintmask 11010100
          -107 callsubr
          hintmask 00101000
          -118 974 rmoveto
          179 181 -95 callgsubr
          -287 -181 rmoveto
          179 181 -95 callgsubr
          endchar
        </CharString>
        <CharString name="Agrave">
          -51 callsubr
          964 -17 callgsubr
          -18 callgsubr
          79 566 74 210 hintmask 11010100
          -107 callsubr
          hintmask 00101000
          -104 964 -72 callgsubr
        </CharString>
        <CharString name="Amacron">
          -51 callsubr
          1162 157 hstemhm
          -18 callgsubr
          57 611 51 210 hintmask 11010100
          -107 callsubr
          hintmask 00101000
          -660 1174 rmoveto
          -61 callsubr
        </CharString>
        <CharString name="Aogonek">
          72 -14 callsubr
          444 83 443 112 hstemhm
          207 211 510 204 13 210 hintmask 00000000
          hintmask 11110100
          41 hmoveto
          561 83 hlineto
          -178 22 -6 6 173 vvcurveto
          242 727 -242 vlineto
          -173 -6 -6 -177 -5 callgsubr
          229 vlineto
          -39 callsubr
          88 -59 callgsubr
          hintmask 11111100
          -30 -62 -66 -12 -50 hhcurveto
          -75 -44 45 80 100 87 134 127 85 hvcurveto
          175 83 hlineto
          -152 26 -16 3 1 100 1 101 rcurveline
          8 776 -159 221 -419 279 rrcurveto
          -1 hlineto
          hintmask 11110100
          -418 -279 -167 -211 8 -786 1 -103 rcurveline
          1 -98 -15 -3 -153 -26 rrcurveto
          379 555 rmoveto
          16 335 66 196 282 279 282 -279 75 -195 2 -336 rrcurveto
          endchar
        </CharString>
        <CharString name="Aring">
          -51 callsubr
          842 117 250 124 hstemhm
          -18 callgsubr
          89 136 275 136 83 210 hintmask 11001001
          -107 callsubr
          hintmask 00110110
          -354 842 -79 callgsubr
        </CharString>
        <CharString name="Atilde">
          -51 callsubr
          1064 -15 callgsubr
          -18 callgsubr
          10 704 5 210 hintmask 11001010
          -107 callsubr
          hintmask 00000000
          -707 1078 -85 callsubr
        </CharString>
        <CharString name="B">
          -3 callgsubr
          13 callsubr
          605 226 -98 226 hintmask 00000000
          hintmask 01010100
          -57 callgsubr
          hintmask 10001101
          7 callsubr
          hintmask 10001110
          -87 vlineto
          158 -14 15 -21 -127 vvcurveto
          hintmask 10010101
          -43 callsubr
          hintmask 10101110
          -49 callgsubr
          hintmask 10010101
          -294 -25 97 109 hvcurveto
          endchar
        </CharString>
        <CharString name="C">
          -38 callsubr
          hstem
          120 235 934 91 vstem
          -98 callgsubr
          endchar
        </CharString>
        <CharString name="CR">
          endchar
        </CharString>
        <CharString name="Cacute">
          -38 callsubr
          51 -17 callgsubr
          120 235 230 566 138 91 hintmask 11010100
          -98 callgsubr
          hintmask 00101000
          497 847 -92 callsubr
        </CharString>
        <CharString name="Ccaron">
          -38 callsubr
          76 345 hstemhm
          120 235 177 673 84 91 hintmask 11010100
          -98 callgsubr
          hintmask 00101000
          667 872 -91 callgsubr
        </CharString>
        <CharString name="Ccedilla">
          70 -24 callsubr
          -27 140 1327 109 hstemhm
          120 235 566 207 161 91 hintmask 11011110
          711 -220 rmoveto
          -84 callsubr
          hintmask 10111110
          38 102 255 4 187 96 100 150 rlinecurve
          -13 callgsubr
          -123 -126 -141 -54 -197 hhcurveto
          -415 -164 337 296 333 137 361 401 158 183 -66 -19 callgsubr
          21 -77 -4 -77 -6 -75 rrcurveto
          96 hlineto
          132 530 rlineto
          -95 hlineto
          -47 -34 -38 -35 -39 hhcurveto
          -50 -40 14 16 -47 hvcurveto
          22 -64 -77 28 -132 hhcurveto
          -507 -269 -397 -399 -379 227 -349 442 -46 hvcurveto
          endchar
        </CharString>
        <CharString name="Ccircumflex">
          -38 callsubr
          75 345 hstemhm
          120 235 178 670 86 91 hintmask 11010100
          -98 callgsubr
          hintmask 00101000
          477 871 -96 callgsubr
        </CharString>
        <CharString name="Cdotaccent">
          -38 callsubr
          62 -22 callgsubr
          120 235 333 360 241 91 hintmask 11010100
          -98 callgsubr
          hintmask 00101000
          750 858 -97 callsubr
          endchar
        </CharString>
        <CharString name="D">
          -24 callgsubr
          hstemhm
          237 203 835 224 hintmask 00000000
          hintmask 01011100
          -45 callsubr
          hintmask 10011100
          498 275 344 498 507 -323 220 -433 -38 -93 -6 -5 -80 hvcurveto
          -5 -75 -72 3 -30 hhcurveto
          hintmask 10101100
          -291 -88 14 callgsubr
          -6 -155 vvcurveto
          -1004 -8 callsubr
          hintmask 01011100
          376 134 rmoveto
          1112 vlineto
          hintmask 10011100
          91 172 23 102 333 228 -151 -439 -498 -152 -267 -372 -73 -238 21 108 vhcurveto
          endchar
        </CharString>
        <CharString name="Dcaron">
          -24 callgsubr
          83 345 hstemhm
          237 203 15 673 147 224 hintmask 00000000
          hintmask 01010101
          -45 callsubr
          hintmask 10010101
          498 275 344 498 507 -323 220 -433 -38 -93 -6 -5 -80 hvcurveto
          -5 -75 -72 3 -30 hhcurveto
          hintmask 10100101
          -291 -88 14 callgsubr
          -6 -155 vvcurveto
          -1004 -8 callsubr
          hintmask 01010101
          376 134 rmoveto
          1112 vlineto
          hintmask 10010101
          91 172 23 102 333 228 -151 -439 -498 -152 -267 -372 -73 -238 21 108 vhcurveto
          hintmask 00001010
          270 1410 -91 callgsubr
        </CharString>
        <CharString name="Dcroat">
          72 -25 113 -87 82 683 125 552 88 -88 101 hstemhm
          237 203 855 224 hintmask 00000000
          hintmask 01101110
          -45 callsubr
          hintmask 10101110
          510 283 344 498 507 -331 220 -445 -38 -93 -6 -5 -80 hvcurveto
          -5 -75 -72 3 -30 hhcurveto
          hintmask 10110110
          -291 -88 14 callgsubr
          -6 -155 vvcurveto
          -378 -201 vlineto
          -29 -125 rlineto
          230 -501 hlineto
          -48 callsubr
          hintmask 01101110
          376 134 rmoveto
          549 5 callsubr
          438 -39 callgsubr
        </CharString>
        <CharString name="Delta">
          69 0 153 hstem
          26 1478 vstem
          26 hmoveto
          1478 87 hlineto
          -97 14 -23 36 -35 86 -559 1365 rcurveline
          -72 1 -547 -1355 -40 -99 -8 -36 -97 -12 rlinecurve
          289 66 rmoveto
          418 1103 431 -1103 rlineto
          endchar
        </CharString>
        <CharString name="E">
          -74 callsubr
          hstem
          107 231 vstem
          -107 callgsubr
          endchar
        </CharString>
        <CharString name="Eacute">
          -74 callsubr
          50 -17 callgsubr
          107 231 191 566 hintmask 11101000
          -107 callgsubr
          hintmask 00010100
          454 877 -92 callsubr
        </CharString>
        <CharString name="Ebreve">
          -74 callsubr
          90 159 hstemhm
          107 231 160 629 hintmask 11101000
          -107 callgsubr
          hintmask 00010100
          704 917 rmoveto
          -93 callsubr
        </CharString>
        <CharString name="Ecaron">
          -74 callsubr
          75 345 hstemhm
          107 231 138 673 hintmask 11101000
          -107 callgsubr
          hintmask 00010100
          624 902 -91 callgsubr
        </CharString>
        <CharString name="Ecircumflex">
          -74 callsubr
          74 345 hstemhm
          107 231 139 670 hintmask 11101000
          -107 callgsubr
          hintmask 00010100
          434 901 -96 callgsubr
        </CharString>
        <CharString name="Edieresis">
          -74 callsubr
          60 360 hstemhm
          107 231 58 832 hintmask 11101000
          -107 callgsubr
          hintmask 00010100
          942 887 rmoveto
          179 181 -95 callgsubr
          -287 -181 rmoveto
          179 181 -95 callgsubr
          endchar
        </CharString>
        <CharString name="Edotaccent">
          -74 callsubr
          61 -22 callgsubr
          107 231 294 360 hintmask 11101000
          -107 callgsubr
          hintmask 00010100
          707 888 -97 callsubr
          endchar
        </CharString>
        <CharString name="Egrave">
          -74 callsubr
          50 -17 callgsubr
          107 231 191 566 hintmask 11101000
          -107 callgsubr
          hintmask 00010100
          956 877 -72 callgsubr
        </CharString>
        <CharString name="Emacron">
          -74 callsubr
          248 157 hstemhm
          107 231 169 611 hintmask 11101000
          -107 callgsubr
          hintmask 00010100
          400 1087 rmoveto
          -61 callsubr
        </CharString>
        <CharString name="Eng">
          242 -566 -21 587 86 1359 85 hstem
          238 152 917 152 vstem
          45 hmoveto
          559 83 hlineto
          -17 2 -20 4 -17 2 rrcurveto
          -105 16 -55 10 124 vvcurveto
          959 vlineto
          882 -1115 -34 -302 -151 -201 -315 -71 rlinecurve
          20 -98 rlineto
          499 87 168 325 509 vvcurveto
          956 vlineto
          137 40 3 142 15 vhcurveto
          85 -528 -85 vlineto
          -83 callsubr
          endchar
        </CharString>
        <CharString name="Eogonek">
          72 -14 callsubr
          419 129 600 113 626 109 hstem
          97 235 400 204 vstem
          97 725 rmoveto
          -402 265 -348 474 51 56 7 11 51 vhcurveto
          -137 -92 -125 -125 -138 vvcurveto
          -127 100 -79 144 -52 callsubr
          -67 -12 -49 hhcurveto
          -75 -44 45 80 212 315 180 184 152 hvcurveto
          -13 callgsubr
          -150 -193 -145 -38 -169 hhcurveto
          -362 -173 313 287 -11 hvcurveto
          656 hlineto
          27 113 rlineto
          -680 hlineto
          296 28 150 330 325 hhcurveto
          158 173 -69 -19 callgsubr
          12 -41 4 -38 -45 vvcurveto
          -30 -2 -34 -3 -41 vhcurveto
          95 hlineto
          133 530 rlineto
          -96 hlineto
          -47 -33 -38 -35 -39 hhcurveto
          -50 -40 14 16 -47 hvcurveto
          22 -64 -67 31 -142 hhcurveto
          -477 -257 -412 -415 hvcurveto
          endchar
        </CharString>
        <CharString name="Eth">
          72 -24 113 -88 83 682 125 553 88 -88 101 hstemhm
          237 203 855 224 hintmask 00000000
          hintmask 01101110
          64 1 rmoveto
          -64 callsubr
          hintmask 10101110
          510 283 344 498 507 -331 220 -445 -38 -93 -6 -5 -80 hvcurveto
          -5 -75 -72 3 -30 hhcurveto
          hintmask 10110110
          -291 -88 14 callgsubr
          -6 -155 vvcurveto
          -379 -201 vlineto
          -29 -125 rlineto
          230 -500 hlineto
          -48 callsubr
          hintmask 01101110
          376 134 rmoveto
          548 5 callsubr
          439 -39 callgsubr
        </CharString>
        <CharString name="Euro">
          411 -24 140 468 113 131 113 502 109 hstem
          337 235 874 91 vstem
          140 584 rmoveto
          212 hlineto
          -335 62 246 -273 419 hhcurveto
          247 183 97 153 96 hvcurveto
          -13 callgsubr
          -123 -117 -132 -54 -185 hhcurveto
          -322 -162 224 244 -49 hvcurveto
          620 hlineto
          27 113 rlineto
          -662 hlineto
          -1 17 0 17 18 vvcurveto
          26 1 26 1 27 vhcurveto
          698 hlineto
          27 113 rlineto
          -712 hlineto
          266 43 143 236 307 hhcurveto
          146 168 -66 -124 36 hvcurveto
          21 -77 -4 -77 -6 -75 rrcurveto
          96 hlineto
          132 530 rlineto
          -95 hlineto
          -47 -34 -39 -35 -38 hhcurveto
          -38 -32 14 16 -37 hvcurveto
          22 -64 -77 28 -132 hhcurveto
          -410 -249 -283 -328 -68 hvcurveto
          -216 -113 200 hlineto
          -2 -24 -1 -24 -24 vvcurveto
          -20 1 -20 1 -19 vhcurveto
          -199 hlineto
          endchar
        </CharString>
        <CharString name="F">
          8 callgsubr
          hstem
          259 202 vstem
          86 hmoveto
          655 83 hlineto
          -256 25 -24 -69 callgsubr
          463 569 vlineto
          27 114 rlineto
          -596 576 454 hlineto
          184 61 -25 -122 -45 -8 -55 -13 -71 hvcurveto
          95 hlineto
          105 430 rlineto
          -1253 -87 hlineto
          10 callsubr
          -155 -22 -6 -151 -21 vhcurveto
          endchar
        </CharString>
        <CharString name="G">
          -41 callsubr
          hstem
          96 239 965 235 vstem
          -102 callsubr
          endchar
        </CharString>
        <CharString name="Gbreve">
          -41 callsubr
          91 159 hstemhm
          96 239 248 629 88 235 hintmask 11101010
          -102 callsubr
          hintmask 00010100
          800 881 rmoveto
          -93 callsubr
        </CharString>
        <CharString name="Gcircumflex">
          -41 callsubr
          75 345 hstemhm
          96 239 227 670 68 235 hintmask 11101010
          -102 callsubr
          hintmask 00010100
          530 865 -96 callgsubr
        </CharString>
        <CharString name="Gcommaaccent">
          239 -567 -21 562 121 585 85 678 108 hstemhm
          96 239 411 299 255 235 hintmask 01111010
          -102 callsubr
          hintmask 10000100
          650 -1001 -98 callsubr
        </CharString>
        <CharString name="Gdotaccent">
          -41 callsubr
          62 -22 callgsubr
          96 239 382 360 223 235 hintmask 11101010
          -102 callsubr
          hintmask 00010100
          803 852 -97 callsubr
          endchar
        </CharString>
        <CharString name="H">
          -1 callsubr
          594 87 hstem
          275 200 745 201 vstem
          112 hmoveto
          535 83 hlineto
          -157 25 3 callgsubr
          471 745 -471 vlineto
          -155 -22 -6 -150 -21 vhcurveto
          -83 545 83 vlineto
          -158 25 -14 -69 callgsubr
          1002 -44 callsubr
          1 150 15 vhcurveto
          87 -545 -87 vlineto
          152 -13 20 -8 -155 vvcurveto
          -418 -745 418 -50 callgsubr
          21 1 -47 callgsubr
          87 -543 -87 vlineto
          152 -13 19 -8 -155 vvcurveto
          -13 callsubr
          -155 -12 -6 -151 -21 vhcurveto
          endchar
        </CharString>
        <CharString name="Hbar">
          -1 callsubr
          202 125 267 87 hstem
          275 203 740 203 vstem
          112 hmoveto
          538 83 hlineto
          -157 25 3 callgsubr
          471 740 -471 vlineto
          -155 -22 -6 -150 -21 vhcurveto
          14 callsubr
          -158 25 -14 -69 callgsubr
          786 139 125 -139 91 -44 callsubr
          1 150 15 vhcurveto
          87 -547 -87 vlineto
          152 -13 20 -8 -155 vvcurveto
          -91 -740 91 -50 callgsubr
          21 1 -47 callgsubr
          87 -546 -87 vlineto
          152 -13 19 -8 -155 vvcurveto
          -91 -154 -125 154 -786 vlineto
          -155 -12 -6 -151 -21 vhcurveto
          366 766 rmoveto
          202 740 -202 vlineto
          endchar
        </CharString>
        <CharString name="Hcircumflex">
          -1 callsubr
          594 87 96 345 hstemhm
          275 200 38 670 37 201 hintmask 11101010
          112 hmoveto
          535 83 hlineto
          -157 25 3 callgsubr
          471 745 -471 vlineto
          -155 -22 -6 -150 -21 vhcurveto
          -83 545 83 vlineto
          -158 25 -14 -69 callgsubr
          1002 -44 callsubr
          1 150 15 vhcurveto
          87 -545 -87 vlineto
          152 -13 20 -8 -155 vvcurveto
          -418 -745 418 -50 callgsubr
          21 1 -47 callgsubr
          87 -543 -87 vlineto
          152 -13 19 -8 -155 vvcurveto
          -13 callsubr
          -155 -12 -6 -151 -21 vhcurveto
          hintmask 00010100
          465 1543 -96 callgsubr
        </CharString>
        <CharString name="I">
          -58 callgsubr
          hstem
          327 202 vstem
          154 hmoveto
          -27 callgsubr
          -38 16 callsubr
          1002 -44 callsubr
          1 150 15 vhcurveto
          87 -547 -87 vlineto
          10 callsubr
          -154 -22 -6 -117 -17 vhcurveto
          -32 -5 -2 -1 rlineto
          endchar
        </CharString>
        <CharString name="IJ">
          239 -544 -21 565 86 1357 87 hstemhm
          327 202 610 203 hintmask 01110000
          154 hmoveto
          -27 callgsubr
          -38 16 callsubr
          1002 -44 callsubr
          1 150 15 vhcurveto
          87 -547 -87 vlineto
          10 callsubr
          -154 -22 -6 -117 -17 vhcurveto
          -32 -5 -2 -1 rlineto
          hintmask 10101000
          985 310 -77 callsubr
          endchar
        </CharString>
        <CharString name="Iacute">
          -58 callgsubr
          -29 callgsubr
          144 566 -383 -37 callgsubr
          154 hmoveto
          -27 callgsubr
          -38 16 callsubr
          1002 -44 callsubr
          1 150 15 vhcurveto
          87 -547 -87 vlineto
          10 callsubr
          -154 -22 -6 -117 -17 vhcurveto
          -32 -5 -2 -1 rlineto
          hintmask 00110000
          22 1520 -92 callsubr
        </CharString>
        <CharString name="Ibreve">
          -58 callgsubr
          112 159 hstemhm
          113 629 -415 -37 callgsubr
          154 hmoveto
          -27 callgsubr
          -38 16 callsubr
          1002 -44 callsubr
          1 150 15 vhcurveto
          87 -547 -87 vlineto
          10 callsubr
          -154 -22 -6 -117 -17 vhcurveto
          -32 -5 -2 -1 rlineto
          hintmask 00110000
          272 1560 rmoveto
          -93 callsubr
        </CharString>
        <CharString name="Icircumflex">
          -58 callgsubr
          96 345 hstemhm
          92 670 -435 -37 callgsubr
          154 hmoveto
          -27 callgsubr
          -38 16 callsubr
          1002 -44 callsubr
          1 150 15 vhcurveto
          87 -547 -87 vlineto
          10 callsubr
          -154 -22 -6 -117 -17 vhcurveto
          -32 -5 -2 -1 rlineto
          hintmask 00110000
          2 1544 -96 callgsubr
        </CharString>
        <CharString name="Idieresis">
          -58 callgsubr
          82 360 hstemhm
          11 832 -516 -37 callgsubr
          154 hmoveto
          -27 callgsubr
          -38 16 callsubr
          1002 -44 callsubr
          1 150 15 vhcurveto
          87 -547 -87 vlineto
          10 callsubr
          -154 -22 -6 -117 -17 vhcurveto
          -32 -5 -2 -1 rlineto
          hintmask 00110000
          510 1530 rmoveto
          179 181 -95 callgsubr
          -287 -181 rmoveto
          179 181 -95 callgsubr
          endchar
        </CharString>
        <CharString name="Idotaccent">
          -58 callgsubr
          83 -22 callgsubr
          247 360 -280 -37 callgsubr
          154 hmoveto
          -27 callgsubr
          -38 16 callsubr
          1002 -44 callsubr
          1 150 15 vhcurveto
          87 -547 -87 vlineto
          10 callsubr
          -154 -22 -6 -117 -17 vhcurveto
          -32 -5 -2 -1 rlineto
          hintmask 00110000
          275 1531 -97 callsubr
          endchar
        </CharString>
        <CharString name="Igrave">
          -58 callgsubr
          -29 callgsubr
          144 566 -383 -37 callgsubr
          154 hmoveto
          -27 callgsubr
          -38 16 callsubr
          1002 -44 callsubr
          1 150 15 vhcurveto
          87 -547 -87 vlineto
          10 callsubr
          -154 -22 -6 -117 -17 vhcurveto
          -32 -5 -2 -1 rlineto
          hintmask 00110000
          524 1520 -72 callgsubr
        </CharString>
        <CharString name="Imacron">
          -58 callgsubr
          270 157 hstemhm
          122 611 -406 -37 callgsubr
          154 hmoveto
          -27 callgsubr
          -38 16 callsubr
          1002 -44 callsubr
          1 150 15 vhcurveto
          87 -547 -87 vlineto
          10 callsubr
          -154 -22 -6 -117 -17 vhcurveto
          -32 -5 -2 -1 rlineto
          hintmask 00110000
          -32 1730 rmoveto
          -61 callsubr
        </CharString>
        <CharString name="Iogonek">
          -613 -14 callsubr
          444 85 1358 87 hstemhm
          154 159 14 202 81 91 hintmask 00000000
          hintmask 11110100
          154 hmoveto
          218 hlineto
          -39 callsubr
          -54 callgsubr
          -75 -44 45 80 100 87 134 127 85 hvcurveto
          174 83 hlineto
          -38 16 callsubr
          hintmask 11111100
          1002 -44 callsubr
          1 150 15 vhcurveto
          87 -547 vlineto
          hintmask 11110100
          -87 vlineto
          -71 callsubr
          hintmask 11111100
          -13 callsubr
          -154 -22 -6 -117 -17 vhcurveto
          -32 -5 rlineto
          hintmask 11110100
          -2 -1 rlineto
          endchar
        </CharString>
        <CharString name="Itilde">
          -58 callgsubr
          172 -15 callgsubr
          75 704 -452 202 hintmask 11000100
          154 hmoveto
          -27 callgsubr
          -38 16 callsubr
          1002 -44 callsubr
          1 150 15 vhcurveto
          87 -547 -87 vlineto
          10 callsubr
          -154 -22 -6 -117 -17 vhcurveto
          -32 -5 -2 -1 rlineto
          hintmask 00000000
          -79 1634 -78 callgsubr
          hintmask 00101000
          -86 callgsubr
          hintmask 00011000
          -53 callsubr
        </CharString>
        <CharString name="J">
          -778 -544 -21 2008 87 hstem
          283 203 vstem
          283 392 -77 callsubr
          endchar
        </CharString>
        <CharString name="Jcircumflex">
          -778 -544 -21 2008 87 96 345 hstemhm
          97 670 -484 203 hintmask 11001000
          283 392 -77 callsubr
          hintmask 00110000
          -122 360 -96 callgsubr
        </CharString>
        <CharString name="K">
          72 0 86 1357 87 hstem
          275 203 vstem
          -80 callgsubr
          endchar
        </CharString>
        <CharString name="Kcommaaccent">
          72 -25 callsubr
          86 1357 87 hstemhm
          275 203 230 299 hintmask 01110000
          -80 callgsubr
          hintmask 10001000
          606 -323 -98 callsubr
        </CharString>
        <CharString name="L">
          -97 0 84 -84 110 1334 86 hstemhm
          258 204 hintmask 00000000
          hintmask 01110000
          74 hmoveto
          -95 callsubr
          hintmask 10110000
          -40 callgsubr
          endchar
        </CharString>
        <CharString name="Lacute">
          -97 0 84 -84 110 1334 86 -29 callgsubr
          258 204 -41 566 hintmask 00000000
          hintmask 01101000
          74 hmoveto
          -95 callsubr
          hintmask 10101000
          -40 callgsubr
          hintmask 00010100
          379 1518 -92 callsubr
        </CharString>
        <CharString name="Lcaron">
          -97 0 84 -84 110 795 805 -266 86 hstemhm
          258 204 386 360 hintmask 00000000
          hintmask 01011000
          74 hmoveto
          -95 callsubr
          hintmask 10011000
          -40 callgsubr
          hintmask 00100100
          774 1447 rmoveto
          89 -87 40 -57 -97 vvcurveto
          -96 -40 -137 -69 -99 vhcurveto
          77 -53 187 211 87 282 -12 133 rlinecurve
          -60 callgsubr
          rlineto
          endchar
        </CharString>
        <CharString name="Lcommaaccent">
          -97 -25 callsubr
          84 -84 110 1334 86 hstemhm
          258 204 91 299 hintmask 00000000
          hintmask 00111000
          74 hmoveto
          -95 callsubr
          hintmask 01011000
          -40 callgsubr
          hintmask 10000100
          479 -324 -98 callsubr
        </CharString>
        <CharString name="Ldot">
          -97 0 110 728 360 246 86 hstemhm
          258 204 474 360 hintmask 01001000
          936 1019 -85 callgsubr
          hintmask 00000000
          -1044 -1198 rmoveto
          -95 callsubr
          hintmask 10110000
          -40 callgsubr
          endchar
        </CharString>
        <CharString name="Lslash">
          -107 0 84 -84 110 1334 86 hstemhm
          315 204 hintmask 00000000
          hintmask 01110000
          131 hmoveto
          1017 hlineto
          46 31 -29 -49 4 hvcurveto
          86 hlineto
          77 514 rlineto
          -93 hlineto
          -302 -86 -28 -24 -400 hhcurveto
          -197 -69 6 94 hvcurveto
          540 vlineto
          591 322 -37 119 -554 -301 rlineto
          411 vlineto
          118 35 16 160 9 vhcurveto
          86 -583 -87 vlineto
          164 -12 20 -24 -110 vvcurveto
          -518 vlineto
          -201 -109 38 -119 163 88 rlineto
          -404 vlineto
          hintmask 10110000
          -40 callgsubr
          endchar
        </CharString>
        <CharString name="M">
          763 -29 -21 50 83 hstem
          31 2161 vstem
          -78 callsubr
          endchar
        </CharString>
        <CharString name="N">
          -41 callgsubr
          hstemhm
          238 152 917 152 hintmask 00000000
          hintmask 01011100
          -90 callsubr
          hintmask 10111100
          -87 callsubr
          endchar
        </CharString>
        <CharString name="Nacute">
          -41 callgsubr
          -29 callgsubr
          238 152 170 566 181 152 hintmask 00000000
          hintmask 01010101
          -90 callsubr
          hintmask 10110101
          -87 callsubr
          hintmask 00001010
          547 1519 -92 callsubr
        </CharString>
        <CharString name="Ncaron">
          -41 callgsubr
          97 345 hstemhm
          238 152 117 673 127 152 hintmask 00000000
          hintmask 01010101
          -90 callsubr
          hintmask 10110101
          -87 callsubr
          hintmask 00001010
          717 1544 -91 callgsubr
        </CharString>
        <CharString name="Ncommaaccent">
          242 -567 -21 562 -21 44 -21 24 86 1359 85 hstemhm
          238 152 302 299 316 152 hintmask 00000000
          hintmask 00101101
          -90 callsubr
          hintmask 01011101
          -87 callsubr
          hintmask 10000010
          647 -323 -98 callsubr
        </CharString>
        <CharString name="Ntilde">
          -41 callgsubr
          172 -15 callgsubr
          238 152 101 704 112 152 hintmask 0000000000000000
          hintmask 0101001010000000
          -90 callsubr
          hintmask 1011001010000000
          -87 callsubr
          hintmask 0000000000000000
          446 1633 -78 callgsubr
          hintmask 0000100100000000
          -86 callgsubr
          hintmask 0000010100000000
          -53 callsubr
        </CharString>
        <CharString name="O">
          -63 callsubr
          hstem
          119 239 991 235 vstem
          -102 callgsubr
          endchar
        </CharString>
        <CharString name="OE">
          918 -26 111 -85 112 592 113 601 112 -75 108 hstemhm
          112 238 816 203 hintmask 00000000
          hintmask 01110110
          112 789 rmoveto
          -433 229 -382 504 35 59 5 5 65 vhcurveto
          7 79 94 9 78 hhcurveto
          918 hlineto
          95 425 rlineto
          -94 hlineto
          -285 -111 -102 -28 -284 hhcurveto
          -308 592 539 hlineto
          27 113 rlineto
          -566 601 412 hlineto
          182 62 -25 -121 -45 -8 -56 -13 -72 hvcurveto
          hintmask 10101110
          96 hlineto
          105 431 rlineto
          -946 hlineto
          -39 -73 8 8 -71 hvcurveto
          hintmask 01110110
          9 -86 -91 8 -54 hhcurveto
          hintmask 10101110
          -500 -233 -344 -430 hvcurveto
          735 -704 rmoveto
          -411 -86 344 360 353 88 313 409 132 109 -29 -47 78 hvcurveto
          -1213 vlineto
          -50 -77 -111 -31 -131 hhcurveto
          endchar
        </CharString>
        <CharString name="Oacute">
          -63 callsubr
          51 368 -31 callsubr
          210 566 215 235 hintmask 11010100
          -102 callgsubr
          hintmask 00101000
          242 846 -92 callsubr
        </CharString>
        <CharString name="Obreve">
          -63 callsubr
          91 159 -31 callsubr
          179 629 183 235 hintmask 11010100
          -102 callgsubr
          hintmask 00101000
          492 886 rmoveto
          -93 callsubr
        </CharString>
        <CharString name="Ocircumflex">
          -63 callsubr
          75 345 -31 callsubr
          158 670 163 235 hintmask 11010100
          -102 callgsubr
          hintmask 00101000
          222 870 -96 callgsubr
        </CharString>
        <CharString name="Odieresis">
          -63 callsubr
          61 360 -31 callsubr
          77 832 82 235 hintmask 11010100
          -102 callgsubr
          hintmask 00101000
          730 856 rmoveto
          179 181 -95 callgsubr
          -287 -181 rmoveto
          179 181 -95 callgsubr
          endchar
        </CharString>
        <CharString name="Ograve">
          -63 callsubr
          51 368 -31 callsubr
          210 566 215 235 hintmask 11010100
          -102 callgsubr
          hintmask 00101000
          744 846 -72 callgsubr
        </CharString>
        <CharString name="Ohungarumlaut">
          -63 callsubr
          77 342 -31 callsubr
          92 802 97 235 hintmask 11010100
          -102 callgsubr
          hintmask 00101000
          541 872 -65 callsubr
        </CharString>
        <CharString name="Omacron">
          -63 callsubr
          249 157 -31 callsubr
          188 611 192 235 hintmask 11010100
          -102 callgsubr
          hintmask 00101000
          188 1056 rmoveto
          -61 callsubr
        </CharString>
        <CharString name="Omega">
          242 -1 175 1267 110 hstem
          142 236 252 100 244 101 263 231 vstem
          179 -1 rmoveto
          551 255 hlineto
          -254 123 -98 239 281 vvcurveto
          226 37 318 442 441 40 -318 -225 -286 -103 -241 -261 -119 vhcurveto
          -253 551 vlineto
          111 381 rlineto
          -101 hlineto
          -120 -48 -40 -86 -120 hhcurveto
          -252 20 hlineto
          303 146 191 248 311 vvcurveto
          290 -175 362 -539 -540 -173 -362 -293 -305 188 -249 300 -147 vhcurveto
          -21 -253 vlineto
          -120 -40 86 120 -48 hvcurveto
          -101 hlineto
          endchar
        </CharString>
        <CharString name="Oslash">
          242 -20 101 -90 -21 1473 108 -31 callsubr
          991 235 hintmask 00000000
          hintmask 10111000
          271 -30 rmoveto
          97 -61 103 166 rlineto
          -60 103 127 -35 150 hhcurveto
          492 241 374 402 246 -96 251 -193 152 hvcurveto
          96 155 -96 61 rlineto
          hintmask 01111000
          -95 -153 rlineto
          hintmask 10111000
          52 -98 -116 31 -135 hhcurveto
          -491 -241 -403 -392 -236 85 -231 173 -148 hvcurveto
          87 140 rmoveto
          -81 129 -25 175 171 vvcurveto
          322 96 365 399 118 91 -31 -53 71 vhcurveto
          -592 -1171 rmoveto
          675 1089 rlineto
          101 -134 32 -198 -189 vvcurveto
          -331 -97 -344 -399 -137 -101 40 67 -74 vhcurveto
          endchar
        </CharString>
        <CharString name="Otilde">
          -63 callsubr
          151 -15 callgsubr
          119 239 141 704 146 235 hintmask 11001010
          -102 callgsubr
          hintmask 00000000
          141 960 -85 callsubr
        </CharString>
        <CharString name="P">
          6 callgsubr
          hstemhm
          269 202 564 226 hintmask 00000000
          hintmask 11011100
          96 hmoveto
          624 82 hlineto
          -55 6 rlineto
          hintmask 11101100
          9 callsubr
          hintmask 11011100
          -75 callgsubr
          endchar
        </CharString>
        <CharString name="Q">
          243 -26 101 1368 108 hstem
          118 239 991 236 vstem
          118 756 rmoveto
          -395 237 -387 496 140 119 31 53 100 vhcurveto
          486 -426 60 52 -383 498 rlineto
          141 148 70 210 216 vvcurveto
          392 -242 403 -491 -492 -241 -403 -392 vhcurveto
          239 hmoveto
          322 96 365 399 399 97 -355 -332 -331 -97 -350 -399 -401 -94 352 329 vhcurveto
          endchar
        </CharString>
        <CharString name="R">
          72 -1 -25 callgsubr
          13 callsubr
          604 227 hintmask 00000000
          hintmask 11011000
          -73 callgsubr
          hintmask 10111000
          -92 callgsubr
          hintmask 11011000
          -49 callsubr
          endchar
        </CharString>
        <CharString name="Racute">
          72 -1 -25 callgsubr
          72 368 13 callsubr
          -52 566 90 227 hintmask 00000000
          hintmask 11001010
          -73 callgsubr
          hintmask 10101010
          -92 callgsubr
          hintmask 11001010
          -49 callsubr
          hintmask 00010100
          356 1520 -92 callsubr
        </CharString>
        <CharString name="Rcaron">
          72 -1 -25 callgsubr
          97 345 13 callsubr
          -105 673 36 227 hintmask 00000000
          hintmask 11001010
          -73 callgsubr
          hintmask 10101010
          -92 callgsubr
          hintmask 11001010
          -49 callsubr
          hintmask 00010100
          526 1545 -91 callgsubr
        </CharString>
        <CharString name="Rcommaaccent">
          72 -567 -21 587 -25 callgsubr
          13 callsubr
          177 299 128 227 hintmask 00000000
          hintmask 01101010
          -73 callgsubr
          hintmask 01011010
          -92 callgsubr
          hintmask 01101010
          -49 callsubr
          hintmask 10000100
          553 -322 -98 callsubr
        </CharString>
        <CharString name="S">
          -11 callgsubr
          -54 callsubr
          566 209 -139 218 hintmask 00000000
          hintmask 11010100
          137 313 rmoveto
          -219 332 -118 234 311 255 117 303 vhcurveto
          hintmask 11100100
          212 -210 114 -249 127 vhcurveto
          -260 132 -135 67 168 vvcurveto
          137 116 92 155 165 130 -61 -114 -65 -23 -34 -23 -31 vhcurveto
          74 -49 rlineto
          136 41 45 97 77 vvcurveto
          hintmask 11011000
          155 -222 90 -254 -279 -218 -142 -239 -196 137 -122 294 -153 vhcurveto
          190 -99 213 -66 -191 vvcurveto
          -165 -126 -99 -210 -187 -154 128 138 88 20 26 28 39 vhcurveto
          -54 64 rlineto
          hintmask 11010100
          -82 -17 -149 -80 -152 vvcurveto
          endchar
        </CharString>
        <CharString name="Sacute">
          -11 callgsubr
          51 368 -54 callsubr
          27 566 -27 -100 callgsubr
          337 1289 -92 callsubr
        </CharString>
        <CharString name="Scaron">
          -11 callgsubr
          76 345 -54 callsubr
          -26 673 -81 -100 callgsubr
          507 1314 -91 callgsubr
        </CharString>
        <CharString name="Scedilla">
          -97 -24 callsubr
          -26 -21 callgsubr
          -54 callsubr
          346 207 13 209 -139 218 hintmask 1101101010000000
          137 313 rmoveto
          -197 268 -115 224 -21 vhcurveto
          -78 -200 rlineto
          -46 callsubr
          104 rlineto
          291 11 231 119 289 vvcurveto
          212 -210 114 -249 127 vhcurveto
          hintmask 1011011100000000
          -260 132 -135 67 168 vvcurveto
          137 116 92 155 165 130 -61 -114 -65 -23 -34 -23 -31 vhcurveto
          74 -49 rlineto
          136 41 45 97 77 vvcurveto
          155 -222 90 -254 -279 -218 -142 -239 -196 137 -122 294 -153 vhcurveto
          hintmask 1011101010000000
          190 -99 213 -66 -191 vvcurveto
          -165 -126 -99 -210 -187 -154 128 138 88 20 26 28 39 vhcurveto
          -54 64 rlineto
          -82 -17 -149 -80 -152 vvcurveto
          endchar
        </CharString>
        <CharString name="Scircumflex">
          -11 callgsubr
          75 345 -54 callsubr
          -25 670 -79 -100 callgsubr
          317 1313 -96 callgsubr
        </CharString>
        <CharString name="Scommaaccent">
          -97 -567 -21 564 -21 callgsubr
          -54 callsubr
          134 299 133 209 -139 218 hintmask 00000000
          hintmask 01101001
          137 313 rmoveto
          -219 332 -118 234 311 255 117 303 vhcurveto
          hintmask 01110001
          212 -210 114 -249 127 vhcurveto
          -260 132 -135 67 168 vvcurveto
          137 116 92 155 165 130 -61 -114 -65 -23 -34 -23 -31 vhcurveto
          74 -49 rlineto
          136 41 45 97 77 vvcurveto
          hintmask 01101010
          155 -222 90 -254 -279 -218 -142 -239 -196 137 -122 294 -153 vhcurveto
          190 -99 213 -66 -191 vvcurveto
          -165 -126 -99 -210 -187 -154 128 138 88 20 26 28 39 vhcurveto
          -54 64 rlineto
          hintmask 01101001
          -82 -17 -149 -80 -152 vvcurveto
          hintmask 10000100
          412 -553 -98 callsubr
        </CharString>
        <CharString name="T">
          72 0 87 1337 106 hstem
          662 203 vstem
          -94 callgsubr
          endchar
        </CharString>
        <CharString name="Tbar">
          72 0 87 621 125 591 106 hstem
          662 203 vstem
          403 hmoveto
          730 87 hlineto
          -247 25 -20 callsubr
          439 415 125 -415 591 155 vlineto
          183 61 -30 -121 -45 -8 -57 -13 -71 hvcurveto
          96 hlineto
          105 430 rlineto
          -1266 hlineto
          -112 -429 rlineto
          98 hlineto
          12 31 rlineto
          166 68 49 126 193 hhcurveto
          176 -591 -431 -125 431 -439 hlineto
          -154 -31 -6 -228 -22 vhcurveto
          endchar
        </CharString>
        <CharString name="Tcaron">
          72 0 87 1337 106 97 345 hstemhm
          419 673 -430 203 hintmask 11001000
          -94 callgsubr
          hintmask 00110000
          271 1540 -91 callgsubr
        </CharString>
        <CharString name="Tcommaaccent">
          72 -25 callsubr
          87 1337 106 hstemhm
          615 299 -252 203 hintmask 01101000
          -94 callgsubr
          hintmask 10010000
          212 -327 -98 callsubr
        </CharString>
        <CharString name="Thorn">
          -100 -1 86 279 103 658 105 215 85 hstem
          259 202 560 237 vstem
          86 -1 rmoveto
          623 83 hlineto
          -54 6 rlineto
          -173 19 -20 callsubr
          634 vlineto
          119 30 108 242 253 35 -165 -153 -205 -94 -135 -191 -26 -45 3 5 -36 vhcurveto
          -16 -93 rlineto
          -10 43 51 -8 46 hhcurveto
          364 141 226 229 186 -109 225 -410 -85 -110 -11 -21 -83 hvcurveto
          69 vlineto
          160 -48 callgsubr
          21 -10 -155 vvcurveto
          -1003 vlineto
          -155 -87 callgsubr
          endchar
        </CharString>
        <CharString name="U">
          -62 callsubr
          hstem
          196 211 886 211 vstem
          -106 callsubr
          endchar
        </CharString>
        <CharString name="Uacute">
          -62 callsubr
          72 368 -30 callsubr
          172 566 148 211 hintmask 11010100
          -106 callsubr
          hintmask 00101000
          -250 1649 -92 callsubr
        </CharString>
        <CharString name="Ubreve">
          -62 callsubr
          112 159 -30 callsubr
          141 629 116 211 hintmask 11010100
          -106 callsubr
          hintmask 00101000
          1689 vmoveto
          -93 callsubr
        </CharString>
        <CharString name="Ucircumflex">
          -62 callsubr
          96 345 -30 callsubr
          120 670 96 211 hintmask 11010100
          -106 callsubr
          hintmask 00101000
          -270 1673 -96 callgsubr
        </CharString>
        <CharString name="Udieresis">
          -62 callsubr
          82 360 -30 callsubr
          39 832 15 211 hintmask 11010100
          -106 callsubr
          hintmask 00101000
          238 1659 rmoveto
          179 181 -95 callgsubr
          -287 -181 rmoveto
          179 181 -95 callgsubr
          endchar
        </CharString>
        <CharString name="Ugrave">
          -62 callsubr
          72 368 -30 callsubr
          172 566 148 211 hintmask 11010100
          -106 callsubr
          hintmask 00101000
          252 1649 -72 callgsubr
        </CharString>
        <CharString name="Uhungarumlaut">
          -62 callsubr
          98 342 -30 callsubr
          54 802 30 211 hintmask 11010100
          -106 callsubr
          hintmask 00101000
          49 1675 -65 callsubr
        </CharString>
        <CharString name="Umacron">
          -62 callsubr
          270 157 -30 callsubr
          150 611 125 211 hintmask 11010100
          -106 callsubr
          hintmask 00101000
          -304 1859 rmoveto
          -61 callsubr
        </CharString>
        <CharString name="Uogonek">
          239 -14 callsubr
          457 -21 1451 87 hstem
          -18 callgsubr
          169 204 513 211 vstem
          572 -342 rmoveto
          -133 98 -93 156 -54 callgsubr
          -81 -48 65 80 91 41 133 132 84 hvcurveto
          393 251 158 255 739 vvcurveto
          149 9 23 131 17 vhcurveto
          87 -511 -87 vlineto
          137 -13 23 -34 -122 vvcurveto
          -689 -25 -155 -407 -334 vhcurveto
          -411 327 -43 171 680 vvcurveto
          122 22 34 139 13 vhcurveto
          87 -513 -87 vlineto
          141 -12 0 -38 -139 vvcurveto
          -756 169 -251 428 -255 vhcurveto
          -114 -82 -103 -117 -135 vvcurveto
          endchar
        </CharString>
        <CharString name="Uring">
          -62 callsubr
          -50 117 250 124 -30 callsubr
          182 136 275 136 157 211 hintmask 11001001
          -106 callsubr
          hintmask 00110110
          2 1527 -79 callgsubr
        </CharString>
        <CharString name="Utilde">
          -62 callsubr
          172 -15 callgsubr
          196 211 103 704 79 211 hintmask 11001010
          -106 callsubr
          hintmask 00000000
          -351 1763 -85 callsubr
        </CharString>
        <CharString name="V">
          69 -38 -21 1503 87 hstem
          26 1478 vstem
          742 -59 rmoveto
          70 hlineto
          547 1355 40 99 8 36 97 12 rlinecurve
          87 -455 -87 vlineto
          97 58 -9 -64 -36 -353 -924 -54 -136 hvcurveto
          -55 136 -379 965 11 vvcurveto
          51 86 4 79 3 vhcurveto
          87 -502 -87 vlineto
          97 -14 23 -36 35 -86 rrcurveto
          endchar
        </CharString>
        <CharString name="W">
          -16 callsubr
          hstem
          228 209 568 211 568 209 cntrmask 01110000
          -104 callsubr
          endchar
        </CharString>
        <CharString name="Wacute">
          -16 callsubr
          -29 callgsubr
          228 209 391 566 -389 211 568 209 hintmask 10101100
          -104 callsubr
          hintmask 01010000
          151 1540 -92 callsubr
        </CharString>
        <CharString name="Wcircumflex">
          -16 callsubr
          96 345 hstemhm
          228 209 339 670 -441 211 568 209 hintmask 10101100
          -104 callsubr
          hintmask 01010000
          131 1564 -96 callgsubr
        </CharString>
        <CharString name="Wdieresis">
          -16 callsubr
          82 360 hstemhm
          228 209 258 832 -522 211 568 209 hintmask 10101100
          -104 callsubr
          hintmask 01010000
          639 1550 rmoveto
          179 181 -95 callgsubr
          -287 -181 rmoveto
          179 181 -95 callgsubr
          endchar
        </CharString>
        <CharString name="Wgrave">
          -16 callsubr
          -29 callgsubr
          228 209 391 566 -389 211 568 209 hintmask 10101100
          -104 callsubr
          hintmask 01010000
          653 1540 -72 callgsubr
        </CharString>
        <CharString name="X">
          72 0 84 1360 86 hstem
          54 1423 vstem
          54 hmoveto
          526 84 hlineto
          -169 9 -7 10 40 vvcurveto
          61 65 305 286 211 vhcurveto
          286 -212 54 -303 -62 vvcurveto
          -40 -7 -10 -137 -9 vhcurveto
          -84 526 84 vlineto
          -133 12 -3 2 -23 98 -19 77 -61 277 -371 229 343 197 69 261 17 97 26 89 7 11 137 10 rrcurveto
          86 -493 -86 vlineto
          109 23 -21 -36 -58 -65 -305 -285 -181 hvcurveto
          -271 180 -48 306 58 vvcurveto
          36 4 21 140 vhcurveto
          86 -526 -86 vlineto
          128 -11 19 -10 23 -89 18 -97 58 -261 344 -199 -345 -225 -70 -275 -16 -81 -25 -88 -6 -13 -128 -11 rrcurveto
          endchar
        </CharString>
        <CharString name="Y">
          69 0 83 1360 87 hstem
          217 201 247 201 246 201 vstem
          -99 callgsubr
          endchar
        </CharString>
        <CharString name="Yacute">
          69 0 83 1360 87 -29 callgsubr
          217 201 64 566 -383 201 246 201 hintmask 11010110
          -99 callgsubr
          hintmask 00101000
          55 1519 -92 callsubr
        </CharString>
        <CharString name="Ycircumflex">
          69 0 83 1360 87 96 345 hstemhm
          217 201 12 670 -435 201 246 201 hintmask 11010110
          -99 callgsubr
          hintmask 00101000
          35 1543 -96 callgsubr
        </CharString>
        <CharString name="Ydieresis">
          69 0 83 1360 87 82 360 hstemhm
          217 201 -69 832 -516 201 246 201 hintmask 11010110
          -99 callgsubr
          hintmask 00101000
          543 1529 rmoveto
          179 181 -95 callgsubr
          -287 -181 rmoveto
          179 181 -95 callgsubr
          endchar
        </CharString>
        <CharString name="Ygrave">
          69 0 83 1360 87 -29 callgsubr
          217 201 64 566 -383 201 246 201 hintmask 11010110
          -99 callgsubr
          hintmask 00101000
          557 1519 -72 callgsubr
        </CharString>
        <CharString name="Z">
          -26 callsubr
          hstem
          61 1263 vstem
          -93 callgsubr
          endchar
        </CharString>
        <CharString name="Zacute">
          -26 callsubr
          -29 callgsubr
          61 1263 -879 566 hintmask 11010000
          -93 callgsubr
          hintmask 00101000
          -542 193 -92 callsubr
        </CharString>
        <CharString name="Zcaron">
          -26 callsubr
          97 345 hstemhm
          61 1263 -932 673 hintmask 11010000
          -93 callgsubr
          hintmask 00101000
          -372 218 -91 callgsubr
        </CharString>
        <CharString name="Zdotaccent">
          -26 callsubr
          83 -22 callgsubr
          61 1263 -776 360 hintmask 11010000
          -93 callgsubr
          hintmask 00101000
          -289 204 -97 callsubr
          endchar
        </CharString>
        <CharString name="a">
          -74 callgsubr
          -60 callsubr
          510 202 hintmask 00000000
          hintmask 10110110
          169 303 rmoveto
          -166 122 -163 301 90 87 7 7 80 vhcurveto
          6 71 69 6 64 hhcurveto
          248 84 hlineto
          -141 14 -19 10 158 vvcurveto
          627 vlineto
          -19 callsubr
          134 -315 vhcurveto
          hintmask 10111010
          -285 -196 -116 -141 -89 112 -56 78 -14 hvcurveto
          68 41 rlineto
          hintmask 01110110
          -16 24 -22 34 42 vvcurveto
          101 97 69 136 193 84 -75 -133 vhcurveto
          -175 vlineto
          hintmask 10111010
          -567 -11 -203 -262 -164 vvcurveto
          770 333 rmoveto
          2 hlineto
          -2 1 rlineto
          -541 -334 rmoveto
          241 266 76 275 16 vhcurveto
          -354 vlineto
          -162 -34 -37 -234 -164 -109 77 143 vhcurveto
          endchar
        </CharString>
        <CharString name="aacute">
          -74 callgsubr
          131 521 -60 callsubr
          105 463 -58 -106 callgsubr
          234 1056 -89 callsubr
        </CharString>
        <CharString name="abreve">
          -74 callgsubr
          260 161 -60 callsubr
          -89 699 -100 -106 callgsubr
          287 1185 -94 callsubr
        </CharString>
        <CharString name="acircumflex">
          -74 callgsubr
          136 495 -60 callsubr
          -95 710 -105 -106 callgsubr
          21 1061 -96 callsubr
          endchar
        </CharString>
        <CharString name="acute">
          -611 1359 521 hstem
          328 463 vstem
          426 1359 -89 callsubr
        </CharString>
        <CharString name="acute.cap">
          -782 17 callsubr
          69 1602 -92 callsubr
        </CharString>
        <CharString name="adieresis">
          -74 callgsubr
          204 359 -60 callsubr
          -156 832 -166 -106 callgsubr
          528 1129 rmoveto
          179 180 -95 callgsubr
          -287 -180 rmoveto
          179 180 -95 callgsubr
          endchar
        </CharString>
        <CharString name="ae">
          -6 callsubr
          hstemhm
          141 228 -178 219 527 227 530 218 hintmask 0111110110000000
          -77 callgsubr
          hintmask 0111101110000000
          -50 callsubr
          hintmask 1011110110000000
          -69 callsubr
          endchar
        </CharString>
        <CharString name="aeacute">
          -6 callsubr
          16 callgsubr
          141 228 -178 219 527 227 -213 463 280 218 hintmask 0111101010100000
          -77 callgsubr
          hintmask 0111100110100000
          -50 callsubr
          hintmask 1011101010100000
          -69 callsubr
          hintmask 0000010001000000
          680 1046 -89 callsubr
        </CharString>
        <CharString name="agrave">
          -74 callgsubr
          121 521 -60 callsubr
          -40 454 96 -106 callgsubr
          356 1046 -73 callsubr
        </CharString>
        <CharString name="amacron">
          -74 callgsubr
          335 157 -60 callsubr
          -74 669 -85 -106 callgsubr
          -43 1272 -63 callgsubr
        </CharString>
        <CharString name="ampersand">
          72 -26 108 687 78 592 104 hstemhm
          153 232 -147 232 566 224 -119 112 hintmask 00000000
          hintmask 11110100
          153 426 rmoveto
          hintmask 11110010
          -286 214 -166 352 141 175 30 67 95 vhcurveto
          22 -607 rlineto
          108 hlineto
          40 1137 5 146 15 8 121 14 rlinecurve
          78 -492 -78 vlineto
          141 -13 17 -14 5 -141 13 -387 rcurveline
          hintmask 11101100
          -65 -81 -141 -67 -159 hhcurveto
          -179 -179 94 219 -1 hvcurveto
          241 -1 126 129 200 hhcurveto
          104 vlineto
          -144 8 -96 108 171 vvcurveto
          hintmask 11101010
          233 134 50 116 213 103 -114 -141 -56 -3 -35 -5 -35 vhcurveto
          97 hlineto
          128 497 rlineto
          -96 hlineto
          -44 -30 -28 -34 -51 hhcurveto
          hintmask 11110010
          -29 -31 12 15 -38 hvcurveto
          20 -56 -70 19 -104 hhcurveto
          -330 -152 -166 -217 -237 189 -75 79 -24 hvcurveto
          -185 -45 -168 -135 -218 vvcurveto
          endchar
        </CharString>
        <CharString name="aogonek">
          -101 -14 callsubr
          418 109 -83 84 -63 -21 636 104 383 105 -60 callsubr
          323 204 -17 202 hintmask 0000000000000000
          hintmask 1100110101000000
          169 303 rmoveto
          -166 122 -163 301 90 87 7 7 80 vhcurveto
          6 71 73 6 64 hhcurveto
          -139 -77 -166 -121 -164 vvcurveto
          -127 95 -79 149 89 -56 callgsubr
          -63 -12 -54 hhcurveto
          hintmask 1100111001000000
          -75 -44 45 80 120 176 199 169 hvcurveto
          84 vlineto
          hintmask 1001110110000000
          -141 14 -19 10 158 vvcurveto
          627 vlineto
          -19 callsubr
          134 -315 -285 -196 -116 -141 -89 112 -56 78 -14 vhcurveto
          11 callsubr
          69 136 vhcurveto
          hintmask 1010110101000000
          193 84 -75 -133 hvcurveto
          -175 vlineto
          hintmask 1100111001000000
          -567 -11 -203 -262 -164 vvcurveto
          229 hmoveto
          241 266 76 275 16 vhcurveto
          -354 vlineto
          -162 -34 -37 -234 -164 -109 77 143 vhcurveto
          endchar
        </CharString>
        <CharString name="approxequal">
          -99 337 168 -33 162 213 5 callgsubr
          hintmask 10001000
          202 335 -33 callsubr
          hintmask 01001000
          -68 callgsubr
          hintmask 10001000
          -47 callsubr
          hintmask 00000000
          71 456 -33 callsubr
          hintmask 00101000
          -68 callgsubr
          hintmask 00011000
          -47 callsubr
          endchar
        </CharString>
        <CharString name="aring">
          -74 callgsubr
          132 99 307 106 -60 callsubr
          -28 124 329 124 -39 202 hintmask 0000000000000000
          hintmask 1011000100100000
          169 303 rmoveto
          -166 122 -163 301 90 87 7 7 80 vhcurveto
          6 71 69 6 64 hhcurveto
          248 84 hlineto
          -141 14 -19 10 158 vvcurveto
          627 vlineto
          -19 callsubr
          134 -315 vhcurveto
          hintmask 1011001000100000
          -285 -196 -116 -141 -89 112 -56 78 -14 hvcurveto
          68 41 rlineto
          hintmask 0111000100100000
          -16 24 -22 34 42 vvcurveto
          101 97 69 136 193 84 -75 -133 vhcurveto
          -175 vlineto
          hintmask 1011001000100000
          -567 -11 -203 -262 -164 vvcurveto
          770 333 rmoveto
          2 hlineto
          -2 1 rlineto
          -541 -334 rmoveto
          241 266 76 275 16 vhcurveto
          -354 vlineto
          -162 -34 -37 -234 -164 -109 77 143 vhcurveto
          hintmask 0000110011000000
          291 1057 -79 callsubr
        </CharString>
        <CharString name="asciicircum">
          -101 580 1073 hstem
          137 1095 vstem
          279 580 rmoveto
          405 737 rlineto
          11 hlineto
          395 -737 142 71 -487 1002 rlineto
          -121 hlineto
          -487 -1002 rlineto
          endchar
        </CharString>
        <CharString name="asciitilde">
          -91 678 5 callgsubr
          hintmask 10100000
          202 676 -33 callsubr
          hintmask 01100000
          -68 callgsubr
          hintmask 10100000
          -47 callsubr
          endchar
        </CharString>
        <CharString name="asterisk">
          -266 787 1181 hstem
          550 94 vstem
          597 787 rmoveto
          148 145 -63 92 -27 154 -12 116 rlinecurve
          95 -68 121 -101 51 -97 199 53 rcurveline
          -51 202 -113 -9 -148 54 -107 49 rlinecurve
          107 49 149 55 111 -6 52 197 rcurveline
          -201 56 -49 -101 -120 -100 -95 -67 rlinecurve
          12 114 26 155 61 93 -145 146 rcurveline
          -149 -146 63 -93 27 -153 11 -116 rlinecurve
          -95 67 -122 102 -49 97 -199 -53 rcurveline
          51 -201 112 9 149 -55 106 -49 rlinecurve
          -106 -48 -150 -55 -110 6 -52 -198 rcurveline
          201 -56 47 101 120 100 96 68 rlinecurve
          -11 -115 -26 -157 -61 -91 rrcurveto
          endchar
        </CharString>
        <CharString name="at">
          759 -448 113 335 96 -96 122 878 100 339 90 hstemhm
          159 193 312 192 1035 179 hintmask 11011111
          169 416 rmoveto
          -379 221 -485 695 199 236 81 81 100 vhcurveto
          -29 88 rlineto
          -74 -115 -166 -63 -227 hhcurveto
          -431 -300 322 398 721 454 333 436 422 227 -331 -359 -303 -167 -350 -239 -42 -13 27 39 32 9 40 9 41 hvcurveto
          150 657 rlineto
          79 -58 -148 89 -158 hhcurveto
          -335 -235 -368 -334 -207 93 -191 205 115 119 96 84 61 hvcurveto
          -93 13 53 -87 120 hhcurveto
          359 268 401 352 465 -379 311 -449 -582 -491 -416 -697 hvcurveto
          687 4 rmoveto
          214 -10 183 366 235 hhcurveto
          75 44 -19 -37 39 hvcurveto
          -129 -508 rlineto
          hintmask 10111111
          -205 -51 -121 -109 -104 hhcurveto
          -110 -51 149 149 hvcurveto
          endchar
        </CharString>
        <CharString name="atilde">
          -74 callgsubr
          176 169 -18 170 -60 callsubr
          -137 118 529 202 -173 118 hintmask 0000000000000000
          hintmask 1011000101000000
          169 303 rmoveto
          -166 122 -163 301 90 87 7 7 80 vhcurveto
          6 71 69 6 64 hhcurveto
          248 84 hlineto
          -141 14 -19 10 158 vvcurveto
          627 vlineto
          -19 callsubr
          134 -315 vhcurveto
          hintmask 1011001001000000
          -285 -196 -116 -141 -89 112 -56 78 -14 hvcurveto
          68 41 rlineto
          hintmask 0111000101000000
          -16 24 -22 34 42 vvcurveto
          101 97 69 136 193 84 -75 -133 vhcurveto
          -175 vlineto
          hintmask 1011001001000000
          -567 -11 -203 -262 -164 vvcurveto
          770 333 rmoveto
          2 hlineto
          -2 1 rlineto
          -541 -334 rmoveto
          241 266 76 275 16 vhcurveto
          -354 vlineto
          -162 -34 -37 -234 -164 -109 77 143 vhcurveto
          hintmask 0000000000000000
          -101 1135 -84 callgsubr
          hintmask 0000100010100000
          -70 callsubr
          hintmask 0000010010100000
          -57 callsubr
        </CharString>
        <CharString name="b">
          -34 callsubr
          101 hmoveto
          260 hlineto
          47 67 -7 -7 65 hvcurveto
          hintmask 10111100
          -75 callsubr
          -549 -83 vlineto
          0 callsubr
          -1226 vlineto
          hintmask 01111100
          -22 callsubr
          377 210 rmoveto
          556 vlineto
          hintmask 10111100
          -52 callgsubr
          vhcurveto
          hintmask 01111100
          -242 -48 97 110 hvcurveto
          endchar
        </CharString>
        <CharString name="backslash">
          -613 -9 -21 hstem
          69 710 vstem
          627 -30 rmoveto
          152 hlineto
          -556 1688 rlineto
          -154 hlineto
          endchar
        </CharString>
        <CharString name="bar">
          -951 -193 9 callgsubr
          -193 rmoveto
          145 2102 -145 hlineto
          endchar
        </CharString>
        <CharString name="braceleft">
          -439 -166 2004 hstem
          423 195 vstem
          423 300 rmoveto
          -363 186 -103 258 vhcurveto
          1 92 -186 26 -65 72 1 196 rlinecurve
          1 182 1 266 -107 124 -161 44 rlinecurve
          161 45 107 122 -1 267 -1 183 rcurveline
          -1 195 66 72 185 26 -1 92 rcurveline
          -258 -186 -103 -362 hvcurveto
          -172 vlineto
          -203 -94 -85 -186 -16 vhcurveto
          -121 vlineto
          186 -17 94 -85 -203 vvcurveto
          endchar
        </CharString>
        <CharString name="braceright">
          -439 -166 2004 hstem
          404 195 vstem
          599 471 rmoveto
          203 94 85 186 17 vhcurveto
          121 vlineto
          -186 16 -94 85 203 vvcurveto
          172 vlineto
          362 -186 103 -258 vhcurveto
          -1 -92 185 -26 66 -72 -1 -195 rlinecurve
          -1 -183 -1 -267 107 -122 161 -45 rlinecurve
          -161 -44 -107 -124 1 -266 1 -182 rcurveline
          1 -196 -65 -72 -186 -26 1 -92 rcurveline
          258 186 103 363 hvcurveto
          endchar
        </CharString>
        <CharString name="bracketleft">
          17 callgsubr
          200 182 vstem
          200 -150 rmoveto
          462 107 -179 hlineto
          -71 -30 44 63 hvcurveto
          1556 vlineto
          58 39 36 55 vhcurveto
          186 103 -462 hlineto
          endchar
        </CharString>
        <CharString name="bracketright">
          17 callgsubr
          466 182 vstem
          648 1817 rmoveto
          -462 -103 186 hlineto
          55 39 -36 -58 hvcurveto
          -1556 vlineto
          -63 -30 -44 -71 vhcurveto
          -179 -107 462 hlineto
          endchar
        </CharString>
        <CharString name="breve">
          -273 1488 161 hstem
          244 699 vstem
          589 1488 -94 callsubr
        </CharString>
        <CharString name="breve.cap">
          -441 1642 159 hstem
          195 629 vstem
          508 1642 rmoveto
          -93 callsubr
        </CharString>
        <CharString name="brokenbar">
          -951 -191 9 callgsubr
          1019 rmoveto
          145 892 -145 hlineto
          -2102 vmoveto
          145 888 -145 hlineto
          endchar
        </CharString>
        <CharString name="bullet">
          71 464 766 hstem
          324 884 vstem
          832 465 rmoveto
          5 146 -3 163 62 96 55 83 123 87 134 76 -67 114 rcurveline
          -69 -129 -141 -77 -113 hhcurveto
          -100 -136 68 78 -133 hvcurveto
          -65 -115 123 -78 146 -79 50 -102 rlinecurve
          42 -89 16 -150 -1 -153 rrcurveto
          endchar
        </CharString>
        <CharString name="c">
          -44 callgsubr
          hstemhm
          85 228 679 79 hintmask 00000000
          hintmask 11011000
          85 608 rmoveto
          -329 193 -303 360 176 183 82 120 98 vhcurveto
          -57 55 rlineto
          -77 -99 -119 -52 -147 hhcurveto
          -278 -82 259 243 hvcurveto
          hintmask 10111000
          271 89 262 255 208 92 -121 -180 31 vhcurveto
          hintmask 11011000
          83 428 -79 hlineto
          -8 -41 -20 -27 -49 -13 rrcurveto
          0 -20 7 -21 8 vhcurveto
          -15 6 -20 7 -20 7 rrcurveto
          17 -61 -59 8 -57 hhcurveto
          -361 -196 -291 -346 hvcurveto
          endchar
        </CharString>
        <CharString name="cacute">
          -44 callgsubr
          113 -5 callsubr
          85 228 179 463 37 -97 callgsubr
          505 751 -89 callsubr
        </CharString>
        <CharString name="caron">
          -254 1364 495 hstem
          254 710 vstem
          482 1364 -83 callgsubr
        </CharString>
        <CharString name="caron.cap">
          -782 1627 345 hstem
          3 673 vstem
          258 1627 -91 callgsubr
        </CharString>
        <CharString name="caronvertical">
          -902 905 805 hstem
          92 360 vstem
          92 1531 rmoveto
          89 -87 40 -57 -97 vvcurveto
          -96 -40 -137 -69 -99 vhcurveto
          77 -53 187 211 87 282 -12 133 rlinecurve
          -60 callgsubr
          rlineto
          endchar
        </CharString>
        <CharString name="ccaron">
          -44 callgsubr
          118 -10 callgsubr
          85 228 -15 710 -16 -97 callgsubr
          441 756 -83 callgsubr
        </CharString>
        <CharString name="ccedilla">
          -266 -24 callsubr
          -26 128 1035 106 21 -20 hstemhm
          85 228 364 207 108 79 hintmask 11011111
          467 -220 rmoveto
          -46 callsubr
          104 168 7 170 80 94 114 rlinecurve
          -57 55 rlineto
          hintmask 10111111
          -77 -99 -119 -52 -147 hhcurveto
          -278 -82 259 243 271 89 262 255 208 92 -121 -180 31 hvcurveto
          83 428 -79 hlineto
          -8 -41 -20 -27 -49 -13 rrcurveto
          0 -20 7 -21 8 vhcurveto
          -15 6 -20 7 -20 7 rrcurveto
          17 -61 -59 8 -57 hhcurveto
          -361 -196 -291 -346 -300 160 -278 301 -47 hvcurveto
          endchar
        </CharString>
        <CharString name="ccircumflex">
          -44 callgsubr
          118 -10 callgsubr
          85 228 -21 710 -10 -97 callgsubr
          292 756 -96 callsubr
          endchar
        </CharString>
        <CharString name="cdotaccent">
          -44 callgsubr
          225 -22 callgsubr
          85 228 154 360 165 -97 callgsubr
          564 863 -97 callsubr
          endchar
        </CharString>
        <CharString name="cedilla">
          -527 -24 callsubr
          hstem
          478 207 vstem
          268 -220 rmoveto
          -84 callsubr
          49 129 rlineto
          -119 hlineto
          endchar
        </CharString>
        <CharString name="cent">
          -101 -23 128 -98 -21 1154 106 21 -20 hstemhm
          181 228 679 79 hintmask 00000000
          hintmask 10101100
          631 -14 rmoveto
          -27 -273 115 -8 27 272 172 4 177 81 96 117 rlinecurve
          -57 55 rlineto
          hintmask 10011100
          -77 -99 -119 -52 -147 hhcurveto
          -11 hlineto
          101 1022 134 -35 66 -107 25 -146 rlinecurve
          83 428 hlineto
          hintmask 01101100
          -79 hlineto
          -8 -41 -20 -27 -49 -13 -5 1 -74 32 -63 13 26 258 rcurveline
          -116 8 -25 -252 rlineto
          hintmask 10101100
          -16 hlineto
          -361 -196 -291 -346 -296 156 -275 294 -52 hvcurveto
          13 140 rmoveto
          -179 66 -56 213 202 vvcurveto
          268 87 259 248 6 vhcurveto
          endchar
        </CharString>
        <CharString name="circumflex">
          -272 1364 495 hstem
          248 710 vstem
          333 1364 -96 callsubr
          endchar
        </CharString>
        <CharString name="circumflex.cap">
          -442 1626 345 hstem
          178 670 vstem
          242 1626 -96 callgsubr
        </CharString>
        <CharString name="colon">
          -949 -37 -21 908 -21 hstemhm
          76 360 hintmask 10100000
          76 123 -85 callgsubr
          hintmask 01100000
          -182 708 -85 callgsubr
          endchar
        </CharString>
        <CharString name="comma">
          -949 -503 805 hstem
          76 360 vstem
          76 123 rmoveto
          89 -87 40 -57 -97 vvcurveto
          -96 -40 -137 -69 -99 vhcurveto
          77 -53 187 211 87 282 -12 133 rlinecurve
          -60 callgsubr
          rlineto
          endchar
        </CharString>
        <CharString name="commaaccent">
          -800 -567 -21 hstem
          182 299 vstem
          182 -240 -98 callsubr
        </CharString>
        <CharString name="copyright">
          409 -145 90 216 91 850 84 221 93 hstem
          74 109 239 205 967 -72 callsubr
          239 -12 rmoveto
          -263 163 -239 313 147 147 79 119 76 vhcurveto
          -50 55 rlineto
          -101 -96 -88 -61 -111 hhcurveto
          -214 -82 217 192 201 72 240 215 145 94 -120 -148 -15 hvcurveto
          56 hlineto
          87 352 rlineto
          -57 hlineto
          -29 -15 -40 -21 -18 hhcurveto
          -5 -43 8 18 -51 hvcurveto
          17 -50 -51 7 -51 hhcurveto
          -307 -171 -259 -264 hvcurveto
          endchar
        </CharString>
        <CharString name="currency">
          71 335 115 591 113 hstem
          355 191 445 187 vstem
          198 257 rmoveto
          80 -80 231 239 rlineto
          -50 65 86 -31 106 hhcurveto
          106 85 30 50 66 hvcurveto
          230 -238 80 80 -238 231 rlineto
          50 71 33 97 89 vvcurveto
          91 -31 93 -53 72 vhcurveto
          239 230 -80 80 -232 -237 rlineto
          49 -65 -85 31 -105 hhcurveto
          -105 -85 -31 -50 -66 hvcurveto
          -232 238 -80 -80 69 -70 107 -96 63 -64 rlinecurve
          -52 -73 -30 -93 -90 vvcurveto
          -90 30 -94 51 -72 vhcurveto
          332 -39 rmoveto
          -181 -41 161 134 134 43 162 179 180 43 -156 -140 -136 -43 -159 -180 hvcurveto
          endchar
        </CharString>
        <CharString name="d">
          -98 -24 111 1042 108 hstem
          123 229 653 228 vstem
          123 -76 callsubr
          endchar
        </CharString>
        <CharString name="dagger">
          -101 1063 128 389 78 hstemhm
          231 83 294 140 -118 95 323 81 hintmask 00000000
          hintmask 11101100
          630 -464 rmoveto
          95 hlineto
          846 30 142 102 82 vhcurveto
          82 vlineto
          hintmask 11110100
          0 -103 17 -4 358 vhcurveto
          73 hlineto
          196 4 -23 -170 25 hvcurveto
          81 519 -81 hlineto
          -172 -23 callsubr
          hintmask 11101100
          78 -568 -79 vlineto
          173 -27 41 -4 -195 vvcurveto
          -162 -102 vlineto
          -157 -28 60 138 -7 hvcurveto
          -83 -519 83 hlineto
          hintmask 11110100
          12 callgsubr
          -373 -103 -1 0 vvcurveto
          hintmask 11101100
          -1 -83 rlineto
          102 -82 27 -142 -846 vvcurveto
          endchar
        </CharString>
        <CharString name="daggerdbl">
          -101 -323 77 221 -21 189 129 790 129 389 77 hstem
          231 83 294 140 300 81 vstem
          231 -46 rmoveto
          81 hlineto
          171 27 3 18 195 hhcurveto
          73 -154 hlineto
          -198 -43 -10 -171 -27 vhcurveto
          -77 568 77 vlineto
          -173 27 -41 13 195 vvcurveto
          154 104 vlineto
          157 28 -52 -137 7 hvcurveto
          83 514 -83 hlineto
          -166 -14 -28 -30 -179 hhcurveto
          -75 hlineto
          3 325 103 27 0 vvcurveto
          1 86 rlineto
          0 -102 35 -5 317 vhcurveto
          73 hlineto
          196 4 -24 -169 25 hvcurveto
          81 519 -81 hlineto
          -171 -23 callsubr
          77 -568 -78 vlineto
          173 -27 41 -5 -194 vvcurveto
          -162 -102 vlineto
          -157 -28 60 137 -7 hvcurveto
          -83 -519 83 hlineto
          12 callgsubr
          -329 -103 -23 0 vvcurveto
          -1 -84 rlineto
          0 102 -41 5 -313 vhcurveto
          -71 hlineto
          -196 -4 27 169 -25 hvcurveto
          -81 hlineto
          endchar
        </CharString>
        <CharString name="dcaron">
          240 -24 111 818 805 -581 108 hstemhm
          150 229 653 228 54 360 hintmask 10111000
          150 -76 callsubr
          hintmask 01000100
          614 1444 rmoveto
          89 -87 40 -57 -97 vvcurveto
          -96 -40 -137 -69 -99 vhcurveto
          77 -53 187 211 87 282 -12 133 rlinecurve
          -60 callgsubr
          rlineto
          endchar
        </CharString>
        <CharString name="dcroat">
          -98 -30 116 -86 83 1045 117 116 123 143 83 hstemhm
          126 225 622 204 hintmask 00000000
          hintmask 10111110
          126 621 rmoveto
          -323 195 -328 366 67 82 8 8 75 vhcurveto
          -17 callsubr
          1112 145 vlineto
          29 123 rlineto
          -174 hlineto
          1 128 39 3 133 12 rrcurveto
          83 -549 -83 vlineto
          hintmask 01111110
          131 -14 39 1 2 -130 rrcurveto
          -214 hlineto
          -28 -123 rlineto
          242 -256 hlineto
          86 -79 -137 54 -127 hhcurveto
          -325 -179 -308 -316 hvcurveto
          557 -535 rmoveto
          -236 -96 252 283 hvcurveto
          hintmask 10111110
          -6 callgsubr
          vhcurveto
          hintmask 01111110
          7 callgsubr
        </CharString>
        <CharString name="degree">
          -436 943 118 511 118 hstem
          138 134 482 133 vstem
          513 943 rmoveto
          208 166 163 211 208 -166 165 -208 -211 -164 -165 -208 -211 164 -163 211 hvcurveto
          118 vmoveto
          -135 -106 121 135 134 106 121 135 134 107 -121 -134 -135 -107 -121 -134 hvcurveto
          endchar
        </CharString>
        <CharString name="dieresis">
          -441 1432 359 hstem
          94 832 vstem
          747 1432 rmoveto
          179 180 -95 callgsubr
          -287 -180 rmoveto
          179 180 -95 callgsubr
          endchar
        </CharString>
        <CharString name="dieresis.cap">
          -441 1612 360 hstem
          94 832 vstem
          747 1612 rmoveto
          179 181 -95 callgsubr
          -287 -181 rmoveto
          179 181 -95 callgsubr
          endchar
        </CharString>
        <CharString name="divide">
          -101 752 167 hstem
          99 1162 vstem
          682 1140 rmoveto
          172 175 -172 172 -174 -172 rlineto
          -409 -563 rmoveto
          1121 -30 callgsubr
          -1122 hlineto
          369 -576 rmoveto
          174 -174 172 174 -172 172 rlineto
          endchar
        </CharString>
        <CharString name="dollar">
          65 -22 105 -83 -21 1462 110 hstemhm
          189 237 -178 223 240 105 233 213 -156 230 hintmask 00000000
          hintmask 01100101
          189 314 rmoveto
          -211 250 -116 272 -9 vhcurveto
          -210 105 211 vlineto
          281 19 239 128 261 vvcurveto
          204 -220 127 -254 124 vhcurveto
          hintmask 10101110
          -46 24 rlineto
          575 vlineto
          141 -11 92 -58 -101 vvcurveto
          -65 -28 -34 -28 -31 vhcurveto
          74 -49 rlineto
          136 41 59 87 67 vvcurveto
          149 -214 108 -232 7 vhcurveto
          219 -105 -222 vlineto
          -241 -24 -222 -132 -219 vvcurveto
          hintmask 10110101
          -182 168 -128 295 -148 vhcurveto
          -632 vlineto
          -193 16 -92 119 128 vvcurveto
          88 24 26 34 39 vhcurveto
          -54 64 rlineto
          -82 -17 -159 -80 -152 vvcurveto
          522 609 rmoveto
          -160 92 -80 76 132 vvcurveto
          129 103 74 137 15 vhcurveto
          hintmask 01101101
          105 -1358 rmoveto
          577 vlineto
          154 -82 136 -83 -154 vvcurveto
          -159 -109 -84 -181 -15 vhcurveto
          endchar
        </CharString>
        <CharString name="dotaccent">
          -849 1471 18 callgsubr
          1471 -97 callsubr
          endchar
        </CharString>
        <CharString name="dotaccent.cap">
          -849 1613 18 callgsubr
          1613 -97 callsubr
          endchar
        </CharString>
        <CharString name="dotlessi">
          -51 callgsubr
          hstem
          258 202 vstem
          85 -9 callsubr
          678 -50 callgsubr
          21 -55 callgsubr
          86 -547 -86 vlineto
          152 -12 21 -10 -156 vvcurveto
          -678 -2 callgsubr
        </CharString>
        <CharString name="dotlessj">
          -8 callgsubr
          hstem
          270 202 vstem
          270 231 -80 callsubr
          endchar
        </CharString>
        <CharString name="e">
          -71 callgsubr
          hstem
          101 215 528 217 vstem
          -105 callsubr
          endchar
        </CharString>
        <CharString name="eacute">
          -71 callgsubr
          16 callgsubr
          101 215 187 463 -122 217 hintmask 11101010
          -105 callsubr
          hintmask 00010100
          285 733 -89 callsubr
        </CharString>
        <CharString name="ebreve">
          -71 callgsubr
          260 161 hstemhm
          101 215 -7 699 -164 217 hintmask 11101010
          -105 callsubr
          hintmask 00010100
          338 862 -94 callsubr
        </CharString>
        <CharString name="ecaron">
          -71 callgsubr
          15 callgsubr
          101 215 -7 710 -175 217 hintmask 11101010
          -105 callsubr
          hintmask 00010100
          221 738 -83 callgsubr
        </CharString>
        <CharString name="ecircumflex">
          -71 callgsubr
          15 callgsubr
          101 215 -13 710 -169 217 hintmask 11101010
          -105 callsubr
          hintmask 00010100
          72 738 -96 callsubr
          endchar
        </CharString>
        <CharString name="edieresis">
          -71 callgsubr
          204 -22 callgsubr
          101 215 -74 832 -230 217 hintmask 11101010
          -105 callsubr
          hintmask 00010100
          579 806 rmoveto
          179 180 -95 callgsubr
          -287 -180 rmoveto
          179 180 -95 callgsubr
          endchar
        </CharString>
        <CharString name="edotaccent">
          -71 callgsubr
          243 -22 callgsubr
          101 215 162 360 6 217 hintmask 11101010
          -105 callsubr
          hintmask 00010100
          344 845 -97 callsubr
          endchar
        </CharString>
        <CharString name="egrave">
          -71 callgsubr
          121 -5 callsubr
          101 215 42 454 32 217 hintmask 11101010
          -105 callsubr
          hintmask 00010100
          407 723 -73 callsubr
        </CharString>
        <CharString name="eight">
          -97 -24 107 1535 102 hstemhm
          148 224 -147 179 537 212 -126 186 hintmask 00000000
          hintmask 11100100
          148 399 rmoveto
          -201 203 -222 344 431 87 317 133 166 -21 145 -342 189 vhcurveto
          hintmask 11011000
          146 77 157 130 200 vvcurveto
          187 -152 200 -313 -219 -244 -131 -251 -164 55 -133 230 -150 vhcurveto
          hintmask 11100100
          -247 -106 -115 -156 -230 vvcurveto
          616 576 rmoveto
          -184 107 -176 147 173 vvcurveto
          107 89 109 183 194 71 -148 -124 -189 -91 -108 -86 -74 vhcurveto
          -392 -535 rmoveto
          hintmask 11011000
          231 116 111 105 51 vhcurveto
          29 -20 28 -19 32 -20 rrcurveto
          154 -99 191 -137 -193 vvcurveto
          -139 -131 -123 -174 -221 -129 186 171 vhcurveto
          endchar
        </CharString>
        <CharString name="ellipsis">
          75 -37 -21 hstem
          75 360 152 360 152 360 cntrmask 01110000
          1099 123 -85 callgsubr
          -694 -179 -85 callgsubr
          -694 -179 -85 callgsubr
          endchar
        </CharString>
        <CharString name="emacron">
          -71 callgsubr
          335 157 hstemhm
          101 215 8 669 -149 217 hintmask 11101010
          -105 callsubr
          hintmask 00010100
          8 949 -63 callgsubr
        </CharString>
        <CharString name="emdash">
          578 -11 callsubr
          188 1662 vstem
          188 753 rmoveto
          1621 hlineto
          41 166 rlineto
          -1623 hlineto
          endchar
        </CharString>
        <CharString name="endash">
          69 -11 callsubr
          184 1161 vstem
          184 753 rmoveto
          1120 hlineto
          41 166 rlineto
          -1121 hlineto
          endchar
        </CharString>
        <CharString name="eng">
          77 -566 -21 587 84 1038 86 hstem
          323 203 578 198 vstem
          152 hmoveto
          -27 callgsubr
          -26 3 rlineto
          -132 19 -15 5 182 vvcurveto
          339 vlineto
          281 157 148 159 99 vhcurveto
          232 -183 33 -163 -2 -390 -1 -187 rcurveline
          -2 -385 -144 -257 -342 -83 20 -98 rcurveline
          499 90 168 334 527 vvcurveto
          71 vlineto
          483 -151 224 -300 158 vhcurveto
          -171 -86 -96 -98 -59 -116 rrcurveto
          208 -374 -86 vlineto
          152 -11 19 -16 -122 vvcurveto
          -713 vlineto
          -150 -20 -6 -120 -17 vhcurveto
          -8 -1 -12 -1 -9 -2 -2 -1 rcurveline
          endchar
        </CharString>
        <CharString name="eogonek">
          -266 -14 callsubr
          424 130 409 107 495 107 hstem
          101 215 172 204 152 217 vstem
          101 587 rmoveto
          -353 198 -254 358 26 35 5 6 24 vhcurveto
          -132 -90 -122 -124 -139 vvcurveto
          -127 94 -79 150 -54 callgsubr
          -75 -44 45 80 215 210 88 166 165 hvcurveto
          -103 callgsubr
          endchar
        </CharString>
        <CharString name="equal">
          -7 callsubr
          148 977 rmoveto
          1023 -30 callgsubr
          -1024 hlineto
          -40 -619 rmoveto
          1023 -30 callgsubr
          -1024 hlineto
          endchar
        </CharString>
        <CharString name="eth">
          -95 -27 112 1001 107 hstem
          106 229 653 228 vstem
          106 584 rmoveto
          -301 203 -310 344 342 221 281 449 361 -119 339 -280 206 vhcurveto
          224 109 -57 90 -88 -42 -94 -46 -88 -43 rlinecurve
          -109 61 -135 45 -153 23 -21 -102 rcurveline
          105 -22 92 -37 81 -50 -272 -130 rcurveline
          57 -91 311 150 124 -86 91 -157 51 -183 rlinecurve
          62 -69 -114 33 -106 hhcurveto
          -361 -180 -305 -304 hvcurveto
          550 -499 rmoveto
          -247 -74 268 228 256 70 249 261 200 122 -146 -229 -368 -55 -258 -277 hvcurveto
          endchar
        </CharString>
        <CharString name="exclam">
          -949 -37 -21 hstem
          219 96 vstem
          219 409 rmoveto
          96 hlineto
          0 3 778 126 340 vhcurveto
          -60 callgsubr
          -183 -179 rlineto
          133 -340 3 -778 0 vvcurveto
          -130 -286 -85 callgsubr
          endchar
        </CharString>
        <CharString name="exclamdown">
          -949 -23 -21 1297 -20 hstem
          234 96 vstem
          278 1361 rmoveto
          181 178 -181 181 -179 -181 rlineto
          5 -1404 rmoveto
          179 -179 182 179 rlineto
          -132 340 -3 778 0 vvcurveto
          -96 hlineto
          0 -3 -778 -127 -340 vhcurveto
          endchar
        </CharString>
        <CharString name="f">
          -607 1 callgsubr
          hstem
          273 203 vstem
          98 hmoveto
          626 85 hlineto
          -38 callgsubr
          189 vlineto
          198 92 70 206 27 vhcurveto
          122 16 -9 107 rlineto
          -117 15 callsubr
          -108 -357 hvcurveto
          -56 -66 callgsubr
          endchar
        </CharString>
        <CharString name="ff">
          247 1 callgsubr
          hstem
          273 203 651 203 vstem
          -4 callsubr
          834 651 -855 vlineto
          -113 -23 -22 -152 -11 vhcurveto
          -85 626 85 vlineto
          -38 callgsubr
          264 6 callsubr
          -9 107 rlineto
          -117 15 callsubr
          -103 -362 hvcurveto
          -2 -217 rlineto
          -653 189 hlineto
          -37 callsubr
          -9 107 rlineto
          -117 15 callsubr
          -103 -362 hvcurveto
          -56 -66 callgsubr
          endchar
        </CharString>
        <CharString name="fi">
          79 1 callgsubr
          -86 86 500 107 13 callsubr
          463 265 -92 -2 callsubr
          hintmask 11001100
          89 hmoveto
          626 hlineto
          hintmask 11001001
          85 vlineto
          -40 callsubr
          834 vlineto
          hintmask 10101010
          636 -820 hlineto
          -156 -22 -6 -116 -16 vhcurveto
          hintmask 11011010
          -29 callsubr
          14 callsubr
          -39 6 rlineto
          -118 19 -15 3 155 vvcurveto
          678 -50 callgsubr
          21 -55 callgsubr
          86 -1012 189 6 callsubr
          1 107 rlineto
          -127 15 callsubr
          -103 -362 hvcurveto
          -56 -66 callgsubr
          1106 1341 rmoveto
          -43 callgsubr
          rlineto
          hintmask 11011100
          -60 callgsubr
          -182 -179 rlineto
          endchar
        </CharString>
        <CharString name="five">
          -266 1153 175 hstem
          785 189 vstem
          195 -404 rmoveto
          43 -85 279 82 445 276 12 488 rlinecurve
          -7 418 -376 137 -294 11 108 230 rcurveline
          568 hlineto
          110 377 rlineto
          -101 hlineto
          -120 -48 -39 -82 -120 hhcurveto
          -430 hlineto
          -252 -567 rlineto
          287 20 405 -157 -338 vvcurveto
          -145 -86 -350 -504 -195 vhcurveto
          endchar
        </CharString>
        <CharString name="fl">
          74 1 callgsubr
          456 111 hstem
          260 203 637 202 vstem
          85 hmoveto
          626 85 hlineto
          -38 callgsubr
          169 vlineto
          198 123 89 208 vhcurveto
          308 -1399 hlineto
          -155 -87 callgsubr
          -83 577 83 vlineto
          -48 7 rlineto
          -114 17 -40 8 150 vvcurveto
          1510 -547 vlineto
          -313 -180 -83 -362 hvcurveto
          -36 -66 callgsubr
          endchar
        </CharString>
        <CharString name="florin">
          -607 1086 122 hstem
          115 826 vstem
          115 -340 rmoveto
          202 hlineto
          182 1426 rlineto
          327 hlineto
          15 122 rlineto
          -329 hlineto
          25 189 25 198 101 63 209 34 rlinecurve
          54 16 15 107 rlineto
          -57 hlineto
          -313 -193 -103 -362 -46 hvcurveto
          -8 -56 -9 -71 -31 -24 -143 -20 rlinecurve
          -12 -93 rlineto
          167 hlineto
          endchar
        </CharString>
        <CharString name="foundryicon">
          3008 21 -21 89 55 124 137 -130 130 42 169 -35 36 36 36 68 37 86 86 -79 36 3 67 -41 15 1 168 53 104 -104 111 120 59 hstemhm
          371 290 409 93 -65 155 289 279 383 90 383 59 185 78 69 91 -69 77 168 94 -67 77 -55 38 137 94 23 91 -81 85 70 93 134 59 hintmask 0000000000000000000000000000000000000000
          hintmask 1101101100100011101111101010101110000000
          2204 hmoveto
          90 1658 -90 hlineto
          -1833 -874 rmoveto
          -343 240 -352 485 481 244 345 350 347 -244 348 -481 -482 -243 -348 -347 vhcurveto
          2306 -3 rmoveto
          -342 239 -352 485 482 244 345 349 348 -244 348 -482 -481 -243 -348 -348 vhcurveto
          59 hmoveto
          321 223 318 442 442 225 -318 -321 -322 -225 -315 -442 -446 -219 323 314 vhcurveto
          120 -200 rmoveto
          236 hlineto
          -17 -33 -7 -37 -38 vvcurveto
          hintmask 0010010000000000000000010000000000000000
          -106 74 -99 145 48 49 18 27 37 vhcurveto
          -24 33 43 -14 54 hhcurveto
          143 73 103 103 33 -7 34 -15 28 hvcurveto
          hintmask 0001100000000000000000000000010000000000
          11 10 -1 11 hhcurveto
          76 59 34 42 36 hvcurveto
          -20 16 rlineto
          -29 -34 -52 -22 -53 hhcurveto
          -99 -31 68 74 -6 hvcurveto
          210 4 71 73 64 vvcurveto
          53 -63 37 -91 vhcurveto
          hintmask 0000100000010010000000000000101100000000
          -13 -10 -1 -1 -12 hvcurveto
          17 32 9 38 37 vvcurveto
          102 -72 104 -146 vhcurveto
          -43 -46 -7 -37 hhcurveto
          -130 -36 hlineto
          hintmask 0000000000100101100000101010000000000000
          44 -4 21 0 -45 vvcurveto
          -92 vlineto
          -104 -45 -50 -52 -36 vhcurveto
          -102 80 4 41 161 vvcurveto
          49 6 -2 53 5 vhcurveto
          33 -191 -33 vlineto
          50 -7 5 5 -56 vvcurveto
          -118 15 -68 37 -50 vhcurveto
          -143 123 hlineto
          -54 -22 -5 -50 -15 -34 -5 -7 rlinecurve
          -8 -9 -56 -6 0 vvcurveto
          -35 65 -236 vlineto
          -55 -5 -8 -60 -10 vhcurveto
          hintmask 0000000000001010000100000000000000000000
          583 422 rmoveto
          160 vlineto
          35 16 31 98 106 27 -81 -89 -85 -24 -87 -95 -76 -52 52 64 vhcurveto
          hintmask 0001100000010000001100000000000000000000
          -2811 -505 rmoveto
          1 52 50 39 46 11 23 -26 rcurveline
          -14 -16 -6 -17 -33 vvcurveto
          -42 44 -54 86 86 51 40 63 66 -64 33 -96 41 vhcurveto
          -101 47 -73 60 86 vvcurveto
          hintmask 0000000000100000001000000000000000000000
          104 109 60 121 vhcurveto
          hintmask 0000000000100000010000000000000000000000
          23 24 -4 -7 23 hvcurveto
          hintmask 0000000000100100001000000000000000000000
          -13 16 -8 19 25 vvcurveto
          61 64 31 149 vhcurveto
          200 hlineto
          2 1 rlineto
          -160 187 vlineto
          hintmask 0000000010000000001000000000000000000000
          -63 -187 -418 vlineto
          hintmask 0000100000100000101000000000000000000000
          -92 22 -6 165 -4 vhcurveto
          -42 -381 42 vlineto
          84 13 8 -1 89 vvcurveto
          419 -90 47 vlineto
          0 76 9 11 11 vhcurveto
          6 8 16 38 7 56 rrcurveto
          -122 hlineto
          -106 -28 -48 -29 hvcurveto
          hintmask 0000000000100101100000101010000000000000
          -29 5 -16 8 -13 vhcurveto
          hintmask 0000100000100000000000100000000000000000
          21 -18 13 -21 -23 vvcurveto
          -43 -47 -31 -33 -7 vhcurveto
          -28 22 rlineto
          7 9 12 20 20 vvcurveto
          39 -43 25 -61 vhcurveto
          hintmask 0000000000010000000000000010000000000000
          -69 -47 -34 -51 hvcurveto
          hintmask 0000001100001000000000000010100000000000
          -67 71 -34 91 -43 vhcurveto
          96 -47 79 -48 -89 vvcurveto
          -120 -118 -67 -126 -117 -111 54 87 2 vhcurveto
          2371 138 rmoveto
          254 181 vlineto
          23 -18 27 -16 32 -17 rrcurveto
          hintmask 0000101000000000000000000001000000000000
          48 29 32 28 20 36 rrcurveto
          -120 vlineto
          -47 -31 -5 -96 -2 vhcurveto
          -155 hlineto
          hintmask 0000100000100000000000100000000000000000
          -37 vlineto
          hintmask 0000000001000001000000000010001000000000
          480 hlineto
          2 -25 8 -24 11 -22 rrcurveto
          3 -10 -10 0 -10 hhcurveto
          -52 -44 -14 -23 -33 hvcurveto
          79 -38 vlineto
          hintmask 0100000000010000000000010100010000000000
          -43 -20 -16 -13 vhcurveto
          -19 -29 10 -14 hhcurveto
          -77 -55 -25 -40 -36 hvcurveto
          -93 -29 9 46 hvcurveto
          654 122 rmoveto
          73 37 85 79 55 17 -29 -24 -74 -94 -27 -94 -4 vhcurveto
          hintmask 0000000000010000000000000001000000000000
          -214 54 rmoveto
          hintmask 0001000000000000000000000100000000000000
          87 vlineto
          -30 28 47 -18 54 hhcurveto
          hintmask 0100000000010000000000010100010000000000
          6 7 0 1 4 hvcurveto
          hintmask 1000000100010000000010000010100100000000
          -14 -28 -10 -31 -2 -35 rrcurveto
          -92 -28 8 46 hvcurveto
          -10 -368 rmoveto
          79 23 94 101 96 27 -94 -79 -79 -24 -91 -99 -101 -23 92 78 vhcurveto
          -270 -7 rmoveto
          81 31 94 104 60 20 -26 -42 -16 vhcurveto
          -11 -32 -12 -32 -35 vvcurveto
          -54 21 -56 42 -40 vhcurveto
          -16 -28 -31 -10 -39 hhcurveto
          -105 -36 87 81 hvcurveto
          endchar
        </CharString>
        <CharString name="four">
          72 231 145 hstemhm
          857 194 -175 144 hintmask 00000000
          hintmask 10100000
          99 231 rmoveto
          769 hlineto
          17 -740 rlineto
          126 hlineto
          19 740 rlineto
          177 hlineto
          38 30 -31 -47 8 hvcurveto
          96 hlineto
          88 434 rlineto
          -98 hlineto
          hintmask 11000000
          -149 -55 -41 -62 -112 hhcurveto
          -127 hlineto
          34 1269 -993 -1341 rlineto
          184 72 rmoveto
          590 722 16 -722 rlineto
          endchar
        </CharString>
        <CharString name="fraction">
          -436 -334 2306 hstem
          53 918 vstem
          53 -334 rmoveto
          154 hlineto
          764 2306 rlineto
          -152 hlineto
          endchar
        </CharString>
        <CharString name="g">
          -61 callgsubr
          hstemhm
          99 227 605 204 hintmask 00000000
          hintmask 11101100
          361 -419 rmoveto
          -39 -108 rlineto
          -39 78 88 -21 87 hhcurveto
          367 193 314 324 hvcurveto
          hintmask 11011100
          907 vlineto
          128 15 28 157 10 vhcurveto
          85 -259 vlineto
          hintmask 11101100
          -47 -59 5 4 -60 hvcurveto
          5 -68 -72 5 -68 hhcurveto
          -395 -180 -316 -324 -317 163 -295 356 126 106 52 86 81 hvcurveto
          -65 vlineto
          -249 -86 -253 -294 -67 -66 11 23 -57 vhcurveto
          265 506 rmoveto
          -253 -47 262 239 283 75 249 269 243 18 -95 -109 hvcurveto
          -545 vlineto
          -155 -130 -129 -175 vhcurveto
          endchar
        </CharString>
        <CharString name="gbreve">
          -61 callgsubr
          279 161 hstemhm
          99 227 -5 699 -89 -99 callsubr
          40 1401 -94 callsubr
        </CharString>
        <CharString name="gcircumflex">
          -61 callgsubr
          155 -10 callgsubr
          99 227 -11 710 -94 -99 callsubr
          -226 1277 -96 callsubr
          endchar
        </CharString>
        <CharString name="gcommaaccent">
          -61 callgsubr
          686 21 hstemhm
          99 227 226 299 80 -99 callsubr
          225 1481 rmoveto
          -66 68 -26 36 45 vvcurveto
          63 39 32 47 30 vhcurveto
          -42 74 rlineto
          -186 -72 -65 -152 -119 vvcurveto
          150 -152 rlineto
          endchar
        </CharString>
        <CharString name="gdotaccent">
          -61 callgsubr
          262 -22 callgsubr
          99 227 164 360 81 -99 callsubr
          46 1384 -97 callsubr
          endchar
        </CharString>
        <CharString name="germandbls">
          68 -23 106 -83 84 1518 109 hstemhm
          265 205 181 174 -74 176 28 197 77 191 hintmask 00000000
          hintmask 10110101
          89 hmoveto
          381 hlineto
          hintmask 01110111
          1233 vlineto
          236 79 133 180 141 85 -105 -130 vhcurveto
          -270 -204 61 -223 vvcurveto
          -125 73 -85 94 -72 vhcurveto
          161 -124 150 -67 -170 vvcurveto
          -146 -82 -63 -121 vhcurveto
          hintmask 10110101
          -113 -88 67 62 55 9 35 24 23 hvcurveto
          -52 60 rlineto
          hintmask 10111001
          -64 -15 -91 -76 -89 vvcurveto
          -122 135 -106 212 224 198 120 239 213 -140 107 -194 141 vhcurveto
          -78 57 -81 47 79 117 225 77 234 vvcurveto
          107 -101 196 -326 vhcurveto
          hintmask 10110101
          -251 -209 -112 -414 hvcurveto
          -955 vlineto
          hintmask 10110111
          -113 -24 -23 -152 -10 vhcurveto
          endchar
        </CharString>
        <CharString name="grave">
          -611 1349 521 hstem
          182 454 vstem
          547 1349 -73 callsubr
        </CharString>
        <CharString name="grave.cap">
          -800 17 callsubr
          571 1602 -72 callgsubr
        </CharString>
        <CharString name="greater">
          -101 1215 -20 hstem
          142 1075 vstem
          212 311 -10 callsubr
          270 -125 268 -127 270 -124 rlinecurve
          -808 -377 rlineto
          endchar
        </CharString>
        <CharString name="greaterequal">
          -101 169 166 hstem
          119 1132 vstem
          232 458 -10 callsubr
          808 -376 -269 -125 -269 -127 -270 -125 rlinecurve
          -2 -440 rmoveto
          1091 hlineto
          -40 166 rlineto
          -1092 hlineto
          endchar
        </CharString>
        <CharString name="guillemotleft">
          72 1209 -20 hstem
          150 1252 vstem
          715 651 -45 callgsubr
          -1177 -558 -45 callgsubr
          endchar
        </CharString>
        <CharString name="guillemotright">
          72 1209 -20 hstem
          159 1252 vstem
          724 148 -28 callsubr
          358 -505 rlineto
          -923 -503 -28 callsubr
          358 -505 rlineto
          endchar
        </CharString>
        <CharString name="guilsinglleft">
          -436 1209 -20 hstem
          149 687 vstem
          149 651 -45 callgsubr
          endchar
        </CharString>
        <CharString name="guilsinglright">
          -436 1209 -20 hstem
          189 687 vstem
          189 148 -28 callsubr
          357 -505 rlineto
          endchar
        </CharString>
        <CharString name="h">
          74 0 83 1563 84 hstem
          323 204 576 209 vstem
          151 hmoveto
          -89 callgsubr
          473 vlineto
          156 23 1 150 16 vhcurveto
          84 -549 -35 callsubr
        </CharString>
        <CharString name="hbar">
          74 0 83 1298 123 142 84 hstem
          323 204 576 209 vstem
          151 hmoveto
          -89 callgsubr
          381 215 vlineto
          29 123 rlineto
          -244 hlineto
          4 125 29 2 140 15 rrcurveto
          84 -549 -84 vlineto
          141 -13 28 -8 3 -121 rrcurveto
          -144 hlineto
          -28 -123 rlineto
          172 -1120 hlineto
          -148 -13 -12 -157 -18 vhcurveto
          -2 -1 rlineto
          endchar
        </CharString>
        <CharString name="hcircumflex">
          74 0 83 1563 84 hstem
          323 204 404 39 133 209 vstem
          700 1364 -96 callsubr
          -464 -1406 rmoveto
          -89 callgsubr
          730 -376 -35 callsubr
        </CharString>
        <CharString name="hungarumlaut">
          -439 1359 521 hstem
          152 856 vstem
          695 1359 -65 callgsubr
        </CharString>
        <CharString name="hungarumlaut.cap">
          -781 1628 342 hstem
          6 802 vstem
          455 1628 -65 callsubr
        </CharString>
        <CharString name="hyphen">
          -35 callgsubr
        </CharString>
        <CharString name="i">
          -51 callgsubr
          hstemhm
          85 265 -92 -2 callsubr
          hintmask 11100000
          350 1426 rmoveto
          -43 callgsubr
          rlineto
          hintmask 11001000
          -60 callgsubr
          -182 -179 rlineto
          -83 -1607 rmoveto
          hintmask 11010000
          -7 callgsubr
          678 -50 callgsubr
          21 -55 callgsubr
          86 -547 -86 vlineto
          -67 callsubr
          hintmask 11100000
          -156 -87 callgsubr
          endchar
        </CharString>
        <CharString name="iacute">
          -51 callgsubr
          -20 callgsubr
          203 463 -408 -37 callgsubr
          85 -9 callsubr
          678 -50 callgsubr
          21 -55 callgsubr
          86 -547 -86 vlineto
          -67 callsubr
          -156 -87 callgsubr
          hintmask 00110000
          216 1276 -89 callsubr
        </CharString>
        <CharString name="ibreve">
          -51 callgsubr
          280 161 hstemhm
          9 699 -450 -37 callgsubr
          85 -9 callsubr
          678 -50 callgsubr
          21 -55 callgsubr
          86 -547 -86 vlineto
          -67 callsubr
          -156 -87 callgsubr
          hintmask 00110000
          269 1405 -94 callsubr
        </CharString>
        <CharString name="icircumflex">
          -51 callgsubr
          -21 callsubr
          3 710 -455 -37 callgsubr
          85 -9 callsubr
          678 -50 callgsubr
          21 -55 callgsubr
          86 -547 -86 vlineto
          -67 callsubr
          -156 -87 callgsubr
          hintmask 00110000
          3 1281 -96 callsubr
          endchar
        </CharString>
        <CharString name="idieresis">
          -51 callgsubr
          224 -22 callgsubr
          -58 832 -516 -37 callgsubr
          85 -9 callsubr
          678 -50 callgsubr
          21 -55 callgsubr
          86 -547 -86 vlineto
          -67 callsubr
          -156 -87 callgsubr
          hintmask 00110000
          510 1349 rmoveto
          179 180 -95 callgsubr
          -287 -180 rmoveto
          179 180 -95 callgsubr
          endchar
        </CharString>
        <CharString name="igrave">
          -51 callgsubr
          141 -5 callsubr
          58 454 -254 -37 callgsubr
          85 -9 callsubr
          678 -50 callgsubr
          21 -55 callgsubr
          86 -547 -86 vlineto
          -67 callsubr
          -156 -87 callgsubr
          hintmask 00110000
          338 1266 -73 callsubr
        </CharString>
        <CharString name="ij">
          72 -566 -21 587 86 1037 85 hstemhm
          141 265 -92 202 -110 283 -118 118 350 202 hintmask 00000000
          hintmask 11101011
          1130 1446 -97 callsubr
          -542 -180 rmoveto
          180 180 -180 179 -182 -179 rlineto
          327 -2115 rmoveto
          20 -98 rlineto
          hintmask 11110011
          499 90 171 334 527 vvcurveto
          581 vlineto
          hintmask 11100101
          160 22 3 150 15 vhcurveto
          85 -547 vlineto
          hintmask 11101011
          -85 vlineto
          144 -13 29 -10 -134 vvcurveto
          -730 vlineto
          -385 -146 -257 -342 -83 vhcurveto
          -410 489 rmoveto
          548 83 hlineto
          -39 16 callsubr
          hintmask 11110011
          680 vlineto
          160 -48 callgsubr
          21 -10 -155 vvcurveto
          -680 vlineto
          -154 -26 -8 -114 -16 vhcurveto
          -9 -1 -12 -1 -10 -2 -2 -1 rcurveline
          endchar
        </CharString>
        <CharString name="imacron">
          -51 callgsubr
          355 157 hstemhm
          24 669 -435 -37 callgsubr
          85 -9 callsubr
          678 -50 callgsubr
          21 -55 callgsubr
          86 -547 -86 vlineto
          -67 callsubr
          -156 -87 callgsubr
          hintmask 00110000
          -61 1492 -63 callgsubr
        </CharString>
        <CharString name="infinity">
          239 189 184 -180 185 437 185 -180 184 hstemhm
          173 109 1136 109 hintmask 00000000
          hintmask 10101100
          505 189 rmoveto
          153 94 124 108 83 hvcurveto
          34 46 rlineto
          -125 89 94 -149 152 hhcurveto
          213 110 191 210 224 -120 186 -212 hvcurveto
          hintmask 01011100
          -153 -94 -129 -113 -83 hvcurveto
          -34 -36 rlineto
          125 -89 -94 149 -152 hhcurveto
          -213 -110 -191 -210 -224 120 -186 212 hvcurveto
          hintmask 10101100
          425 348 rmoveto
          80 101 85 177 147 5 rrcurveto
          112 64 -84 -131 -163 -102 -64 -136 hvcurveto
          hintmask 01011100
          -84 -113 86 73 -53 hvcurveto
          -472 -164 rmoveto
          -112 -64 84 131 163 102 64 136 84 113 -86 -73 53 hvcurveto
          -98 -77 -92 -185 -143 hhcurveto
          endchar
        </CharString>
        <CharString name="integral">
          -607 -588 110 2182 110 hstem
          -181 193 272 200 252 193 vstem
          13 -121 rmoveto
          -92 -28 -102 -97 -104 vvcurveto
          -165 106 -73 173 205 181 129 313 vhcurveto
          1543 vlineto
          194 14 113 139 64 35 -50 -99 -71 -18 -49 -38 -44 vhcurveto
          55 -44 rlineto
          92 28 102 97 104 vvcurveto
          174 -106 64 -173 -205 -161 -129 -313 vhcurveto
          -1543 vlineto
          -194 -34 -113 -139 -64 -35 50 99 71 18 49 38 44 vhcurveto
          endchar
        </CharString>
        <CharString name="iogonek">
          -781 -14 callsubr
          444 85 1037 86 hstemhm
          44 306 -182 80 10 -2 callsubr
          hintmask 11110000
          350 1426 -33 callgsubr
          -83 -1607 rmoveto
          222 hlineto
          -39 callsubr
          vhcurveto
          hintmask 11101010
          88 121 40 47 82 hvcurveto
          -34 79 rlineto
          -30 -62 -66 -12 -50 hhcurveto
          -75 -44 45 80 100 87 134 127 85 hvcurveto
          hintmask 11100100
          170 83 hlineto
          -39 6 rlineto
          -118 19 -15 3 155 vvcurveto
          678 -50 callgsubr
          21 -55 callgsubr
          86 -547 -86 vlineto
          hintmask 11110000
          -67 callsubr
          -156 -22 -6 -116 -16 vhcurveto
          hintmask 11101100
          -29 callsubr
          endchar
        </CharString>
        <CharString name="itilde">
          -51 callgsubr
          196 2 callgsubr
          -39 118 179 202 177 118 hintmask 11000100
          85 -9 callsubr
          678 -50 callgsubr
          21 -55 callgsubr
          86 -547 -86 vlineto
          -67 callsubr
          -156 -87 callgsubr
          hintmask 00000000
          -119 1355 -84 callgsubr
          hintmask 00101010
          -70 callsubr
          hintmask 00011010
          -57 callsubr
        </CharString>
        <CharString name="j">
          -8 callgsubr
          hstem
          270 202 vstem
          362 1426 -33 callgsubr
          90 -1376 -80 callsubr
          endchar
        </CharString>
        <CharString name="jcircumflex">
          -8 callgsubr
          -21 callsubr
          5 710 -445 -37 callgsubr
          270 231 -80 callsubr
          hintmask 00110000
          -180 398 -96 callsubr
          endchar
        </CharString>
        <CharString name="k">
          -97 0 -3 callsubr
          hintmask 00000000
          hintmask 11011000
          80 hmoveto
          13 callgsubr
          hintmask 10111000
          0 callgsubr
          hintmask 11011000
          -76 callgsubr
          endchar
        </CharString>
        <CharString name="kcommaaccent">
          -97 -25 callsubr
          -3 callsubr
          129 299 hintmask 00000000
          hintmask 01101100
          80 hmoveto
          13 callgsubr
          hintmask 01011100
          0 callgsubr
          hintmask 01101100
          -76 callgsubr
          hintmask 10000010
          59 -890 -98 callsubr
        </CharString>
        <CharString name="kgreenlandic">
          -97 0 86 1036 87 -86 85 hstemhm
          252 203 hintmask 00000000
          hintmask 11010000
          525 650 rmoveto
          797 -872 68 57 -613 854 306 310 78 76 96 41 102 12 rlinecurve
          81 -530 -87 vlineto
          53 -1 63 -2 -45 vvcurveto
          -19 -35 -34 -34 -33 vhcurveto
          -796 -988 rmoveto
          13 callgsubr
          0 callgsubr
          680 vlineto
          149 19 15 127 13 vhcurveto
          hintmask 10110000
          85 -521 -46 callgsubr
          20 -10 -154 vvcurveto
          -680 vlineto
          -155 -21 -6 -117 -17 vhcurveto
          -34 -5 rlineto
          endchar
        </CharString>
        <CharString name="l">
          -775 0 86 1559 85 hstem
          262 202 vstem
          89 -86 callsubr
          endchar
        </CharString>
        <CharString name="lacute">
          -775 0 86 1359 85 74 -17 callgsubr
          84 566 -388 -37 callgsubr
          -12 callgsubr
          1265 -375 -34 callgsubr
          -154 vvcurveto
          -1003 vlineto
          -155 -87 callgsubr
          hintmask 00110000
          27 1521 -92 callsubr
        </CharString>
        <CharString name="lcaron">
          -441 0 86 819 805 -65 85 hstemhm
          272 202 149 360 hintmask 10110000
          99 -86 callsubr
          hintmask 01001000
          524 1448 rmoveto
          89 -87 40 -57 -97 vvcurveto
          -96 -40 -137 -69 -99 vhcurveto
          77 -53 187 211 87 282 -12 133 rlinecurve
          -60 callgsubr
          rlineto
          endchar
        </CharString>
        <CharString name="lcommaaccent">
          -775 -25 callsubr
          86 1559 85 hstemhm
          226 299 -263 202 hintmask 01101000
          89 -86 callsubr
          hintmask 10010000
          137 -323 -98 callsubr
        </CharString>
        <CharString name="ldot">
          -775 0 86 1559 85 hstem
          262 202 vstem
          89 -86 callsubr
          endchar
        </CharString>
        <CharString name="less">
          -101 311 1055 hstem
          142 1075 vstem
          142 779 -42 callgsubr
          endchar
        </CharString>
        <CharString name="lessequal">
          -101 169 166 hstem
          109 1132 vstem
          123 926 -42 callgsubr
          -14 -877 rmoveto
          1091 hlineto
          41 166 rlineto
          -1092 hlineto
          endchar
        </CharString>
        <CharString name="logicalnot">
          -101 917 168 hstem
          1048 168 vstem
          143 917 rmoveto
          905 -444 168 612 -1033 hlineto
          endchar
        </CharString>
        <CharString name="lozenge">
          -273 10 -21 hstem
          110 968 vstem
          596 -11 rmoveto
          482 858 -482 831 -486 -831 rlineto
          486 -543 rmoveto
          -98 176 -103 189 -97 176 298 520 rcurveline
          295 -520 rlineto
          endchar
        </CharString>
        <CharString name="lslash">
          -775 0 86 1122 -20 457 85 hstem
          262 202 vstem
          -12 callgsubr
          687 vlineto
          237 137 -36 119 -201 -115 rlineto
          637 -375 -34 callgsubr
          -154 vvcurveto
          -491 vlineto
          -242 -139 38 -119 204 117 rlineto
          -571 vlineto
          -155 -87 callgsubr
          endchar
        </CharString>
        <CharString name="m">
          752 0 85 1037 86 hstem
          317 203 539 203 544 205 vstem
          -90 callgsubr
          endchar
        </CharString>
        <CharString name="macron">
          -272 1563 157 hstem
          260 669 vstem
          260 1575 -63 callgsubr
        </CharString>
        <CharString name="macron.cap">
          -849 1800 157 hstem
          0 611 vstem
          1812 vmoveto
          -61 callsubr
        </CharString>
        <CharString name="minus">
          -101 -11 callsubr
          99 1162 vstem
          99 753 rmoveto
          1121 hlineto
          41 166 rlineto
          -1122 hlineto
          endchar
        </CharString>
        <CharString name="mu">
          239 -566 83 483 86 1035 87 hstem
          326 204 631 202 vstem
          326 -329 rmoveto
          -139 -34 -3 -128 -12 vhcurveto
          -83 561 83 vlineto
          -152 14 -43 -1 141 vvcurveto
          514 vlineto
          69 -113 103 -93 143 -69 171 85 87 99 58 115 rrcurveto
          -209 374 86 vlineto
          -153 11 -19 16 123 vvcurveto
          673 vlineto
          179 25 25 116 10 vhcurveto
          2 1 rlineto
          85 -504 -86 vlineto
          26 -3 rlineto
          114 -16 19 -6 -182 vvcurveto
          -338 vlineto
          -281 -151 -148 -165 -99 vhcurveto
          -154 93 -145 144 -16 248 rrcurveto
          445 vlineto
          6 118 30 7 95 14 27 4 rcurveline
          86 -504 -86 vlineto
          117 -10 25 -25 -179 vvcurveto
          endchar
        </CharString>
        <CharString name="multiply">
          -101 1229 -20 hstem
          169 1022 vstem
          288 326 rmoveto
          392 392 392 -391 119 119 -392 391 391 392 -119 119 -391 -392 -392 392 -119 -119 392 -392 -392 -392 rlineto
          endchar
        </CharString>
        <CharString name="n">
          1 callsubr
          hstem
          323 203 571 209 vstem
          -101 callsubr
          endchar
        </CharString>
        <CharString name="nacute">
          1 callsubr
          -20 callgsubr
          323 203 169 463 -61 209 hintmask 11010100
          -101 callsubr
          hintmask 00101000
          641 1277 -89 callsubr
        </CharString>
        <CharString name="nbspace">
          -988 endchar
        </CharString>
        <CharString name="ncaron">
          1 callsubr
          -21 callsubr
          323 203 -25 710 -114 209 hintmask 11010100
          -101 callsubr
          hintmask 00101000
          577 1282 -83 callgsubr
        </CharString>
        <CharString name="ncommaaccent">
          77 -25 callsubr
          83 1039 86 hstemhm
          323 203 150 299 122 209 hintmask 01110100
          -101 callsubr
          hintmask 10001000
          524 -322 -98 callsubr
        </CharString>
        <CharString name="nine">
          -100 277 122 855 101 hstem
          137 226 652 228 vstem
          303 -306 rmoveto
          30 -101 rlineto
          575 82 335 555 496 vvcurveto
          376 -237 253 -321 -334 -214 -237 -332 -207 151 -302 351 126 122 55 73 88 vhcurveto
          -92 -359 -244 -288 -336 -64 rrcurveto
          389 705 rmoveto
          -258 -71 251 170 195 66 239 250 335 1 -422 -124 -47 -2 -37 -6 -37 hvcurveto
          -104 -52 -131 -84 -132 hhcurveto
          endchar
        </CharString>
        <CharString name="notequal">
          -7 callsubr
          364 380 rmoveto
          97 -61 127 206 rlineto
          583 -30 callgsubr
          -521 hlineto
          175 285 rlineto
          305 -30 callgsubr
          -243 hlineto
          95 154 -96 61 -133 -215 rlineto
          -647 hlineto
          -40 -167 rlineto
          584 hlineto
          -176 -285 rlineto
          -368 hlineto
          -40 -167 rlineto
          305 hlineto
          endchar
        </CharString>
        <CharString name="ntilde">
          1 callsubr
          196 2 callgsubr
          323 203 -73 118 526 209 -177 118 hintmask 11001010
          -101 callsubr
          hintmask 00000000
          306 1356 -84 callgsubr
          hintmask 00100101
          -70 callsubr
          hintmask 00010101
          -57 callsubr
        </CharString>
        <CharString name="numbersign">
          78 8 -21 35 -21 392 167 380 167 hstemhm
          158 1223 hintmask 00000000
          hintmask 01111000
          371 1 rmoveto
          168 -14 34 406 rlineto
          342 hlineto
          -34 -392 169 -14 34 406 rlineto
          222 -30 callgsubr
          -249 hlineto
          33 380 rlineto
          209 -30 callgsubr
          -236 8 callsubr
          -341 8 callsubr
          hintmask 10111000
          -243 hlineto
          -39 -167 rlineto
          268 hlineto
          hintmask 01111000
          -32 -380 rlineto
          hintmask 10111000
          -220 hlineto
          -40 -167 rlineto
          246 hlineto
          183 167 rmoveto
          33 380 rlineto
          341 hlineto
          -32 -380 rlineto
          endchar
        </CharString>
        <CharString name="o">
          -97 -24 -62 callgsubr
          hstem
          -18 callsubr
          667 225 vstem
          -103 callsubr
          endchar
        </CharString>
        <CharString name="oacute">
          -97 -24 -62 callgsubr
          16 callgsubr
          -18 callsubr
          177 463 27 225 hintmask 11010100
          -103 callsubr
          hintmask 00101000
          -58 1272 -89 callsubr
        </CharString>
        <CharString name="obreve">
          -97 -24 -62 callgsubr
          260 161 hstemhm
          -18 callsubr
          -17 699 -15 225 hintmask 11010100
          -103 callsubr
          hintmask 00101000
          -5 1401 -94 callsubr
        </CharString>
        <CharString name="ocircumflex">
          -97 -24 -62 callgsubr
          15 callgsubr
          -18 callsubr
          -23 710 -20 225 hintmask 11010100
          -103 callsubr
          hintmask 00101000
          -271 1277 -96 callsubr
          endchar
        </CharString>
        <CharString name="odieresis">
          -97 -24 -62 callgsubr
          204 -22 callgsubr
          -18 callsubr
          -84 832 -81 225 hintmask 11010100
          -103 callsubr
          hintmask 00101000
          236 1345 rmoveto
          179 180 -95 callgsubr
          -287 -180 rmoveto
          179 180 -95 callgsubr
          endchar
        </CharString>
        <CharString name="oe">
          755 -24 111 -107 130 409 107 494 108 hstemhm
          133 228 667 263 540 205 hintmask 00000000
          hintmask 01111110
          133 609 rmoveto
          -313 185 -320 374 226 156 116 164 86 vhcurveto
          -170 89 164 -106 219 hhcurveto
          187 134 58 10 callgsubr
          -23 -125 hhcurveto
          -244 -107 192 217 -19 hvcurveto
          552 4 190 219 200 vvcurveto
          169 -138 117 -258 vhcurveto
          hintmask 10111110
          -210 -168 -110 -177 -94 hvcurveto
          167 -85 -158 120 -233 hhcurveto
          hintmask 01111110
          -370 -189 -301 -318 hvcurveto
          hintmask 10111110
          1158 17 rmoveto
          235 5 105 260 218 hhcurveto
          163 49 -101 -76 -238 -284 -74 -256 -6 hvcurveto
          -597 -539 rmoveto
          -271 -62 281 241 241 64 270 269 269 65 -259 -252 -244 -65 -278 -269 hvcurveto
          endchar
        </CharString>
        <CharString name="ogonek">
          -442 -14 callsubr
          hstem
          248 204 vstem
          248 -362 rmoveto
          -133 94 -73 150 -54 callgsubr
          -75 -44 45 80 109 127 149 176 75 hvcurveto
          -26 63 rlineto
          -140 -51 -341 -159 -229 vvcurveto
          endchar
        </CharString>
        <CharString name="ograve">
          -97 -24 -62 callgsubr
          121 -5 callsubr
          -18 callsubr
          32 454 181 225 hintmask 11010100
          -103 callsubr
          hintmask 00101000
          64 1262 -73 callsubr
        </CharString>
        <CharString name="ohungarumlaut">
          -97 -24 -62 callgsubr
          16 callgsubr
          -18 callsubr
          -26 856 -163 225 hintmask 11010100
          -103 callsubr
          hintmask 00101000
          184 1272 -65 callgsubr
        </CharString>
        <CharString name="omacron">
          -97 -24 -62 callgsubr
          335 157 hstemhm
          -18 callsubr
          -2 669 0 225 hintmask 11010100
          -103 callsubr
          hintmask 00101000
          -335 1488 -63 callgsubr
        </CharString>
        <CharString name="one">
          -436 0 100 1128 99 hstem
          411 200 vstem
          137 hmoveto
          751 100 hlineto
          -177 6 -100 12 109 vvcurveto
          1100 -474 -99 vlineto
          239 35 -14 -138 hvcurveto
          -849 vlineto
          -110 -99 -10 -175 -7 vhcurveto
          endchar
        </CharString>
        <CharString name="onehalf">
          1188 -354 2324 -1968 172 603 81 92 138 700 84 hstemhm
          412 200 69 917 520 213 hintmask 10000010
          681 -354 3 callsubr
          hintmask 00101100
          -1287 -1193 -70 callgsubr
          hintmask 01010001
          1312 -855 -81 callsubr
        </CharString>
        <CharString name="onequarter">
          1233 203 144 430 81 930 84 hstemhm
          413 200 1378 180 -160 129 hintmask 00000000
          hintmask 10000100
          720 -352 3 callsubr
          -140 -1695 11 callgsubr
          116 hlineto
          13 395 rlineto
          hintmask 10001000
          122 hlineto
          38 12 callsubr
          -89 hlineto
          -149 -56 -61 -63 -151 hhcurveto
          -22 hlineto
          38 1102 rlineto
          -627 -1102 rmoveto
          419 554 18 -554 rlineto
          hintmask 01110000
          -1839 430 -70 callgsubr
          endchar
        </CharString>
        <CharString name="onesuperior">
          -477 776 81 930 84 hstem
          390 200 vstem
          138 776 -70 callgsubr
          endchar
        </CharString>
        <CharString name="ordfeminine">
          -272 241 -21 553 102 -84 101 361 100 266 100 hstemhm
          162 205 -131 169 42 360 -81 186 hintmask 0000000000000000
          hintmask 0101101010000000
          515 773 rmoveto
          55 56 4 5 51 hvcurveto
          4 51 50 5 50 hhcurveto
          199 101 hlineto
          -101 9 -14 5 95 vvcurveto
          470 vlineto
          155 -97 93 -221 -213 -145 -81 -113 vhcurveto
          hintmask 0101110010000000
          -75 83 -47 56 -13 vhcurveto
          65 47 rlineto
          -18 22 -17 30 23 vvcurveto
          hintmask 0011101010000000
          65 67 42 93 108 53 -48 -85 vhcurveto
          -133 vlineto
          -413 -14 -151 -188 -123 vvcurveto
          hintmask 0101110010000000
          -129 102 -126 251 vhcurveto
          57 102 rmoveto
          -124 -81 75 78 157 173 55 186 13 hvcurveto
          -240 vlineto
          -107 -20 -31 -134 vhcurveto
          hintmask 1000000100000000
          -125 -474 -85 callgsubr
          endchar
        </CharString>
        <CharString name="ordmasculine">
          -272 241 -21 552 102 745 100 hstemhm
          151 203 56 360 67 201 hintmask 01110100
          594 772 rmoveto
          294 150 233 240 236 -150 238 -294 -294 -149 -238 -236 -233 147 -240 296 hvcurveto
          2 102 rmoveto
          -198 -44 201 170 171 46 203 196 194 47 -196 -178 -172 -47 -199 -194 hvcurveto
          hintmask 10001000
          -186 -473 -85 callgsubr
          endchar
        </CharString>
        <CharString name="oslash">
          -97 -24 -62 callgsubr
          hstem
          -18 callsubr
          667 225 vstem
          171 -74 rmoveto
          97 -61 124 190 rlineto
          -50 79 96 -29 113 hhcurveto
          371 190 312 321 178 -60 173 -118 117 hvcurveto
          152 231 -96 61 -145 -221 rlineto
          50 -80 -98 30 -116 hhcurveto
          -370 -189 -301 -318 -179 60 -181 122 -122 hvcurveto
          100 153 rmoveto
          -41 97 -13 120 112 vvcurveto
          241 64 270 269 96 70 -33 -54 50 vhcurveto
          -428 -859 rmoveto
          495 753 rlineto
          38 -92 13 -114 -112 vvcurveto
          -244 -65 -278 -269 -94 -68 33 54 -50 vhcurveto
          endchar
        </CharString>
        <CharString name="otilde">
          -97 -24 -62 callgsubr
          176 2 callgsubr
          -18 callsubr
          -65 118 558 118 -62 225 hintmask 11001001
          -103 callsubr
          hintmask 00000000
          -393 1351 -84 callgsubr
          hintmask 00100110
          -70 callsubr
          hintmask 00010110
          -57 callsubr
        </CharString>
        <CharString name="p">
          4 callsubr
          hstemhm
          239 204 605 226 hintmask 00000000
          hintmask 11101100
          -58 callsubr
          hintmask 11011100
          -28 callgsubr
          hintmask 11101100
          -55 callsubr
          endchar
        </CharString>
        <CharString name="paragraph">
          242 -544 -21 915 115 1114 131 -113 83 hstemhm
          82 335 441 128 179 160 -142 169 hintmask 00000000
          hintmask 11010110
          846 350 rmoveto
          25 -915 rlineto
          116 hlineto
          hintmask 11010101
          10 679 14 787 11 678 rrcurveto
          126 hlineto
          35 -2144 rlineto
          117 hlineto
          52 1998 2 125 15 25 157 14 rlinecurve
          83 -235 vlineto
          hintmask 11101110
          -43 -57 6 6 -61 hvcurveto
          8 -80 -96 10 -95 hhcurveto
          -536 -241 -319 -373 -366 252 -324 512 22 hvcurveto
          -3 115 rmoveto
          -279 2 -147 204 331 vvcurveto
          295 88 260 309 21 vhcurveto
          endchar
        </CharString>
        <CharString name="parenleft">
          -439 -350 2222 hstem
          200 215 vstem
          200 793 rmoveto
          -646 360 -352 194 -145 vhcurveto
          58 59 rlineto
          -365 303 -32 523 274 vvcurveto
          275 35 417 362 311 vhcurveto
          -58 60 rlineto
          -194 -121 -360 -352 -606 vvcurveto
          endchar
        </CharString>
        <CharString name="parenright">
          -439 -350 2222 hstem
          607 215 vstem
          822 793 rmoveto
          606 -360 352 -194 121 vhcurveto
          -58 -60 rlineto
          362 -311 35 -417 -275 vvcurveto
          -274 -32 -523 -365 -303 vhcurveto
          58 -59 rlineto
          194 145 360 352 646 vvcurveto
          endchar
        </CharString>
        <CharString name="partialdiff">
          -97 -26 99 847 132 371 130 hstem
          172 226 607 236 vstem
          172 525 rmoveto
          -332 193 -219 311 374 191 400 399 407 -204 373 -378 -182 -144 -91 -146 -74 vhcurveto
          66 -48 rlineto
          108 79 94 47 129 hhcurveto
          246 110 -316 -274 20 hvcurveto
          161 -80 -190 58 -99 hhcurveto
          -323 -139 -320 -207 hvcurveto
          226 -44 rmoveto
          170 53 269 227 96 165 -69 -155 66 vhcurveto
          -325 -6 -79 -298 -250 hhcurveto
          -219 -53 212 196 hvcurveto
          endchar
        </CharString>
        <CharString name="percent">
          760 -55 96 634 96 633 95 hstem
          207 197 417 193 193 197 -81 callgsubr
          -9 callgsubr
          -266 -138 -208 -206 vhcurveto
          197 -64 callgsubr
          endchar
        </CharString>
        <CharString name="period">
          -949 -37 -21 hstem
          75 360 vstem
          75 123 -85 callgsubr
          endchar
        </CharString>
        <CharString name="periodcentered">
          -949 509 360 hstem
          75 360 vstem
          257 509 -33 callgsubr
          endchar
        </CharString>
        <CharString name="perthousand">
          1442 -55 96 634 96 633 95 hstem
          207 197 417 193 193 197 417 248 -81 callgsubr
          155 112 69 99 66 vhcurveto
          -98 66 111 -70 155 hhcurveto
          -9 callgsubr
          -155 -112 -71 -99 -66 hvcurveto
          99 -66 -111 71 -155 hhcurveto
          -266 -138 -208 -206 hvcurveto
          862 -64 callgsubr
          -665 -64 callgsubr
          endchar
        </CharString>
        <CharString name="pi">
          240 0 85 998 125 -86 86 hstemhm
          366 202 566 202 hintmask 00000000
          hintmask 11011000
          193 -9 callsubr
          817 566 vlineto
          hintmask 10111000
          -817 vlineto
          hintmask 11011000
          -156 -87 callgsubr
          hintmask 10111000
          14 callsubr
          -39 6 rlineto
          -118 19 -15 3 155 vvcurveto
          678 -50 callgsubr
          21 -55 callgsubr
          86 -1315 -86 vlineto
          hintmask 11011000
          152 -12 21 -10 -156 vvcurveto
          -678 -2 callgsubr
        </CharString>
        <CharString name="plus">
          -101 -11 callsubr
          616 169 vstem
          616 278 rmoveto
          169 475 435 hlineto
          40 166 rlineto
          -475 477 -169 -477 -477 hlineto
          -40 -166 rlineto
          517 hlineto
          endchar
        </CharString>
        <CharString name="plusminus">
          -101 282 167 478 167 hstem
          616 169 vstem
          616 611 rmoveto
          169 316 435 -30 callgsubr
          -476 368 -169 -368 -477 hlineto
          -40 -167 rlineto
          517 hlineto
          -517 -645 rmoveto
          1121 -30 callgsubr
          -1122 hlineto
          endchar
        </CharString>
        <CharString name="product">
          239 0 85 1320 125 hstem
          330 202 636 202 vstem
          157 -9 callsubr
          1139 636 -1139 vlineto
          -156 -87 callgsubr
          14 callsubr
          -39 6 rlineto
          -118 19 -15 3 155 vvcurveto
          1000 -50 callgsubr
          21 -55 callgsubr
          86 -1385 -86 vlineto
          -68 callsubr
          -1000 -2 callgsubr
        </CharString>
        <CharString name="q">
          -97 -566 85 456 118 1028 108 hstem
          128 228 631 203 vstem
          128 615 rmoveto
          -317 180 -323 358 149 110 60 81 61 vhcurveto
          1 -454 rlineto
          -118 -25 -12 -145 -13 vhcurveto
          -2 -1 rlineto
          -84 547 85 vlineto
          -152 14 -20 18 100 vvcurveto
          1062 vlineto
          290 -170 226 -333 -371 -188 -297 -317 vhcurveto
          550 -522 rmoveto
          -263 -59 275 244 245 64 264 269 235 62 -222 -222 hvcurveto
          -299 vlineto
          -202 -178 -83 -130 vhcurveto
          endchar
        </CharString>
        <CharString name="question">
          -266 -37 -21 1637 108 hstem
          842 239 vstem
          541 428 rmoveto
          96 hlineto
          23 290 rlineto
          254 54 167 216 258 vvcurveto
          295 -224 146 -269 vhcurveto
          -69 -63 -11 -64 hhcurveto
          -36 -36 31 49 -2 hvcurveto
          -115 hlineto
          -121 -501 rlineto
          113 hlineto
          262 88 95 62 187 hhcurveto
          172 105 -151 -201 -179 -46 -197 -232 -36 hvcurveto
          -63 hlineto
          -94 -692 -85 callgsubr
          endchar
        </CharString>
        <CharString name="questiondown">
          -266 13 108 1616 21 hstem
          114 239 vstem
          654 1272 rmoveto
          -96 hlineto
          -23 -290 rlineto
          -254 -54 -167 -216 -258 vvcurveto
          -295 224 -146 269 vhcurveto
          69 63 11 64 hhcurveto
          36 36 -31 -49 2 hvcurveto
          115 hlineto
          121 501 rlineto
          -113 hlineto
          -262 -88 -95 -62 -187 hhcurveto
          -172 -105 151 201 179 46 197 232 36 hvcurveto
          63 hlineto
          94 692 rmoveto
          -182 181 -178 -181 178 -179 rlineto
          endchar
        </CharString>
        <CharString name="quotedbl">
          -436 895 811 hstem
          231 97 388 97 vstem
          716 895 rmoveto
          97 hlineto
          0 2 437 127 195 vhcurveto
          -95 callgsubr
          134 -195 2 -437 0 vvcurveto
          -485 hmoveto
          97 hlineto
          0 2 437 127 195 vhcurveto
          -95 callgsubr
          134 -195 2 -437 0 vvcurveto
          endchar
        </CharString>
        <CharString name="quotedblbase">
          -442 -503 805 hstemhm
          80 360 125 360 hintmask 11000000
          80 123 rmoveto
          89 -87 40 -57 -97 vvcurveto
          -96 -40 -137 -69 -99 vhcurveto
          77 -53 187 211 87 282 -12 133 rlinecurve
          -60 callgsubr
          rlineto
          hintmask 10100000
          304 -179 rmoveto
          89 -87 40 -57 -97 vvcurveto
          -96 -40 -137 -69 -99 vhcurveto
          77 -53 187 211 87 282 -12 133 rlinecurve
          -60 callgsubr
          rlineto
          endchar
        </CharString>
        <CharString name="quotedblleft">
          -436 901 804 hstemhm
          95 359 128 359 hintmask 11000000
          274 901 -66 callsubr
          hintmask 10100000
          666 -178 -66 callsubr
          endchar
        </CharString>
        <CharString name="quotedblright">
          -436 905 805 hstemhm
          80 360 125 360 hintmask 11000000
          80 1531 rmoveto
          89 -87 40 -57 -97 vvcurveto
          -96 -40 -137 -69 -99 vhcurveto
          77 -53 187 211 87 282 -12 133 rlinecurve
          -60 callgsubr
          rlineto
          hintmask 10100000
          304 -179 rmoveto
          89 -87 40 -57 -97 vvcurveto
          -96 -40 -137 -69 -99 vhcurveto
          77 -53 187 211 87 282 -12 133 rlinecurve
          -60 callgsubr
          rlineto
          endchar
        </CharString>
        <CharString name="quoteleft">
          -949 901 804 hstem
          95 359 vstem
          274 901 -66 callsubr
          endchar
        </CharString>
        <CharString name="quoteright">
          -949 905 805 hstem
          80 360 vstem
          80 1531 rmoveto
          89 -87 40 -57 -97 vvcurveto
          -96 -40 -137 -69 -99 vhcurveto
          77 -53 187 211 87 282 -12 133 rlinecurve
          -60 callgsubr
          rlineto
          endchar
        </CharString>
        <CharString name="quotesinglbase">
          -949 -503 805 hstem
          78 360 vstem
          78 123 rmoveto
          89 -87 40 -57 -97 vvcurveto
          -96 -40 -137 -69 -99 vhcurveto
          77 -53 187 211 87 282 -12 133 rlinecurve
          -60 callgsubr
          rlineto
          endchar
        </CharString>
        <CharString name="quotesingle">
          -949 895 811 hstem
          231 97 vstem
          231 895 rmoveto
          97 hlineto
          0 6 441 126 191 vhcurveto
          -182 179 -186 -179 rlineto
          134 -192 5 -440 0 vvcurveto
          endchar
        </CharString>
        <CharString name="r">
          -16 callgsubr
          hstemhm
          318 -1 callgsubr
          hintmask 11011000
          -91 callsubr
          hintmask 10111000
          -67 callgsubr
          hintmask 11011000
          -2 -1 rlineto
          endchar
        </CharString>
        <CharString name="racute">
          -16 callgsubr
          -20 callgsubr
          318 203 -58 463 -33 203 hintmask 00000000
          hintmask 11001010
          -91 callsubr
          hintmask 10101010
          -67 callgsubr
          hintmask 11001010
          -2 -1 rlineto
          hintmask 00010100
          421 1277 -89 callsubr
        </CharString>
        <CharString name="radical">
          249 21 -21 708 126 hstem
          127 1462 vstem
          691 hmoveto
          120 hlineto
          778 1683 -151 70 -125 -270 -438 -990 -124 -270 rlinecurve
          -284 611 rlineto
          -340 -126 217 hlineto
          endchar
        </CharString>
        <CharString name="rcaron">
          -16 callgsubr
          -21 callsubr
          269 710 -661 -1 callgsubr
          hintmask 11000110
          -91 callsubr
          hintmask 10100110
          -67 callgsubr
          hintmask 11000110
          -2 -1 rlineto
          hintmask 00011000
          357 1282 -83 callgsubr
        </CharString>
        <CharString name="rcommaaccent">
          -266 -25 callsubr
          83 1036 109 -105 85 hstemhm
          274 299 -255 -1 callgsubr
          hintmask 01100110
          -91 callsubr
          hintmask 01010110
          -67 callgsubr
          hintmask 01100110
          -2 -1 rlineto
          hintmask 10001000
          134 -322 -98 callsubr
        </CharString>
        <CharString name="registered">
          409 -145 90 259 45 383 79 373 80 243 93 hstem
          74 109 426 174 307 183 321 -72 callsubr
          302 -471 rmoveto
          416 49 hlineto
          -96 12 -22 16 89 vvcurveto
          266 vlineto
          10 8 -1 -1 6 hvcurveto
          -1 5 70 -1 7 hhcurveto
          416 -491 58 46 -299 466 rlineto
          129 36 80 76 141 vvcurveto
          190 -159 68 -189 vhcurveto
          -440 -49 hlineto
          90 -14 34 -17 -88 vvcurveto
          -609 vlineto
          -97 -29 -25 -93 -15 vhcurveto
          -2 -1 rlineto
          298 462 rmoveto
          337 vlineto
          30 53 6 58 117 79 -54 -124 -182 -119 -13 -188 vhcurveto
          endchar
        </CharString>
        <CharString name="ring">
          -441 1360 99 307 106 hstem
          221 124 329 124 vstem
          509 1360 -79 callsubr
        </CharString>
        <CharString name="ring.cap">
          -780 1480 117 250 124 hstem
          67 136 275 136 vstem
          341 1480 -79 callgsubr
        </CharString>
        <CharString name="s">
          -271 -24 -4 callgsubr
          439 177 -120 201 hintmask 00000000
          hintmask 11010100
          164 251 rmoveto
          -170 -5 239 -105 226 hhcurveto
          245 237 128 222 174 -175 83 -192 93 hvcurveto
          hintmask 11100100
          -19 9 -25 12 -19 8 rrcurveto
          -140 65 -127 62 105 vvcurveto
          106 78 78 148 133 80 -55 -73 -42 -23 -35 -15 -22 vhcurveto
          57 -41 rlineto
          65 14 93 62 83 vvcurveto
          123 -151 93 -208 vhcurveto
          hintmask 11011000
          -262 -190 -116 -198 -169 161 -101 196 -93 hvcurveto
          9 -3 14 -6 9 -4 rrcurveto
          168 -70 134 -58 -117 vvcurveto
          -125 -100 -81 -175 -167 -102 100 84 59 12 34 26 33 vhcurveto
          -44 51 rlineto
          hintmask 11010100
          -92 -22 -96 -74 -3 -101 rrcurveto
          endchar
        </CharString>
        <CharString name="sacute">
          -32 callsubr
          131 521 -53 callgsubr
          88 463 -112 -100 callsubr
          431 1108 -89 callsubr
        </CharString>
        <CharString name="scaron">
          -32 callsubr
          136 495 -53 callgsubr
          -106 710 -165 -100 callsubr
          367 1113 -83 callgsubr
        </CharString>
        <CharString name="scedilla">
          -271 -24 callsubr
          -26 -4 callgsubr
          274 207 -42 177 -120 201 hintmask 1101101010000000
          164 251 rmoveto
          -5 -152 190 -100 202 -19 -78 -200 rcurveline
          -46 callsubr
          105 rlineto
          228 15 209 125 208 vvcurveto
          174 -175 83 -192 93 vhcurveto
          -19 9 -25 12 -19 8 rrcurveto
          hintmask 1011010100000000
          -140 65 -127 62 105 vvcurveto
          106 78 78 148 133 80 -55 -73 -42 -23 -35 -15 -22 vhcurveto
          57 -41 rlineto
          65 14 93 62 83 vvcurveto
          123 -151 93 -208 -262 -190 -116 -198 -169 161 -101 196 -93 vhcurveto
          9 -3 14 -6 9 -4 rrcurveto
          hintmask 1011101010000000
          168 -70 134 -58 -117 vvcurveto
          -125 -100 -81 -175 -167 -102 100 84 59 12 34 26 33 vhcurveto
          -44 51 -92 -22 -96 -74 -3 -101 rlinecurve
          endchar
        </CharString>
        <CharString name="scircumflex">
          -32 callsubr
          136 495 -53 callgsubr
          -112 710 -159 -100 callsubr
          218 1113 -96 callsubr
          endchar
        </CharString>
        <CharString name="scommaaccent">
          -271 -567 -21 564 -4 callgsubr
          62 299 78 177 -120 201 hintmask 00000000
          hintmask 01101001
          164 251 rmoveto
          -170 -5 239 -105 226 hhcurveto
          245 237 128 222 174 -175 83 -192 93 hvcurveto
          hintmask 01110001
          -19 9 -25 12 -19 8 rrcurveto
          -140 65 -127 62 105 vvcurveto
          106 78 78 148 133 80 -55 -73 -42 -23 -35 -15 -22 vhcurveto
          57 -41 rlineto
          65 14 93 62 83 vvcurveto
          123 -151 93 -208 vhcurveto
          hintmask 01101010
          -262 -190 -116 -198 -169 161 -101 196 -93 hvcurveto
          9 -3 14 -6 9 -4 rrcurveto
          168 -70 134 -58 -117 vvcurveto
          -125 -100 -81 -175 -167 -102 100 84 59 12 34 26 33 vhcurveto
          -44 51 rlineto
          hintmask 01101001
          -92 -22 -96 -74 -3 -101 rrcurveto
          hintmask 10000100
          307 -491 -98 callsubr
        </CharString>
        <CharString name="section">
          -272 -356 79 594 89 523 88 607 83 hstemhm
          160 166 -150 185 -164 184 420 187 -165 184 -133 168 hintmask 0000000000000000
          hintmask 1111010010000000
          176 -63 rmoveto
          hintmask 1111100010000000
          -192 196 -101 215 229 191 108 194 153 -141 80 -101 97 vhcurveto
          hintmask 1111010010000000
          -46 44 rlineto
          -3 11 12 0 12 hhcurveto
          173 115 133 176 157 -126 134 -130 109 hvcurveto
          -194 162 rlineto
          -90 73 -121 74 122 vvcurveto
          hintmask 1111001001000000
          95 84 72 117 138 81 -81 -111 -53 -33 -57 -35 -34 vhcurveto
          90 -28 rlineto
          73 32 92 59 96 vvcurveto
          hintmask 1111001100000000
          149 -165 111 -214 -240 -172 -123 -181 -185 146 -73 153 -132 vhcurveto
          0 -23 4 -12 -167 -134 -132 -174 -153 120 -145 120 -100 vhcurveto
          60 -51 rlineto
          hintmask 1111010010000000
          -130 -89 -154 -84 -152 vvcurveto
          hintmask 1111100001000000
          295 596 rmoveto
          -93 81 -52 67 99 vvcurveto
          85 67 64 81 66 88 -42 -89 99 vhcurveto
          91 -88 56 -89 -60 vvcurveto
          -89 -65 -66 -86 -86 -75 46 81 -91 vhcurveto
          hintmask 1111010010000000
          -110 -572 rmoveto
          84 91 113 78 53 vhcurveto
          14 -11 14 -10 16 -11 rrcurveto
          98 -70 151 -85 -125 vvcurveto
          -112 -88 -64 -137 -170 -67 102 136 vhcurveto
          endchar
        </CharString>
        <CharString name="semicolon">
          -949 -503 805 548 -21 hstemhm
          73 360 -357 360 hintmask 01010000
          76 1010 -85 callgsubr
          hintmask 10100000
          -185 -1066 rmoveto
          89 -87 40 -57 -97 vvcurveto
          -96 -40 -137 -69 -99 vhcurveto
          77 -53 187 211 87 282 -12 133 rlinecurve
          -60 callgsubr
          rlineto
          endchar
        </CharString>
        <CharString name="seven">
          -262 1170 172 hstem
          56 1051 vstem
          389 -472 rmoveto
          104 -25 614 1788 -37 51 rlineto
          -902 hlineto
          -112 -372 rlineto
          99 hlineto
          120 53 31 80 139 hhcurveto
          456 hlineto
          endchar
        </CharString>
        <CharString name="six">
          -97 -26 99 847 132 hstem
          137 228 652 226 vstem
          137 623 rmoveto
          -376 242 -273 320 335 209 247 332 207 -151 292 -351 -126 -142 -55 -83 -68 vhcurveto
          92 360 243 300 337 66 -30 96 rcurveline
          -575 -82 -335 -535 -496 vvcurveto
          568 -550 rmoveto
          -314 -26 386 162 44 2 22 4 38 hvcurveto
          5 2 7 5 vvcurveto
          109 53 140 69 131 hhcurveto
          259 61 -241 -170 -196 -61 -240 -251 hvcurveto
          endchar
        </CharString>
        <CharString name="slash">
          -613 -9 -21 hstem
          69 710 vstem
          69 -30 rmoveto
          154 hlineto
          556 1688 rlineto
          -152 hlineto
          endchar
        </CharString>
        <CharString name="space">
          -780 endchar
        </CharString>
        <CharString name="sterling">
          68 0 110 549 113 680 108 hstemhm
          406 216 -177 220 hintmask 00000000
          hintmask 11101000
          127 hmoveto
          hintmask 11110000
          1234 hlineto
          63 437 rlineto
          -101 hlineto
          -316 -81 -107 -11 -287 hhcurveto
          -155 -65 4 71 hvcurveto
          52 37 62 251 vvcurveto
          38 -1 36 -2 35 vhcurveto
          381 hlineto
          27 113 rlineto
          -416 hlineto
          -12 138 -20 117 126 vvcurveto
          132 39 167 208 206 40 -182 -146 -24 -2 -51 -3 -18 vhcurveto
          hintmask 11101000
          106 hlineto
          120 529 rlineto
          -103 hlineto
          -40 -19 -35 -25 -37 -48 -86 65 -129 hhcurveto
          -293 -180 -213 -302 -94 12 -90 10 -89 hvcurveto
          -197 hlineto
          -26 -113 rlineto
          235 hlineto
          3 -36 2 -37 -36 vvcurveto
          -295 -44 -125 -274 -47 vhcurveto
          endchar
        </CharString>
        <CharString name="summation">
          -97 0 173 1245 112 hstem
          134 1187 vstem
          134 78 rmoveto
          47 -78 rlineto
          1034 hlineto
          89 383 rlineto
          -88 hlineto
          -151 -58 -63 -59 -160 hhcurveto
          -566 hlineto
          401 613 -366 632 rlineto
          493 hlineto
          183 62 -25 -122 -45 -8 -55 -13 -71 hvcurveto
          95 hlineto
          105 430 rlineto
          -1120 hlineto
          -47 -78 412 -704 rlineto
          endchar
        </CharString>
        <CharString name="t">
          -605 0 93 993 122 hstem
          292 201 vstem
          159 -82 callgsubr
          endchar
        </CharString>
        <CharString name="tbar">
          -605 0 93 615 125 253 122 hstem
          292 201 vstem
          159 hmoveto
          636 93 hlineto
          -32 callgsubr
          429 360 125 -360 253 362 122 -362 360 vlineto
          -145 -60 -11 -130 -35 -139 -14 -18 rlinecurve
          1 hlineto
          -20 -22 -148 -21 0 vvcurveto
          -92 171 -253 -171 -125 171 -432 vlineto
          -169 -12 2 -121 -26 vhcurveto
          endchar
        </CharString>
        <CharString name="tcaron">
          -97 0 93 812 805 -624 122 hstemhm
          377 201 414 360 hintmask 10110000
          244 -82 callgsubr
          hintmask 01001000
          748 1448 rmoveto
          89 -87 40 -57 -97 vvcurveto
          -96 -40 -137 -69 -99 vhcurveto
          77 -53 187 211 87 282 -12 133 rlinecurve
          -60 callgsubr
          rlineto
          endchar
        </CharString>
        <CharString name="tcommaaccent">
          -605 -25 callsubr
          93 993 122 hstemhm
          292 201 -156 299 hintmask 01110000
          159 -82 callgsubr
          hintmask 10001000
          178 -323 -98 callsubr
        </CharString>
        <CharString name="thorn">
          -93 -566 83 453 116 -72 -21 1135 117 382 83 hstemhm
          273 205 622 225 hintmask 00000000
          hintmask 11011110
          273 hmoveto
          -330 vlineto
          -138 -34 -3 -126 -12 vhcurveto
          -2 -1 rlineto
          -82 560 83 vlineto
          -151 14 -43 -1 140 vvcurveto
          323 vlineto
          20 -2 22 -2 21 -3 rrcurveto
          -75 callsubr
          -549 -83 vlineto
          hintmask 10111110
          0 callsubr
          hintmask 11011110
          204 -1182 rmoveto
          556 vlineto
          -52 callgsubr
          -242 -48 97 110 vhcurveto
          endchar
        </CharString>
        <CharString name="three">
          -266 1153 174 hstem
          220 97 581 196 vstem
          220 -403 rmoveto
          43 -86 rlineto
          298 78 533 241 481 vvcurveto
          259 -213 118 -187 31 vhcurveto
          180 134 154 189 285 vvcurveto
          -648 hlineto
          -46 -24 22 58 7 hvcurveto
          -96 hlineto
          -133 -465 rlineto
          100 hlineto
          124 52 39 87 120 hhcurveto
          445 hlineto
          -39 -196 -169 -233 -292 -108 52 -82 rcurveline
          29 12 32 16 32 16 rrcurveto
          268 7 141 -182 -162 vvcurveto
          -365 -495 -235 -183 -44 vhcurveto
          endchar
        </CharString>
        <CharString name="threequarters">
          1404 203 144 288 113 919 175 hstemhm
          899 197 1066 180 -160 128 hintmask 00000000
          hintmask 10000100
          888 -354 rmoveto
          153 hlineto
          764 2324 rlineto
          -152 hlineto
          -136 -1693 11 callgsubr
          115 hlineto
          14 395 rlineto
          hintmask 10001000
          123 hlineto
          37 12 callsubr
          -88 hlineto
          -149 -57 -61 -63 -152 hhcurveto
          -21 hlineto
          39 1102 rlineto
          -629 -1102 rmoveto
          420 554 18 -554 rlineto
          hintmask 01110000
          -1991 418 -82 callsubr
        </CharString>
        <CharString name="threesuperior">
          -276 634 113 919 175 hstem
          889 197 vstem
          170 764 -82 callsubr
        </CharString>
        <CharString name="tilde">
          -266 1404 2 callgsubr
          200 118 558 118 hintmask 00000000
          hintmask 10110000
          205 1438 -84 callgsubr
          hintmask 01110000
          -70 callsubr
          hintmask 10110000
          -57 callsubr
        </CharString>
        <CharString name="tilde.cap">
          -445 1702 -15 callgsubr
          156 704 hintmask 00000000
          hintmask 10100000
          156 1716 -78 callgsubr
          hintmask 01100000
          -86 callgsubr
          hintmask 10100000
          -53 callsubr
        </CharString>
        <CharString name="trademark">
          754 820 87 682 87 hstem
          514 151 vstem
          980 820 rmoveto
          313 87 hlineto
          -63 8 -49 9 5 44 96 450 rcurveline
          222 -622 rlineto
          48 hlineto
          219 622 83 -452 6 -37 -10 -14 -74 -9 rlinecurve
          -86 319 87 vlineto
          -65 6 -16 5 -9 57 -169 741 rcurveline
          -42 hlineto
          -239 -656 -245 656 rlineto
          -58 hlineto
          -182 -756 -7 -47 -40 -2 -43 -4 rlinecurve
          -590 -87 rmoveto
          400 87 hlineto
          -116 14 -9 1 50 vvcurveto
          617 105 vlineto
          73 22 -52 -48 -22 -3 -23 -6 -26 hvcurveto
          88 hlineto
          62 258 rlineto
          -761 hlineto
          -67 -258 rlineto
          91 hlineto
          102 44 24 69 77 hhcurveto
          100 -617 hlineto
          -49 -16 -7 -108 -9 vhcurveto
          endchar
        </CharString>
        <CharString name="two">
          -97 0 173 1010 168 hstem
          898 214 vstem
          158 41 rmoveto
          23 -41 rlineto
          846 hlineto
          42 32 -29 -49 9 hvcurveto
          98 hlineto
          106 461 rlineto
          -98 hlineto
          -151 -58 -63 -59 -160 hhcurveto
          -466 hlineto
          488 377 155 162 236 vvcurveto
          247 -211 156 -223 -58 -69 -14 -10 -47 vhcurveto
          -5 -24 -21 -5 -10 hhcurveto
          -35 -30 12 68 4 hvcurveto
          -111 hlineto
          -125 -501 rlineto
          98 hlineto
          188 78 111 99 175 hhcurveto
          218 66 -136 -138 -254 -342 -279 -398 -335 hvcurveto
          endchar
        </CharString>
        <CharString name="twosuperior">
          -225 780 172 776 138 hstem
          798 213 vstem
          152 780 -81 callsubr
        </CharString>
        <CharString name="u">
          -56 callsubr
          hstem
          198 201 562 201 vstem
          -105 callgsubr
          endchar
        </CharString>
        <CharString name="uacute">
          -56 callsubr
          151 521 -36 callgsubr
          125 463 -26 201 hintmask 11010100
          -105 callgsubr
          hintmask 00101000
          -58 1411 -89 callsubr
        </CharString>
        <CharString name="ubreve">
          -56 callsubr
          280 161 -36 callgsubr
          -69 699 -68 201 hintmask 11010100
          -105 callgsubr
          hintmask 00101000
          -5 1540 -94 callsubr
        </CharString>
        <CharString name="ucircumflex">
          -56 callsubr
          156 495 -36 callgsubr
          -75 710 -73 201 hintmask 11010100
          -105 callgsubr
          hintmask 00101000
          -271 1416 -96 callsubr
          endchar
        </CharString>
        <CharString name="udieresis">
          -56 callsubr
          224 359 -36 callgsubr
          -136 832 -134 201 hintmask 11010100
          -105 callgsubr
          hintmask 00101000
          236 1484 rmoveto
          179 180 -95 callgsubr
          -287 -180 rmoveto
          179 180 -95 callgsubr
          endchar
        </CharString>
        <CharString name="ugrave">
          -56 callsubr
          141 521 -36 callgsubr
          -20 454 128 201 hintmask 11010100
          -105 callgsubr
          hintmask 00101000
          64 1401 -73 callsubr
        </CharString>
        <CharString name="uhungarumlaut">
          -56 callsubr
          151 521 -36 callgsubr
          -78 856 -216 201 hintmask 11010100
          -105 callgsubr
          hintmask 00101000
          184 1411 -65 callgsubr
        </CharString>
        <CharString name="umacron">
          -56 callsubr
          355 157 -36 callgsubr
          -54 669 -53 201 hintmask 11010100
          -105 callgsubr
          hintmask 00101000
          -335 1627 -63 callgsubr
        </CharString>
        <CharString name="underscore">
          -272 -312 118 hstem
          -12 1212 vstem
          -12 -194 rmoveto
          -118 1212 118 vlineto
          endchar
        </CharString>
        <CharString name="uni0001">
          endchar
        </CharString>
        <CharString name="uni0002">
          endchar
        </CharString>
        <CharString name="uni0003">
          endchar
        </CharString>
        <CharString name="uni0004">
          endchar
        </CharString>
        <CharString name="uni0005">
          endchar
        </CharString>
        <CharString name="uni0006">
          endchar
        </CharString>
        <CharString name="uni0007">
          endchar
        </CharString>
        <CharString name="uni0008">
          endchar
        </CharString>
        <CharString name="uni0009">
          endchar
        </CharString>
        <CharString name="uni0010">
          endchar
        </CharString>
        <CharString name="uni0011">
          endchar
        </CharString>
        <CharString name="uni0012">
          endchar
        </CharString>
        <CharString name="uni0013">
          endchar
        </CharString>
        <CharString name="uni0014">
          endchar
        </CharString>
        <CharString name="uni0015">
          endchar
        </CharString>
        <CharString name="uni0016">
          endchar
        </CharString>
        <CharString name="uni0017">
          endchar
        </CharString>
        <CharString name="uni0018">
          endchar
        </CharString>
        <CharString name="uni0019">
          endchar
        </CharString>
        <CharString name="uni00AD">
          -35 callgsubr
        </CharString>
        <CharString name="uni1E02">
          -3 callgsubr
          63 359 13 callsubr
          33 360 212 226 -98 226 hintmask 0000000000000000
          hintmask 0101001000000000
          -57 callgsubr
          hintmask 1000101001000000
          7 callsubr
          hintmask 1000101010000000
          -87 vlineto
          158 -14 15 -21 -127 vvcurveto
          hintmask 1001001001000000
          -43 callsubr
          hintmask 1010101010000000
          -49 callgsubr
          hintmask 1001001001000000
          -294 -25 97 109 hvcurveto
          hintmask 0000010100000000
          215 1321 -97 callsubr
          endchar
        </CharString>
        <CharString name="uni1E03">
          -34 callsubr
          906 1471 -27 callsubr
          180 -60 callgsubr
          rlineto
          hintmask 10111100
          -182 -179 rlineto
          -623 -1651 rmoveto
          260 hlineto
          47 67 -7 -7 65 hvcurveto
          -75 callsubr
          vlineto
          hintmask 01111100
          -549 -83 hlineto
          0 callsubr
          hintmask 10111100
          -1226 vlineto
          -22 callsubr
          377 210 rmoveto
          hintmask 01111100
          556 vlineto
          -52 callgsubr
          -242 -48 97 110 vhcurveto
          endchar
        </CharString>
        <CharString name="uni1E0A">
          -24 callgsubr
          69 -22 callgsubr
          237 203 171 360 304 224 hintmask 00000000
          hintmask 01010101
          -45 callsubr
          hintmask 10010101
          498 275 344 498 507 -323 220 -433 -38 -93 -6 -5 -80 hvcurveto
          -5 -75 -72 3 -30 hhcurveto
          hintmask 10100101
          -291 -88 14 callgsubr
          -6 -155 vvcurveto
          -1004 -8 callsubr
          hintmask 01010101
          376 134 rmoveto
          1112 vlineto
          hintmask 10010101
          91 172 23 102 333 228 -151 -439 -498 -152 -267 -372 -73 -238 21 108 vhcurveto
          hintmask 00001010
          353 1396 -97 callsubr
          endchar
        </CharString>
        <CharString name="uni1E0B">
          -98 -30 116 -86 83 1045 117 382 83 hstemhm
          43 225 622 204 hintmask 00000000
          hintmask 01111100
          456 1471 -97 callsubr
          330 -1681 rmoveto
          67 82 8 8 75 hvcurveto
          -17 callsubr
          1226 vlineto
          hintmask 10111100
          137 37 3 136 12 vhcurveto
          83 vlineto
          hintmask 01111100
          -549 -83 hlineto
          134 -14 38 1 -139 vvcurveto
          -370 vlineto
          86 -79 -137 54 -127 hhcurveto
          hintmask 10111100
          -325 -179 -308 -316 -323 195 -328 366 hvcurveto
          hintmask 01111100
          -4 116 rmoveto
          -236 -96 252 283 -6 callgsubr
          hvcurveto
          7 callgsubr
        </CharString>
        <CharString name="uni1E1E">
          8 callgsubr
          83 -22 callgsubr
          259 202 71 360 hintmask 11101000
          86 hmoveto
          655 83 hlineto
          -256 25 -24 -69 callgsubr
          463 569 vlineto
          27 114 rlineto
          -596 576 454 hlineto
          184 61 -25 -122 -45 -8 -55 -13 -71 hvcurveto
          95 hlineto
          105 430 rlineto
          -1253 -87 hlineto
          10 callsubr
          -155 -22 -6 -151 -21 vhcurveto
          hintmask 00010100
          628 1530 -97 callsubr
          endchar
        </CharString>
        <CharString name="uni1E1F">
          -607 0 85 770 122 467 107 0 -20 hstemhm
          273 203 hintmask 00000000
          hintmask 11011000
          -4 callsubr
          603 337 122 -339 156 6 callsubr
          1 107 rlineto
          -127 15 callsubr
          -103 -362 hvcurveto
          -23 vlineto
          -71 -28 -24 -141 -20 vhcurveto
          hintmask 11101000
          -93 167 -624 vlineto
          -113 -23 -22 -152 -11 vhcurveto
          hintmask 11011000
          376 1528 -97 callsubr
          endchar
        </CharString>
        <CharString name="uni1E40">
          763 -29 -21 50 83 1530 -22 callgsubr
          31 2161 -1274 360 hintmask 11010000
          -78 callsubr
          hintmask 00101000
          1069 1530 -97 callsubr
          endchar
        </CharString>
        <CharString name="uni1E41">
          752 0 85 1037 86 263 -22 callgsubr
          317 203 463 360 -284 203 544 205 hintmask 11010110
          -90 callgsubr
          hintmask 00101000
          1018 1388 -97 callsubr
          endchar
        </CharString>
        <CharString name="uni1E56">
          6 callgsubr
          61 -22 callgsubr
          269 202 48 360 156 226 hintmask 00000000
          hintmask 11010101
          96 hmoveto
          624 82 hlineto
          -55 6 rlineto
          hintmask 11100101
          9 callsubr
          hintmask 11010101
          -75 callgsubr
          hintmask 00001010
          605 1531 -97 callsubr
          endchar
        </CharString>
        <CharString name="uni1E57">
          4 callsubr
          263 -22 callgsubr
          239 204 77 360 168 226 hintmask 00000000
          hintmask 11100101
          -58 callsubr
          hintmask 11010101
          -28 callgsubr
          hintmask 11100101
          -55 callsubr
          hintmask 00001010
          259 1105 -97 callsubr
          endchar
        </CharString>
        <CharString name="uni1E60">
          -11 callgsubr
          62 359 -54 callsubr
          130 360 76 -100 callgsubr
          590 1300 -97 callsubr
          endchar
        </CharString>
        <CharString name="uni1E61">
          -32 callsubr
          243 359 -53 callgsubr
          63 360 16 -100 callsubr
          490 1220 -97 callsubr
          endchar
        </CharString>
        <CharString name="uni1E6A">
          72 0 87 1337 106 83 -22 callgsubr
          575 360 -273 203 hintmask 11001000
          -94 callgsubr
          hintmask 00110000
          354 1526 -97 callsubr
          endchar
        </CharString>
        <CharString name="uni1E6B">
          -605 0 93 993 122 hstemhm
          159 241 -108 201 hintmask 00000000
          hintmask 11010000
          400 1613 -97 callsubr
          -59 -1793 rmoveto
          636 93 hlineto
          hintmask 11100000
          -32 callgsubr
          807 362 122 vlineto
          hintmask 11010000
          -362 299 hlineto
          -145 1 -11 -130 -35 -139 -14 -18 rlinecurve
          1 hlineto
          -20 -22 -148 -21 0 vvcurveto
          -92 171 vlineto
          hintmask 11100000
          -810 vlineto
          -169 -12 2 -121 -26 vhcurveto
          endchar
        </CharString>
        <CharString name="uogonek">
          -100 -14 callsubr
          454 -21 1133 86 -36 callgsubr
          1 204 357 201 hintmask 00000000
          hintmask 11110100
          400 -342 rmoveto
          -133 98 -93 156 -54 callgsubr
          -81 -48 65 80 93 53 135 130 87 hvcurveto
          268 179 107 193 545 vvcurveto
          150 8 21 131 18 vhcurveto
          86 -490 -86 vlineto
          hintmask 11101100
          137 -13 13 -34 -122 vvcurveto
          -502 -29 -123 -252 -238 vhcurveto
          -251 238 -30 123 502 vvcurveto
          122 12 34 139 13 vhcurveto
          86 -492 -86 -23 callgsubr
          -139 vvcurveto
          -572 116 -181 299 -191 vhcurveto
          -112 -82 -101 -116 -133 vvcurveto
          endchar
        </CharString>
        <CharString name="uring">
          -56 callsubr
          152 99 307 106 -36 callgsubr
          -8 124 329 124 -7 201 hintmask 11001001
          -105 callgsubr
          hintmask 00110110
          -1 1412 -79 callsubr
        </CharString>
        <CharString name="utilde">
          -56 callsubr
          196 2 callgsubr
          198 201 -117 118 558 118 -115 201 hintmask 11001001
          -105 callgsubr
          hintmask 00000000
          -393 1490 -84 callgsubr
          hintmask 00100110
          -70 callsubr
          hintmask 00010110
          -57 callsubr
        </CharString>
        <CharString name="v">
          -270 -24 -21 1167 86 hstem
          -12 1216 vstem
          568 -45 rmoveto
          73 hlineto
          133 336 140 349 134 335 rrcurveto
          109 43 52 40 61 hhcurveto
          84 -439 -86 vlineto
          72 56 -10 -63 -37 -12 -34 -16 -42 hvcurveto
          -240 -633 -265 707 rlineto
          -8 22 -4 18 14 vvcurveto
          55 56 0 73 3 vhcurveto
          86 -489 -84 vlineto
          110 -15 26 -31 49 -124 rrcurveto
          endchar
        </CharString>
        <CharString name="w">
          2 callsubr
          hstem
          210 197 518 199 518 198 vstem
          -104 callgsubr
          endchar
        </CharString>
        <CharString name="wacute">
          2 callsubr
          -20 callgsubr
          210 197 463 463 -408 199 518 198 hintmask 10101100
          -104 callgsubr
          hintmask 01010000
          302 1299 -89 callsubr
        </CharString>
        <CharString name="wcircumflex">
          2 callsubr
          -21 callsubr
          210 197 263 710 -455 199 518 198 hintmask 10101100
          -104 callgsubr
          hintmask 01010000
          89 1304 -96 callsubr
          endchar
        </CharString>
        <CharString name="wdieresis">
          2 callsubr
          224 -22 callgsubr
          210 197 202 832 -516 199 518 198 hintmask 10101100
          -104 callgsubr
          hintmask 01010000
          596 1372 rmoveto
          179 180 -95 callgsubr
          -287 -180 rmoveto
          179 180 -95 callgsubr
          endchar
        </CharString>
        <CharString name="wgrave">
          2 callsubr
          141 -5 callsubr
          210 197 318 454 -254 199 518 198 hintmask 10101100
          -104 callgsubr
          hintmask 01010000
          424 1289 -73 callsubr
        </CharString>
        <CharString name="x">
          -97 0 82 1044 82 hstem
          101 1238 vstem
          101 hmoveto
          504 82 hlineto
          -169 10 -7 21 45 vvcurveto
          44 67 215 221 142 vhcurveto
          195 -142 46 -215 -44 vvcurveto
          -45 -7 -21 -137 -10 vhcurveto
          -82 525 82 vlineto
          -131 13 1 12 -28 108 -40 153 -98 136 -201 120 194 117 79 121 44 131 7 22 rcurveline
          25 76 12 22 125 13 rrcurveto
          82 -471 -82 vlineto
          127 -10 6 -21 -45 vvcurveto
          -40 -59 -191 -214 -126 vhcurveto
          -181 127 -53 190 40 vvcurveto
          45 -4 21 148 10 vhcurveto
          82 -526 -82 vlineto
          132 -13 9 -12 29 -108 38 -139 85 -113 202 -118 -177 -114 -109 -141 -50 -153 -6 -20 rcurveline
          -26 -89 -3 -12 -124 -12 rrcurveto
          endchar
        </CharString>
        <CharString name="y">
          -31 callgsubr
          hstem
          186 209 91 68 402 203 vstem
          -101 callgsubr
          endchar
        </CharString>
        <CharString name="yacute">
          -31 callgsubr
          152 -5 callsubr
          186 209 91 68 -29 463 -32 203 hintmask 11011010
          -101 callgsubr
          hintmask 00100100
          -17 1451 -89 callsubr
        </CharString>
        <CharString name="ycircumflex">
          -31 callgsubr
          157 -10 callgsubr
          186 209 -70 710 -549 68 402 203 hintmask 11010110
          -101 callgsubr
          hintmask 00101000
          -230 1456 -96 callsubr
          endchar
        </CharString>
        <CharString name="ydieresis">
          -31 callgsubr
          225 -22 callgsubr
          186 209 -131 832 -610 68 402 203 hintmask 11010110
          -101 callgsubr
          hintmask 00101000
          277 1524 rmoveto
          179 180 -95 callgsubr
          -287 -180 rmoveto
          179 180 -95 callgsubr
          endchar
        </CharString>
        <CharString name="yen">
          240 1 83 254 113 188 113 692 87 hstem
          280 201 267 201 266 201 vstem
          261 338 rmoveto
          487 -72 hlineto
          -154 -25 -6 -181 -5 callgsubr
          613 83 vlineto
          -189 25 -17 -69 callgsubr
          72 442 vlineto
          27 113 rlineto
          -469 188 442 hlineto
          27 113 rlineto
          -342 hlineto
          197 101 143 157 246 vvcurveto
          149 9 22 131 17 vhcurveto
          87 -511 -87 vlineto
          137 -13 33 -34 -122 vvcurveto
          -235 -67 -172 -299 -66 vhcurveto
          -265 66 -103 172 235 vvcurveto
          122 31 34 140 13 vhcurveto
          87 -512 -87 -23 callgsubr
          -138 vvcurveto
          -246 137 -156 201 -102 vhcurveto
          -331 hlineto
          -26 -113 rlineto
          487 -188 -461 hlineto
          endchar
        </CharString>
        <CharString name="ygrave">
          -31 callgsubr
          142 -5 callsubr
          186 209 -15 454 -348 68 402 203 hintmask 11010110
          -101 callgsubr
          hintmask 00101000
          105 1441 -73 callsubr
        </CharString>
        <CharString name="z">
          -59 callsubr
          hstemhm
          110 1048 hintmask 00000000
          hintmask 11100100
          110 63 rmoveto
          22 -63 rlineto
          802 hlineto
          34 33 -17 -34 5 hvcurveto
          98 hlineto
          54 395 rlineto
          -97 hlineto
          -153 -49 -33 -68 -207 hhcurveto
          hintmask 11001100
          -372 hlineto
          hintmask 11100100
          734 1022 -22 63 rlineto
          hintmask 11010100
          -705 hlineto
          -54 -22 18 33 -6 hvcurveto
          -95 hlineto
          -104 -400 rlineto
          hintmask 11100100
          99 hlineto
          139 60 29 88 177 hhcurveto
          363 hlineto
          endchar
        </CharString>
        <CharString name="zacute">
          -59 callsubr
          -20 callgsubr
          110 1048 -662 463 -88 callgsubr
          -260 273 -89 callsubr
        </CharString>
        <CharString name="zcaron">
          -59 callsubr
          -21 callsubr
          110 1048 -856 710 -88 callgsubr
          -324 278 -83 callgsubr
        </CharString>
        <CharString name="zdotaccent">
          -59 callsubr
          263 -22 callgsubr
          110 1048 -687 360 -88 callgsubr
          -201 385 -97 callsubr
          endchar
        </CharString>
        <CharString name="zero">
          -96 -26 219 944 216 hstem
          106 112 929 112 vstem
          106 663 rmoveto
          -341 193 -348 388 379 193 340 349 343 -193 347 -379 -385 -196 -347 -343 vhcurveto
          112 hmoveto
          214 91 260 381 372 85 -249 -225 -217 -85 -253 -372 -383 -89 256 214 vhcurveto
          endchar
        </CharString>
      <CharString index="0">
        107 725 rmoveto
        -402 287 -348 462 238 214 89 161 117 -14 callgsubr
        -136 -129 -179 -52 -169 hhcurveto
        -348 -201 313 287 -11 hvcurveto
        621 hlineto
        27 113 rlineto
        -645 hlineto
        346 26 148 280 313 hhcurveto
        158 173 -69 -19 callgsubr
        12 -41 4 -38 -45 vvcurveto
        -30 -2 -34 -3 -41 vhcurveto
        95 hlineto
        133 530 rlineto
        -96 hlineto
        -47 -33 -38 -35 -39 hhcurveto
        -50 -40 14 16 -47 hvcurveto
        22 -64 -67 31 -142 hhcurveto
        -464 -250 -412 -415 hvcurveto
        return
      </CharString>
      <CharString index="1">
        202 hintmask 0000000000000000
        hintmask 1011001010000000
        169 303 rmoveto
        -166 122 -163 301 90 87 7 7 80 vhcurveto
        6 71 69 6 64 hhcurveto
        248 84 hlineto
        -141 14 -19 10 158 vvcurveto
        627 vlineto
        -19 callsubr
        134 -315 vhcurveto
        hintmask 1011010010000000
        -285 -196 -116 -141 -89 112 -56 78 -14 hvcurveto
        68 41 rlineto
        hintmask 0111001010000000
        -16 24 -22 34 42 vvcurveto
        101 97 69 136 193 84 -75 -133 vhcurveto
        -175 vlineto
        hintmask 1011010010000000
        -567 -11 -203 -262 -164 vvcurveto
        770 333 rmoveto
        2 hlineto
        -2 1 rlineto
        -541 -334 rmoveto
        241 266 76 275 16 vhcurveto
        -354 vlineto
        -162 -34 -37 -234 -164 -109 77 143 vhcurveto
        hintmask 0000100100000000
        return
      </CharString>
      <CharString index="2">
        680 -52 rmoveto
        349 209 133 164 612 vvcurveto
        150 8 21 131 18 vhcurveto
        86 -490 -86 vlineto
        137 -13 13 -34 -122 vvcurveto
        -502 -29 -123 -252 -238 vhcurveto
        -251 238 -30 123 502 vvcurveto
        122 12 34 139 13 vhcurveto
        86 -492 -86 -23 callgsubr
        -139 vvcurveto
        -612 133 -164 349 -209 vhcurveto
        return
      </CharString>
      <CharString index="3">
        666 60 rmoveto
        -241 240 -18 147 504 vvcurveto
        122 4 37 154 14 vhcurveto
        84 -501 -84 vlineto
        139 -19 7 -19 -158 vvcurveto
        -609 108 -192 348 -208 vhcurveto
        179 115 110 120 71 166 67 -166 118 -120 173 -115 rrcurveto
        348 208 108 193 608 vvcurveto
        77 10 65 14 15 vhcurveto
        17 20 43 11 62 8 rrcurveto
        84 -501 -84 vlineto
        153 -14 4 -28 -131 vvcurveto
        -504 -18 -147 -240 -240 vhcurveto
        -231 225 -29 109 523 vvcurveto
        183 13 5 145 19 vhcurveto
        84 -513 -84 vlineto
        145 -14 11 -19 -174 vvcurveto
        -484 -13 -134 -246 -239 vhcurveto
        return
      </CharString>
      <CharString index="4">
        -57 57 rlineto
        -73 -85 -112 -23 -125 hhcurveto
        -264 -87 192 217 -19 hvcurveto
        552 4 190 219 200 vvcurveto
        169 -138 117 -258 -328 -236 -268 -373 vhcurveto
        215 39 rmoveto
        235 5 105 260 218 hhcurveto
        163 37 -101 -76 -238 -272 -74 -256 -6 hvcurveto
        return
      </CharString>
      <CharString index="5">
        119 756 rmoveto
        -395 237 -381 495 492 241 374 402 392 -241 403 -492 -491 -241 -403 -392 vhcurveto
        239 hmoveto
        322 96 365 399 399 97 -355 -332 -331 -97 -344 -399 -401 -94 346 329 vhcurveto
        return
      </CharString>
      <CharString index="6">
        640 -92 rmoveto
        138 67 106 98 70 110 -33 -384 -131 -202 -325 -79 21 -105 rcurveline
        559 87 114 431 530 vvcurveto
        447 vlineto
        179 25 25 114 10 vhcurveto
        2 1 rlineto
        85 -503 -86 vlineto
        24 -3 rlineto
        120 -17 15 -2 -184 vvcurveto
        -338 vlineto
        -282 -147 -147 -160 -100 vhcurveto
        -236 188 -18 164 409 vvcurveto
        116 vlineto
        174 15 3 119 16 vhcurveto
        25 3 rlineto
        86 -504 -86 vlineto
        117 -10 19 -25 -180 vvcurveto
        -604 122 -220 332 -175 vhcurveto
        return
      </CharString>
      <CharString index="7">
        209 -139 218 hintmask 00000000
        hintmask 11001001
        137 313 rmoveto
        -219 332 -118 234 311 255 117 303 vhcurveto
        hintmask 11010001
        212 -210 114 -249 127 vhcurveto
        -260 132 -135 67 168 vvcurveto
        137 116 92 155 165 130 -61 -114 -65 -23 -34 -23 -31 vhcurveto
        74 -49 rlineto
        136 41 45 97 77 vvcurveto
        hintmask 11001010
        155 -222 90 -254 -279 -218 -142 -239 -196 137 -122 294 -153 vhcurveto
        190 -99 213 -66 -191 vvcurveto
        -165 -126 -99 -210 -187 -154 128 138 88 20 26 28 39 vhcurveto
        -54 64 rlineto
        hintmask 11001001
        -82 -17 -149 -80 -152 vvcurveto
        hintmask 00100100
        return
      </CharString>
</ttFont>
